<svg id="Layer_1" data-name="Layer 1" xmlns="http://www.w3.org/2000/svg" viewBox="0 0 417.93 50.59"><defs><style>.cls-1{fill:#010101;}.cls-2{fill:#f7a835;}.cls-3{fill:#343432;}</style></defs><path class="cls-1" d="M.32,49.33V47.56c6.9-.19,7.09-1.65,7.09-13.85V19.86C7.41,7.65,7.22,6.2.32,5.94V4.17H21.26V5.94c-6.9.26-7.09,1.71-7.09,13.92v5.75H37.51V19.86c0-12.21-.19-13.66-7.08-13.92V4.17H51.36V5.94c-6.9.26-7.08,1.71-7.08,13.92V33.71c0,12.2.18,13.66,7.08,13.85v1.77H30.43V47.56c6.89-.19,7.08-1.65,7.08-13.85v-6.2H14.17v6.2c0,12.2.19,13.66,7.09,13.85v1.77Z" transform="translate(-0.32)"/><path class="cls-1" d="M76,50.59c-12.84,0-24.61-8.85-24.61-23.84s11.77-24,24.61-24,24.6,8.92,24.6,24S88.8,50.59,76,50.59Zm0-1.89c10,0,16.63-8.67,16.63-22S86,4.68,76,4.68,59.39,13.41,59.39,26.75,66,48.7,76,48.7Z" transform="translate(-0.32)"/><path class="cls-1" d="M117.45,50.34,105.63,19.16c-4.31-11.32-4-13-10.31-13.22V4.17h20.49V5.94c-7.34.19-7.28,1.27-3.1,12.59l7.78,21.25L130,14c-2.28-6.83-2.91-7.91-8.48-8.1V4.17h21.32V5.94c-7.66.19-8.23,1.21-4.12,12.72L146,39.78l7.14-20.11c4.11-11.45,4-13.54-3-13.73V4.17h16.95V5.94c-6.39.19-7.72,2-11.95,13.85L144.33,50.34h-1.77l-10.75-31c-.32-.88-.57-1.71-.82-2.46L119,50.34Z" transform="translate(-0.32)"/><path class="cls-2" d="M189.93,50.34,178.11,19.16c-4.3-11.32-4-13-10.31-13.22V4.17h20.49V5.94c-7.34.19-7.27,1.27-3.1,12.59L193,39.78,202.52,14c-2.28-6.83-2.91-7.91-8.48-8.1V4.17h21.32V5.94c-7.66.19-8.23,1.21-4.12,12.72l7.28,21.12,7.14-20.11c4.11-11.45,4-13.54-3-13.73V4.17h16.95V5.94c-6.39.19-7.72,2-11.95,13.85L216.81,50.34H215l-10.75-31c-.32-.88-.57-1.71-.82-2.46l-12,33.45Z" transform="translate(-0.32)"/><path class="cls-2" d="M268.42,36.24c-.51-7.15-3.54-8.67-9.42-8.67h-4.56v6c0,12.59.76,13.85,10.94,13.85h.38c9.81,0,14.23-4.87,17.27-10l1.26.51-2.72,11.38h-41V47.56c6.9-.19,7.09-1.65,7.09-13.85V19.86c0-12.21-.19-13.66-7.09-13.92V4.17h38.27l.63,10.94-1.39.26C276,8.85,272,6.07,263.74,6.07h-9.3V25.68H259c5.88,0,8.91-1.52,9.42-8.67h1.83V36.24Z" transform="translate(-0.32)"/><path class="cls-3" d="M315,43.64a14.17,14.17,0,0,1-12.14,7c-8.54,0-14.42-7-14.42-17.07a16.72,16.72,0,0,1,16.63-17,12.37,12.37,0,0,1,9.8,4.74V16.7c0-12.21.7-13.66-8.41-13.92V1.08L322.18.44A158.43,158.43,0,0,0,321,16.7V33.77c0,11.64,1.83,13.16,7.9,13.41v1.71L316,50.09A17.74,17.74,0,0,1,315,43.64Zm-10,4.23c5.69,0,10.18-5.43,10.18-15,0-10.19-3.67-13.79-9.49-13.79-5.63,0-9.8,6.07-9.8,14.36C295.87,42.63,299.16,47.87,305,47.87Z" transform="translate(-0.32)"/><path class="cls-3" d="M349.31,50.59c-9.67,0-16.63-7.21-16.63-17.2,0-9.61,7.15-16.82,16.63-16.82a16.48,16.48,0,0,1,16.76,16.82C366.07,43.32,359,50.59,349.31,50.59Zm0-1.89c5.69,0,9.3-5.89,9.3-15.12s-3.61-15.11-9.3-15.11-9.17,5.81-9.17,15.11S343.68,48.7,349.31,48.7Z" transform="translate(-0.32)"/><path class="cls-3" d="M370.25,49.33V47.56c6.39-.19,7.14-1.65,7.14-13.85,0-12,.64-13.47-7.21-13.73v-1.7l13.35-.64V33.71c0,12.2.76,13.66,6.83,13.85v1.77Zm9.29-39.84a4.57,4.57,0,0,1-4.74-4.68,4.75,4.75,0,1,1,9.49,0A4.57,4.57,0,0,1,379.54,9.49Z" transform="translate(-0.32)"/><path class="cls-3" d="M408.51,50.59c-6.13,0-9.36-2.72-9.36-10.81,0-3.92.38-7.78.38-13.47s-.57-5.63-8.22-5.63V18.85c9.74,0,11.89-7,12.14-16.45h2.4V18.21c3.55,0,7.59-.25,10.95-.5v3.22c-3.36-.19-7.4-.19-10.95-.19V36.49c0,8,2,10.31,4.94,10.31,4.17,0,5.12-3.8,5.37-6.89v-.07h2.09v.07C417.74,46.67,415,50.59,408.51,50.59Z" transform="translate(-0.32)"/></svg>