<svg id="Layer_1" data-name="Layer 1" xmlns="http://www.w3.org/2000/svg" viewBox="0 0 488.47 60.79"><defs><style>.cls-1{fill:#9e9e9e;}.cls-2{fill:#f7a835;}.cls-3{fill:#343432;}</style></defs><path class="cls-1" d="M28.14,60.47l-15-39.64C7.64,6.43,8,4.34,0,4V1.77H26.05V4c-9.32.24-9.24,1.61-3.94,16L32,47,44.15,14.31c-2.9-8.68-3.7-10-10.78-10.29V1.77h27.1V4C50.74,4.26,50,5.55,55.24,20.18L64.49,47l9.09-25.57C78.81,6.92,78.64,4.26,69.8,4V1.77H91.35V4c-8.12.24-9.81,2.49-15.2,17.61L62.32,60.47H60.07L46.4,21.07c-.4-1.13-.73-2.17-1-3.14L30.07,60.47Z"/><path class="cls-1" d="M88.62,59.18V56.93c8.76-.24,9-2.09,9-17.61V21.71c0-15.52-.24-17.37-9-17.69V1.77h26.61V4c-8.76.32-9,2.17-9,17.69V29H135.9V21.71c0-15.52-.24-17.37-9-17.69V1.77h26.62V4c-8.76.32-9,2.17-9,17.69V39.32c0,15.52.25,17.37,9,17.61v2.25H126.89V56.93c8.77-.24,9-2.09,9-17.61V31.44H106.23v7.88c0,15.52.24,17.37,9,17.61v2.25Z"/><path class="cls-1" d="M184.79,60.79c-16.32,0-31.28-11.25-31.28-30.31S168.47,0,184.79,0s31.28,11.34,31.28,30.48S201,60.79,184.79,60.79Zm0-2.41c12.71,0,21.15-11,21.15-27.9S197.5,2.41,184.79,2.41s-21.15,11.1-21.15,28.07S172.09,58.38,184.79,58.38Z"/><path class="cls-2" d="M234.84,60.47l-15-39.64C214.33,6.43,214.74,4.34,206.69,4V1.77h26.06V4c-9.33.24-9.25,1.61-3.94,16l9.89,27,12.14-32.73C248,5.63,247.14,4.26,240.07,4V1.77h27.1V4c-9.73.24-10.46,1.53-5.23,16.16L271.19,47l9.08-25.57C285.5,6.92,285.34,4.26,276.49,4V1.77H298V4c-8.12.24-9.81,2.49-15.19,17.61L269,60.47h-2.25l-13.67-39.4c-.4-1.13-.72-2.17-1-3.14L236.77,60.47Z"/><path class="cls-2" d="M334.63,42.54c-.64-9.09-4.5-11-12-11h-5.79v7.64c0,16,1,17.61,13.91,17.61h.49c12.46,0,18.09-6.19,21.95-12.7l1.61.64-3.46,14.47H299.25V56.93c8.77-.24,9-2.09,9-17.61V21.71c0-15.52-.24-17.37-9-17.69V1.77H347.9l.81,13.91-1.77.32c-2.66-8.28-7.72-11.82-18.26-11.82H316.86V29.11h5.79c7.48,0,11.34-1.93,12-11H337V42.54Z"/><path class="cls-3" d="M393.74,60.79c-5.15,0-8.28-2.57-8.93-6.91a16.09,16.09,0,0,1-13.59,6.91c-7.23,0-12.14-4.66-12.14-10.21a10.25,10.25,0,0,1,5.07-9c6.11-3,12.3-2.17,20.58-8V31.28c0-6.27-2.65-9.49-9.25-9.49-5.38,0-10,4-8.36,10.05l-2.65.89c-3.3-7.72,3.62-15.2,14.23-15.2,8.77,0,14.72,4.34,14.72,12.54,0,11.34-3.38,25.9,3.05,25.9,3.62,0,4.43-2.58,4.59-9.49h2.41C403.31,56.77,400,60.79,393.74,60.79Zm-18.58-4.74a9.32,9.32,0,0,0,9.57-9.57v-10c-6,4.9-17,4.66-17,12.78C367.76,53.48,370.34,56.05,375.16,56.05Z"/><path class="cls-3" d="M405.8,59.18V56.93c8.12-.24,9.09-2.09,9.09-17.61V33.69c0-10.13-.56-11.58-9.17-11.82V19.7l17-.8v9.33c2.57-6.36,8.12-10.7,13.27-10.7,5.38,0,8.28,3.78,8.28,6.84,0,2.89-1.61,5.46-4.83,5.46-5.54,0-5-6.67-8.52-6.67-2.81,0-6.59,3.7-8.2,12.14v4c0,15.52.24,17.37,11,17.61v2.25Z"/><path class="cls-3" d="M469.65,60.79c-12.06,0-20.18-8.36-20.18-20.74,0-13.43,8.52-22.52,21-22.52,11.5,0,18.42,8.44,17.37,19.62H459v.64c0,11.83,5,19.06,13.26,19.06,7.48,0,12.63-4.42,13.51-11.58l2.74.32C487.58,54.44,479.7,60.79,469.65,60.79ZM459,34.74H478.5c.8-8.61-2.74-14.8-8.45-14.8C463.7,19.94,459.76,25.33,459,34.74Z"/></svg>