<svg id="Layer_1" data-name="Layer 1" xmlns="http://www.w3.org/2000/svg" viewBox="0 0 216.07 167.79"><defs><style>.cls-1{fill:#9e9e9e;}.cls-2{fill:#f7a835;}.cls-3{fill:#343432;}</style></defs><path class="cls-1" d="M30.15,60.47l-15-39.64C9.65,6.43,10.05,4.34,2,4V1.77H28.06V4c-9.32.24-9.24,1.61-3.94,16L34,47,46.16,14.31c-2.9-8.68-3.7-10-10.78-10.29V1.77h27.1V4C52.75,4.26,52,5.55,57.25,20.18L66.5,47l9.09-25.57C80.82,6.92,80.65,4.26,71.81,4V1.77H93.36V4c-8.12.24-9.81,2.49-15.2,17.61L64.33,60.47H62.08L48.41,21.07c-.4-1.13-.73-2.17-1-3.14L32.08,60.47Z" transform="translate(-2.01)"/><path class="cls-1" d="M90.63,59.18V56.93c8.76-.24,9-2.09,9-17.61V21.71c0-15.52-.24-17.37-9-17.69V1.77h26.61V4c-8.76.32-9,2.17-9,17.69V29h29.67V21.71c0-15.52-.24-17.37-9-17.69V1.77h26.62V4c-8.76.32-9,2.17-9,17.69V39.32c0,15.52.25,17.37,9,17.61v2.25H128.9V56.93c8.77-.24,9-2.09,9-17.61V31.44H108.24v7.88c0,15.52.24,17.37,9,17.61v2.25Z" transform="translate(-2.01)"/><path class="cls-1" d="M186.8,60.79c-16.32,0-31.28-11.25-31.28-30.31S170.48,0,186.8,0s31.28,11.34,31.28,30.48S203.05,60.79,186.8,60.79Zm0-2.41c12.71,0,21.15-11,21.15-27.9S199.51,2.41,186.8,2.41s-21.15,11.1-21.15,28.07S174.1,58.38,186.8,58.38Z" transform="translate(-2.01)"/><path class="cls-2" d="M64.13,122l-15-39.64C43.62,68,44,65.88,36,65.56V63.31H62v2.25c-9.33.24-9.25,1.61-3.94,16l9.89,27L80.13,75.85c-2.89-8.68-3.7-10-10.77-10.29V63.31h27.1v2.25c-9.73.24-10.46,1.53-5.23,16.16l9.25,26.86L109.56,83c5.23-14.56,5.07-17.21-3.78-17.45V63.31h21.56v2.25c-8.13.24-9.82,2.49-15.2,17.61L98.31,122H96.05L82.38,82.61c-.4-1.13-.72-2.17-1-3.14L66.06,122Z" transform="translate(-2.01)"/><path class="cls-2" d="M163.92,104.08c-.64-9.09-4.5-11-12-11h-5.79v7.64c0,16,1,17.61,13.91,17.61h.49c12.46,0,18.09-6.19,21.95-12.7l1.61.64-3.46,14.47H128.54v-2.25c8.77-.24,9-2.09,9-17.61V83.25c0-15.52-.24-17.37-9-17.69V63.31h48.65L178,77.22l-1.77.32c-2.66-8.28-7.72-11.82-18.26-11.82H146.15V90.65h5.79c7.48,0,11.34-1.93,12-11h2.34v24.45Z" transform="translate(-2.01)"/><path class="cls-3" d="M80,167.79c-5.14,0-8.28-2.58-8.92-6.92a16.11,16.11,0,0,1-13.59,6.92c-7.24,0-12.15-4.67-12.15-10.22a10.24,10.24,0,0,1,5.07-9c6.11-3.06,12.3-2.17,20.59-8v-2.34c0-6.27-2.66-9.48-9.25-9.48-5.39,0-10,4-8.37,10.05l-2.65.88c-3.3-7.72,3.62-15.2,14.23-15.2,8.77,0,14.72,4.35,14.72,12.55,0,11.34-3.38,25.89,3.06,25.89,3.61,0,4.42-2.57,4.58-9.49h2.41C89.58,163.77,86.28,167.79,80,167.79ZM61.44,163A9.32,9.32,0,0,0,71,153.47V143.42c-6,4.91-17,4.67-17,12.79C54,160.47,56.61,163,61.44,163Z" transform="translate(-2.01)"/><path class="cls-3" d="M92.07,166.18v-2.25c8.13-.24,9.09-2.09,9.09-17.61v-5.63c0-10.14-.56-11.58-9.17-11.82V126.7l17-.81v9.33c2.58-6.35,8.12-10.7,13.27-10.7,5.39,0,8.28,3.78,8.28,6.84,0,2.89-1.61,5.47-4.82,5.47-5.55,0-5-6.68-8.53-6.68-2.81,0-6.59,3.7-8.2,12.15v4c0,15.52.24,17.37,11,17.61v2.25Z" transform="translate(-2.01)"/><path class="cls-3" d="M155.92,167.79c-12.06,0-20.18-8.37-20.18-20.75,0-13.43,8.52-22.52,21-22.52,11.5,0,18.41,8.45,17.37,19.63H145.23v.64c0,11.82,5,19.06,13.27,19.06,7.47,0,12.62-4.43,13.51-11.58l2.73.32C173.86,161.43,166,167.79,155.92,167.79Zm-10.61-26.06h19.46c.8-8.6-2.73-14.79-8.44-14.79C150,126.94,146,132.32,145.31,141.73Z" transform="translate(-2.01)"/></svg>