<svg id="Layer_1" data-name="Layer 1" xmlns="http://www.w3.org/2000/svg" viewBox="0 0 672.25 85.54"><defs><style>.cls-1{fill:#f7a835;}.cls-2{fill:#9e9e9e;}.cls-3{fill:#010101;}</style></defs><path class="cls-1" d="M19.68,83.27V80.11c14.82-.34,14.71-3,14.71-24.78V5.88H32.73C14.93,5.88,8,11.54,2.43,31.45L0,31,2.1,2.49H78.51L80.61,31l-2.43.45C72.65,11.54,65.68,5.88,47.88,5.88H46.22V55.33c0,21.83-.11,24.44,14.71,24.78v3.16Z"/><path class="cls-1" d="M78,83.27V80.11c12.06-.34,12.39-3,12.39-24.78V30.55C90.35,8.71,90,6.11,78,5.66V2.49h36.6V5.66c-12,.45-12.38,3.05-12.38,24.89V40.84H143V30.55c0-21.84-.33-24.44-12.38-24.89V2.49h36.6V5.66c-12,.45-12.38,3.05-12.38,24.89V55.33c0,21.83.33,24.44,12.38,24.78v3.16H130.6V80.11c12.05-.34,12.38-3,12.38-24.78V44.24h-40.8V55.33c0,21.83.33,24.44,12.38,24.78v3.16Z"/><path class="cls-1" d="M164,83.27V80.11c12.05-.34,12.38-3,12.38-24.78V30.55c0-21.84-.33-24.44-12.38-24.89V2.49h36.6V5.66c-12,.45-12.38,3.05-12.38,24.89V55.33c0,21.83.33,24.44,12.38,24.78v3.16Z"/><path class="cls-1" d="M232.45,85.54c-14.6,0-20.13-5.77-23.78-5.77-2,0-4.31.9-4.75,4.86h-3.21V52.39h2.88c4,18.89,14.6,29.3,27.09,29.3,10.62,0,16.7-6.56,16.7-15.5,0-24.78-43.9-12.67-43.9-43.22,0-13.24,10.72-23,25.87-23,12.28,0,16.48,5.09,18.91,5.09,2.21,0,3.43-1,4.2-4.64h2.88V30.21h-2.88C249,12,241,3.51,230,3.51c-9.18,0-15.49,5.77-15.49,15.5,0,22.74,45.45,11.54,45.45,42.2C260,78.41,244.72,85.54,232.45,85.54Z"/><path class="cls-2" d="M291.73,83.27V80.11c12-.34,12.38-3,12.38-24.78V30.55c0-21.84-.33-24.44-12.38-24.89V2.49h36.6V5.66c-12.06.45-12.39,3.05-12.39,24.89V55.33c0,21.83.33,24.44,12.39,24.78v3.16Z"/><path class="cls-2" d="M360.18,85.54c-14.6,0-20.13-5.77-23.78-5.77-2,0-4.31.9-4.75,4.86h-3.21V52.39h2.87c4,18.89,14.6,29.3,27.1,29.3,10.61,0,16.69-6.56,16.69-15.5,0-24.78-43.9-12.67-43.9-43.22,0-13.24,10.73-23,25.88-23C369.35,0,373.56,5.09,376,5.09c2.21,0,3.43-1,4.2-4.64h2.88V30.21h-2.88c-3.43-18.22-11.5-26.7-22.45-26.7-9.18,0-15.48,5.77-15.48,15.5,0,22.74,45.45,11.54,45.45,42.2C387.71,78.41,372.45,85.54,360.18,85.54Z"/><path class="cls-3" d="M463.9,85.54c-24.77,0-32.06-12.9-32.06-32.59V30.66c0-21.83-.34-24.44-12.39-24.89V2.49h36.6V5.77c-12.05.45-12.38,3.06-12.38,24.89V51.82c0,19.57,7.74,29.42,22.23,29.42,14.81,0,22.33-12,22.33-29.65V30.66c0-21.83-3.43-24.44-15.37-24.89V2.49H508V5.77c-11.73.45-15.49,3.06-15.49,24.89V52.5C492.54,70.83,483.59,85.54,463.9,85.54Z"/><path class="cls-3" d="M539.88,85.54c-14.6,0-20.13-5.77-23.78-5.77-2,0-4.31.9-4.75,4.86h-3.21V52.39H511c4,18.89,14.59,29.3,27.09,29.3,10.61,0,16.7-6.56,16.7-15.5,0-24.78-43.9-12.67-43.9-43.22,0-13.24,10.72-23,25.87-23,12.28,0,16.48,5.09,18.91,5.09,2.21,0,3.43-1,4.2-4.64h2.88V30.21h-2.88c-3.42-18.22-11.5-26.7-22.45-26.7C528.27,3.51,522,9.28,522,19c0,22.74,45.45,11.54,45.45,42.2C567.41,78.41,552.15,85.54,539.88,85.54Z"/><path class="cls-3" d="M613.42,85.54a8.32,8.32,0,1,1,8.18-8.26A8,8,0,0,1,613.42,85.54Z"/><path class="cls-3" d="M638.74,85.54a8.32,8.32,0,1,1,8.19-8.26A8,8,0,0,1,638.74,85.54Z"/><path class="cls-3" d="M664.07,85.54a8.32,8.32,0,1,1,8.18-8.26A8,8,0,0,1,664.07,85.54Z"/></svg>