<?xml version="1.0" encoding="utf-8"?>
<!-- Generator: Adobe Illustrator 24.3.0, SVG Export Plug-In . SVG Version: 6.00 Build 0)  -->
<svg version="1.1" id="Layer_1" xmlns="http://www.w3.org/2000/svg" xmlns:xlink="http://www.w3.org/1999/xlink" x="0px" y="0px"
	 viewBox="0 0 306.1 257.6" style="enable-background:new 0 0 306.1 257.6;" xml:space="preserve">
<style type="text/css">
	.st0{enable-background:new    ;}
	.st1{fill:#9E9E9E;}
	.st2{fill:#F7A835;}
	.st3{fill:#343432;}
</style>
<g class="st0">
	<path class="st1" d="M53,70.2l-15-39.6c-5.5-14.4-5.1-16.5-13.1-16.8v-2.3h26.1v2.3c-9.3,0.2-9.2,1.6-3.9,16l9.9,27L69,24
		c-2.9-8.7-3.7-10.1-10.8-10.3v-2.3h27.1v2.3c-9.7,0.2-10.5,1.5-5.2,16.2l9.2,26.9l9.1-25.6c5.2-14.6,5.1-17.2-3.8-17.5v-2.3h21.6
		v2.3c-8.1,0.2-9.8,2.5-15.2,17.6L87.1,70.2h-2.3L71.2,30.8c-0.4-1.1-0.7-2.2-1-3.1L54.9,70.2H53z"/>
</g>
<g class="st0">
	<path class="st1" d="M113.4,68.9v-2.3c8.8-0.2,9-2.1,9-17.6V31.4c0-15.5-0.2-17.4-9-17.7v-2.3h26.6v2.3c-8.8,0.3-9,2.2-9,17.7v7.3
		h29.7v-7.3c0-15.5-0.2-17.4-9-17.7v-2.3h26.6v2.3c-8.8,0.3-9,2.2-9,17.7v17.6c0,15.5,0.2,17.4,9,17.6v2.3h-26.6v-2.3
		c8.8-0.2,9-2.1,9-17.6v-7.9h-29.7v7.9c0,15.5,0.2,17.4,9,17.6v2.3H113.4z"/>
</g>
<g class="st0">
	<path class="st1" d="M209.6,70.5c-16.3,0-31.3-11.3-31.3-30.3c0-19.1,15-30.5,31.3-30.5c16.2,0,31.3,11.3,31.3,30.5
		C240.9,59.3,225.9,70.5,209.6,70.5z M209.6,68.1c12.7,0,21.1-11,21.1-27.9c0-17-8.4-28.1-21.1-28.1c-12.7,0-21.1,11.1-21.1,28.1
		C188.5,57.1,196.9,68.1,209.6,68.1z"/>
</g>
<g class="st0">
	<path class="st2" d="M92.4,179.7L64,104.9c-10.3-27.2-9.6-31.1-24.7-31.7v-4.3h49.2v4.3c-17.6,0.5-17.5,3-7.4,30.2l18.7,51
		l22.9-61.8c-5.5-16.4-7-19-20.3-19.4v-4.3h51.2v4.3c-18.4,0.5-19.7,2.9-9.9,30.5l17.5,50.7l17.2-48.3c9.9-27.5,9.6-32.5-7.1-32.9
		v-4.3h40.7v4.3c-15.3,0.5-18.5,4.7-28.7,33.2l-26.1,73.3h-4.3l-25.8-74.4c-0.8-2.1-1.4-4.1-2-5.9L96,179.7H92.4z"/>
</g>
<g class="st0">
	<path class="st2" d="M265.8,145.9c-1.2-17.2-8.5-20.8-22.6-20.8h-10.9v14.4c0,30.2,1.8,33.2,26.3,33.2h0.9
		c23.5,0,34.2-11.7,41.4-24l3,1.2l-6.5,27.3h-98.4v-4.3c16.5-0.5,17-3.9,17-33.2v-33.2c0-29.3-0.5-32.8-17-33.4v-4.3h91.9l1.5,26.3
		l-3.3,0.6c-5-15.6-14.6-22.3-34.5-22.3h-22.3v47.1h10.9c14.1,0,21.4-3.6,22.6-20.8h4.4v46.2H265.8z"/>
</g>
<g class="st0">
	<path class="st3" d="M47.9,224.4c-6.5,0-10.5-3.3-11.3-8.8c-3.8,5.3-9.6,8.8-17.3,8.8c-9.2,0-15.4-5.9-15.4-13
		c0-5.6,3.4-9.9,6.4-11.4c7.8-3.9,15.6-2.8,26.1-10.1v-3c0-8-3.4-12-11.7-12c-6.8,0-12.7,5.1-10.6,12.8l-3.4,1.1
		c-4.2-9.8,4.6-19.3,18.1-19.3c11.1,0,18.7,5.5,18.7,15.9c0,14.4-4.3,32.9,3.9,32.9c4.6,0,5.6-3.3,5.8-12h3.1
		C60,219.3,55.9,224.4,47.9,224.4z M24.3,218.3c8,0,12.2-6.2,12.2-12.2v-12.8c-7.6,6.2-21.5,5.9-21.5,16.2
		C14.9,215.1,18.2,218.3,24.3,218.3z"/>
</g>
<g class="st0">
	<path class="st3" d="M61.7,222.3v-2.9c10.3-0.3,11.5-2.7,11.5-22.4V190c0-12.9-0.7-14.7-11.6-15v-2.8l21.5-1V183
		c3.3-8.1,10.3-13.6,16.8-13.6c6.8,0,10.5,4.8,10.5,8.7c0,3.7-2,6.9-6.1,6.9c-7,0-6.3-8.5-10.8-8.5c-3.6,0-8.4,4.7-10.4,15.4v5.1
		c0,19.7,0.3,22.1,14,22.4v2.9H61.7z"/>
</g>
<g class="st0">
	<path class="st3" d="M139.3,224.4c-15.3,0-25.6-10.6-25.6-26.3c0-17.1,10.8-28.6,26.7-28.6c14.6,0,23.4,10.7,22.1,24.9h-36.7
		c0,0.3,0,0.5,0,0.8c0,15,6.3,24.2,16.8,24.2c9.5,0,16-5.6,17.2-14.7l3.5,0.4C162.1,216.3,152,224.4,139.3,224.4z M125.8,191.3h24.7
		c1-10.9-3.5-18.8-10.7-18.8C131.7,172.5,126.7,179.3,125.8,191.3z"/>
</g>
</svg>
