<svg id="Layer_1" data-name="Layer 1" xmlns="http://www.w3.org/2000/svg" viewBox="0 0 340.97 201.27"><defs><style>.cls-1{font-size:105.14px;fill:#1e1e1c;}.cls-1,.cls-4{font-family:Temeraire-Regular, Temeraire;}.cls-2{letter-spacing:-0.05em;}.cls-3{letter-spacing:-0.19em;}.cls-4{font-size:66.5px;fill:#f7a835;letter-spacing:-0.1em;}.cls-5{letter-spacing:0em;}.cls-6{fill:#343432;}</style></defs><text class="cls-1" transform="translate(0 90.11)"><tspan class="cls-2">WH</tspan><tspan class="cls-3" x="197.14" y="0">A</tspan><tspan x="261.17" y="0">T</tspan></text><text class="cls-4" transform="translate(200.97 148.93)">W<tspan class="cls-5" x="69.63" y="0">E</tspan></text><path class="cls-6" d="M132.94,187.92c-10.62,0-18.26-7.92-18.26-18.88,0-10.55,7.85-18.47,18.26-18.47A18.1,18.1,0,0,1,151.33,169C151.33,179.93,143.56,187.92,132.94,187.92Zm0-2.09c6.25,0,10.2-6.45,10.2-16.58s-3.95-16.59-10.2-16.59-10.07,6.38-10.07,16.59S126.76,185.83,132.94,185.83Zm21.59.7v-1.94c7-.21,7.84-1.81,7.84-15.21v-8.12c0-6-.55-6.18-7.91-6.18h-1v-2.29l8.61-.41c-.07-12,6.94-20.06,18.39-20.06,6,0,9.79,2.57,12.08,5.55a13.93,13.93,0,0,1,11.8-6.25c5.48,0,9.92,2.22,9.92,7.43,0,3.12-2.08,4.37-4,4.37a3.62,3.62,0,0,1-3.89-3.81,31.44,31.44,0,0,1,.49-3.27c0-.9.07-3-3.34-3-4.51,0-7.56,4.44-7.56,14.37v4.65H196c3.82,0,7.63-.28,11.45-.56v3.54c-2.84-.21-5.69-.21-8.54-.21h-3v14.23c0,13.4.21,15,9.51,15.21v1.94H181.32v-1.94c7-.21,7.85-1.81,7.85-15.21v-8.33c0-6-.56-6.1-7.92-6.1-4.79,0-9.51.13-12.14.2v14.23c0,13.4.2,15,9.51,15.21v1.94Zm14.58-34.15c5.69-.07,10.34-.21,19.71-.21a30,30,0,0,0,.48-5.9c0-7.71-3.67-12.22-9.5-12.22-7,0-10.69,5.21-10.69,15.07Zm58.17,35.54c-10.42,0-17.43-7.22-17.43-17.91,0-11.59,7.36-19.44,18.12-19.44,9.93,0,15.9,7.29,15,16.94H218v.56c0,10.2,4.31,16.45,11.46,16.45,6.45,0,10.9-3.82,11.66-10l2.36.28C242.76,182.43,236,187.92,227.28,187.92Zm-9.17-22.49h16.8c.7-7.43-2.36-12.77-7.29-12.77C222.14,152.66,218.74,157.31,218.11,165.43Zm28.95,21.1v-1.94c7-.21,7.85-1.81,7.85-15.21v-4.85c0-8.75-.49-10-7.92-10.21v-1.87l14.65-.7v8.06c2.22-5.49,7-9.24,11.45-9.24,4.65,0,7.15,3.27,7.15,5.9s-1.39,4.72-4.16,4.72c-4.79,0-4.31-5.76-7.36-5.76-2.43,0-5.69,3.19-7.08,10.48v3.47c0,13.4.21,15,9.51,15.21v1.94Z" transform="translate(0.52 13.35)"/></svg>