<?xml version="1.0" encoding="utf-8"?>
<!-- Generator: Adobe Illustrator 24.3.0, SVG Export Plug-In . SVG Version: 6.00 Build 0)  -->
<svg version="1.1" id="Layer_1" xmlns="http://www.w3.org/2000/svg" xmlns:xlink="http://www.w3.org/1999/xlink" x="0px" y="0px"
	 viewBox="0 0 487.4 183.4" style="enable-background:new 0 0 487.4 183.4;" xml:space="preserve">
<style type="text/css">
	.st0{enable-background:new    ;}
	.st1{fill:#9E9E9E;}
	.st2{fill:#F7A835;}
	.st3{fill:#343432;}
</style>
<g class="st0">
	<path class="st1" d="M132.3,71.6c-0.9-12.5-6.2-15.1-16.4-15.1H108V67c0,21.9,1.3,24.1,19.1,24.1h0.7c17.1,0,24.8-8.5,30.1-17.4
		l2.2,0.9l-4.7,19.8H83.9v-3.1c12-0.3,12.3-2.9,12.3-24.1V43.1c0-21.3-0.3-23.8-12.3-24.2v-3.1h66.7l1.1,19.1l-2.4,0.4
		c-3.6-11.4-10.6-16.2-25-16.2H108v34.2h7.9c10.2,0,15.5-2.6,16.4-15.1h3.2v33.5H132.3z"/>
</g>
<g class="st0">
	<path class="st1" d="M208,96.7c-7.1,0-11.4-3.5-12.2-9.5c-4.1,5.7-10.4,9.5-18.6,9.5c-9.9,0-16.6-6.4-16.6-14
		c0-6.1,3.6-10.7,6.9-12.3c8.4-4.2,16.9-3,28.2-10.9v-3.2c0-8.6-3.6-13-12.7-13c-7.4,0-13.7,5.5-11.5,13.8l-3.6,1.2
		c-4.5-10.6,5-20.8,19.5-20.8c12,0,20.2,6,20.2,17.2c0,15.5-4.6,35.5,4.2,35.5c5,0,6.1-3.5,6.3-13h3.3
		C221.1,91.2,216.6,96.7,208,96.7z M182.5,90.2c8.6,0,13.1-6.7,13.1-13.1V63.3c-8.2,6.7-23.3,6.4-23.3,17.5
		C172.4,86.6,175.9,90.2,182.5,90.2z"/>
</g>
<g class="st0">
	<path class="st1" d="M223.4,96.7V71.3h2.5l0.7,2.6c3,11.8,11.2,18.8,22,18.8c7.6,0,12.9-2.6,12.9-9.5c0-18.7-37.5-4.2-37.5-27.7
		c0-10.4,7.6-18.3,21.1-18.3c9.4,0,13.6,3.9,15.4,3.9c1.4,0,2.3-0.7,3-2.8l0.3-1.1h2.3v22.8h-2.3l-0.7-2.2
		c-3.9-12.9-11.5-17-18.4-17c-7.1,0-12.8,3.7-12.8,9.1c0,18,38,2.5,38,27.6c0,13-10.7,19-21.4,19c-9,0-15.8-4.2-18.5-4.2
		c-1.9,0-3.1,1.2-3.6,3.1l-0.3,1.1H223.4z"/>
</g>
<g class="st0">
	<path class="st1" d="M271.2,94.5v-3.1c11.1-0.3,12.5-2.9,12.5-24.1c0-20.9,1.1-23.5-12.6-23.9v-3l23.3-1.1v28
		c0,21.3,1.3,23.8,11.9,24.1v3.1H271.2z M287.4,25c-4.7,0-8.3-3.4-8.3-8.2c0-4.8,3.5-8.4,8.3-8.4s8.3,3.5,8.3,8.4
		C295.7,21.6,292.2,25,287.4,25z"/>
</g>
<g class="st0">
	<path class="st1" d="M332.4,96.7c-16.5,0-27.7-11.5-27.7-28.4c0-18.4,11.7-30.9,28.8-30.9c15.8,0,25.2,11.6,23.8,26.9h-39.6
		c0,0.3,0,0.6,0,0.9c0,16.2,6.8,26.1,18.2,26.1c10.2,0,17.3-6.1,18.5-15.9l3.7,0.4C357,88,346.2,96.7,332.4,96.7z M317.9,61h26.7
		c1.1-11.8-3.7-20.3-11.6-20.3C324.2,40.7,318.8,48.1,317.9,61z"/>
</g>
<g class="st0">
	<path class="st1" d="M359.5,94.5v-3.1C370.7,91,372,88.5,372,67.2v-7.7c0-13.9-0.8-15.9-12.6-16.2v-3l23.3-1.1V52
		c3.5-8.7,11.1-14.7,18.2-14.7c7.4,0,11.4,5.2,11.4,9.4c0,4-2.2,7.5-6.6,7.5c-7.6,0-6.8-9.1-11.7-9.1c-3.9,0-9,5.1-11.2,16.6v5.5
		c0,21.3,0.3,23.8,15.1,24.1v3.1H359.5z"/>
</g>
<g class="st0">
	<path class="st2" d="M24.7,160.4l-13-34.4C7,113.5,7.3,111.7,0.3,111.4v-2h22.6v2c-8.1,0.2-8,1.4-3.4,13.9l8.6,23.4l10.5-28.4
		c-2.5-7.5-3.2-8.7-9.3-8.9v-2h23.5v2c-8.4,0.2-9.1,1.3-4.5,14l8,23.3l7.9-22.2c4.5-12.6,4.4-14.9-3.3-15.1v-2h18.7v2
		c-7,0.2-8.5,2.2-13.2,15.3l-12,33.7h-2l-11.9-34.2c-0.3-1-0.6-1.9-0.9-2.7l-13.2,36.9H24.7z"/>
</g>
<g class="st0">
	<path class="st2" d="M82.8,160.7c-10.5,0-17.5-7.3-17.5-18c0-11.6,7.4-19.5,18.2-19.5c10,0,16,7.3,15.1,17h-25c0,0.2,0,0.3,0,0.6
		c0,10.2,4.3,16.5,11.5,16.5c6.5,0,10.9-3.8,11.7-10l2.4,0.3C98.4,155.2,91.5,160.7,82.8,160.7z M73.6,138.1h16.9
		c0.7-7.5-2.4-12.8-7.3-12.8C77.7,125.2,74.2,129.9,73.6,138.1z"/>
</g>
<g class="st0">
	<path class="st2" d="M100.9,160.7l-1.6-0.8c1.7-3.8,1.9-7.2,1.9-17.8v-18.8c0-13.5,0.7-15-7.9-15.3v-2l16-0.6
		c-0.7,3.5-1.3,14.6-1.3,17.8v7.5c2.8-4.5,7.8-7.5,13.7-7.5c9,0,15.5,7.8,15.5,18.8c0,10.5-8.1,18.8-18.3,18.8c-7,0-10-4.2-12.5-4.2
		c-1,0-1.9,0.5-2.7,1.3C102.7,158.5,101.8,159.6,100.9,160.7z M118.1,158.3c6.1,0,10.8-7,10.8-16.4c0-10-3.6-15.8-10-15.8
		c-6.3,0-11.2,5.9-11.2,16.4C107.6,153.8,111.7,158.3,118.1,158.3z"/>
</g>
<g class="st0">
	<path class="st3" d="M162.2,159.3c-9.6,0-13.2-3.7-15.6-3.7c-1.3,0-2.8,0.6-3.1,3.1h-2.1v-20.7h1.9c2.6,12.2,9.6,18.8,17.8,18.8
		c7,0,11-4.2,11-10c0-15.9-28.9-8.2-28.9-27.8c0-8.5,7.1-14.8,17-14.8c8.1,0,10.8,3.3,12.4,3.3c1.5,0,2.3-0.7,2.8-3h1.9v19.1h-1.9
		c-2.3-11.7-7.6-17.2-14.8-17.2c-6,0-10.2,3.7-10.2,10c0,14.6,29.9,7.4,29.9,27.1C180.3,154.7,170.2,159.3,162.2,159.3z"/>
</g>
<g class="st0">
	<path class="st3" d="M205,159.3c-11.1,0-19.1-8.3-19.1-19.8c0-11.1,8.2-19.4,19.1-19.4c10.9,0,19.3,8.4,19.3,19.4
		C224.2,150.9,216.1,159.3,205,159.3z M205,157.1c6.5,0,10.7-6.8,10.7-17.4c0-10.7-4.1-17.4-10.7-17.4c-6.5,0-10.6,6.7-10.6,17.4
		C194.4,150.3,198.5,157.1,205,157.1z"/>
	<path class="st3" d="M225.4,157.8v-2c7.3-0.2,8.2-1.9,8.2-15.9v-19.6c0-14,0.7-15.6-8.3-15.9v-2l16.7-0.7
		c-0.6,2.8-1.4,13.8-1.4,18.6v19.6c0,14,0.9,15.7,8.2,15.9v2H225.4z"/>
</g>
<g class="st0">
	<path class="st3" d="M285.4,158.9c-0.8-2.2-1.2-4.9-1.3-10c-2.7,6.4-9.1,10.4-14.8,10.4c-7.1,0-11.8-3.8-12.1-9.5
		c-0.2-4.4,0.3-6,0.3-12.4c0-12.4-0.8-13-8.1-13.2v-2l15.9-0.7c-0.4,5.7-0.6,11.8-0.7,18c-0.1,9.3,0.3,15.4,8.2,15.4
		c4.8,0,10.1-4.6,11.2-11.6v-3.2c0-15.5-0.5-15.5-8.1-15.8v-2l15.8-0.7c-0.4,5.7-0.7,11.8-0.7,18c0,11.5,0.4,16.2,9.1,16.2v2
		L285.4,158.9z"/>
</g>
<g class="st0">
	<path class="st3" d="M317.5,159.3c-7.1,0-10.8-3.1-10.8-12.4c0-4.5,0.4-9,0.4-15.5c0-6.6-0.7-6.5-9.5-6.5v-2.1
		c11.2,0,13.7-8,14-18.9h2.8V122c4.1,0,8.7-0.3,12.6-0.6v3.7c-3.9-0.2-8.5-0.2-12.6-0.2V143c0,9.2,2.3,11.9,5.7,11.9
		c4.8,0,5.9-4.4,6.2-7.9v-0.1h2.4v0.1C328.1,154.8,324.9,159.3,317.5,159.3z"/>
</g>
<g class="st0">
	<path class="st3" d="M331.4,157.8v-2c7.3-0.2,8.2-1.9,8.2-15.9c0-13.8,0.7-15.5-8.3-15.8v-2l15.4-0.7v18.5c0,14,0.9,15.7,7.9,15.9
		v2H331.4z M342.1,112c-3.1,0-5.5-2.3-5.5-5.4c0-3.2,2.3-5.5,5.5-5.5s5.5,2.3,5.5,5.5C347.5,109.7,345.2,112,342.1,112z"/>
</g>
<g class="st0">
	<path class="st3" d="M375.5,159.3c-11.1,0-19.1-8.3-19.1-19.8c0-11.1,8.2-19.4,19.1-19.4c10.9,0,19.3,8.4,19.3,19.4
		C394.7,150.9,386.6,159.3,375.5,159.3z M375.5,157.1c6.5,0,10.7-6.8,10.7-17.4c0-10.7-4.1-17.4-10.7-17.4
		c-6.5,0-10.6,6.7-10.6,17.4C364.9,150.3,369,157.1,375.5,157.1z"/>
</g>
<g class="st0">
	<path class="st3" d="M398.9,157.8v-2c7.4-0.2,8.2-1.9,8.2-15.9c0-13.8,0.7-15.5-8.3-15.8v-2l15.4-0.7v8.7c2.7-6.1,9-10,15.1-10
		c7.5,0,12.2,3.7,12.4,9.2c0.2,4.4-0.3,6.1-0.3,12.5c0,12.4,0.6,13.7,7.9,13.9v2h-22.8v-2c7-0.2,7.8-1.9,7.8-15.9
		c0-9.2-0.3-15.2-8.5-15.2c-5.4,0-10.5,4.5-11.6,11.4v3.8c0,14,0.9,15.7,7.9,15.9v2H398.9z"/>
</g>
<g class="st0">
	<path class="st3" d="M453.3,159.3v-16.7h1.7l0.4,1.7c2,7.8,7.4,12.4,14.6,12.4c5,0,8.5-1.7,8.5-6.3c0-12.4-24.7-2.8-24.7-18.3
		c0-6.8,5-12.1,13.9-12.1c6.2,0,9,2.5,10.2,2.5c0.9,0,1.5-0.4,2-1.8l0.2-0.7h1.5v15.1H480l-0.4-1.5c-2.5-8.5-7.6-11.2-12.2-11.2
		c-4.7,0-8.4,2.5-8.4,6c0,11.9,25.1,1.7,25.1,18.2c0,8.6-7.1,12.5-14.1,12.5c-6,0-10.4-2.8-12.2-2.8c-1.2,0-2,0.8-2.4,2l-0.2,0.7
		H453.3z"/>
</g>
</svg>
