<svg id="Layer_1" data-name="Layer 1" xmlns="http://www.w3.org/2000/svg" viewBox="0 0 446.15 156.69"><defs><style>.cls-1{fill:#010101;}.cls-2{fill:#f7a835;}.cls-3{fill:#343432;}</style></defs><path class="cls-1" d="M40.18,84.43,19,28.63C11.32,8.38,11.88,5.43.56,5V1.81H37.23V5c-13.12.34-13,2.26-5.54,22.52l13.92,38L62.7,19.47C58.62,7.24,57.49,5.32,47.53,5V1.81H85.67V5C72,5.32,71,7.13,78.32,27.73l13,37.8,12.79-36C111.48,9.05,111.25,5.32,98.8,5V1.81h30.33V5c-11.43.34-13.81,3.51-21.39,24.78L88.28,84.43H85.11L65.87,29c-.57-1.58-1-3-1.47-4.41L42.89,84.43Z"/><path class="cls-1" d="M100.39,82.62V79.45c11.43-.34,13-2.94,21.73-23.66L144.42,0h2.71L169.2,56.93c7.92,20.25,9.05,21.84,19.24,22.52v3.17h-37V79.45C165,79.11,163.32,78.2,156,58.06l-1.13-3.17H127.1L126.65,56c-8.26,20.15-9.17,23.09,5.32,23.43v3.17Zm53.19-31.13L141.36,17.88l-13,33.61Z"/><path class="cls-1" d="M185.16,82.62V79.45c12.45-.45,16-3.06,16-24.9V8.49a18.68,18.68,0,0,0-8.6-2.95L186.07,5V1.81h29.2L259.4,59V29.88C259.4,8,255.9,5.43,243.45,5V1.81H280V5c-12.33.45-16.18,3.06-16.18,24.9V84.09h-1.36L214.59,22.18a84,84,0,0,0-9.06-10.3V54.55c0,21.84,3.85,24.45,16.19,24.9v3.17Z"/><path class="cls-1" d="M276.72,82.62V79.45c12.45-.45,16-3.06,16-24.9V8.49a18.64,18.64,0,0,0-8.6-2.95L277.63,5V1.81h29.2L351,59V29.88C351,8,347.46,5.43,335,5V1.81h36.55V5c-12.33.45-16.18,3.06-16.18,24.9V84.09H354L306.15,22.18a84,84,0,0,0-9.06-10.3V54.55c0,21.84,3.85,24.45,16.19,24.9v3.17Z"/><path class="cls-1" d="M357,82.62V79.45c11.43-.34,13-2.94,21.73-23.66L401,0h2.72l22.07,56.93c7.92,20.25,9.05,21.84,19.24,22.52v3.17H408V79.45c13.58-.34,11.88-1.25,4.53-21.39l-1.14-3.17H383.68L383.22,56c-8.26,20.15-9.16,23.09,5.32,23.43v3.17Zm53.19-31.13L397.94,17.88l-13,33.61Z"/><path class="cls-2" d="M27.82,156.37,13,117.18C7.55,103,8,100.88,0,100.57V98.34H25.76v2.23c-9.22.23-9.14,1.59-3.9,15.82l9.78,26.71,12-32.36C40.78,102.16,40,100.8,33,100.57V98.34H59.78v2.23c-9.62.23-10.33,1.51-5.16,16l9.14,26.56,9-25.28c5.17-14.39,5-17-3.74-17.25V98.34H90.31v2.23c-8,.23-9.7,2.46-15,17.41L61.61,156.37H59.39L45.87,117.42c-.4-1.11-.71-2.15-1-3.1L29.73,156.37Z"/><path class="cls-2" d="M110.59,156.69c-16.14,0-30.93-11.13-30.93-30s14.79-30.13,30.93-30.13,30.92,11.21,30.92,30.13S126.64,156.69,110.59,156.69Zm0-2.38c12.56,0,20.9-10.89,20.9-27.59S123.15,99,110.59,99s-20.91,11-20.91,27.74S98,154.31,110.59,154.31Z"/><path class="cls-2" d="M137.62,155.1v-2.22c8.66-.24,8.9-2.07,8.9-17.41V118.06c0-15.35-.24-17.18-8.9-17.49V98.34h23.29c9.46,0,27.19-1.27,27.19,13.83,0,10.66-9.7,14.07-19.72,14.23,4,.64,8.43,2.31,10.82,5,6.75,7.47,6.2,20.19,13.43,20.19a4.16,4.16,0,0,0,2.38-.71,6.31,6.31,0,0,0,1.2-1l1.19,1.51a8.61,8.61,0,0,1-1,1.28,12.86,12.86,0,0,1-9.3,3.65,10.61,10.61,0,0,1-9.47-4.85c-4.29-6.52-1.35-23.93-18-24H155v7.55c0,15.34.24,17.57,8.9,17.81v2.22Zm17.41-30h6c13,0,17.41-5,17.41-13,0-9.14-5.72-11.45-17.41-11.45h-6Z"/><path class="cls-2" d="M189.93,155.1v-2.22c8.66-.24,8.9-2.07,8.9-17.41V118.06c0-15.35-.24-17.18-8.9-17.49V98.34h26.31v2.23c-8.66.31-8.9,2.14-8.9,17.49v10.49l12.24-12.8c11.13-11.13,13.6-15,5-15.18V98.34h22.66v2.23c-9.46,0-13.28,4.13-24.57,16.05l-4.53,4.77,14.31,17.26c9.3,11.2,10.18,13.83,18.6,14.23v2.22H223.48v-2.22c8.9-.4,9.22-.24.31-11l-11.68-14.08-4.77,5v2.71c0,15.34.24,17.17,8.9,17.41v2.22Z"/><path class="cls-3" d="M264.49,156,260.3,144.2c-3.24-9.06-3.51-10.1-9-10.28v-1.26H266v1.26c-5,.18-3.93.91-1.18,9.51l1.85,5.77,6.53-16.54h1l5.54,16.54,1.81-5.18c3.1-9,4.05-10-1.22-10.19v-1.26l11,.09v1.26c-5.23.18-5.09,1.27-8.43,10.19L278.6,156h-1l-5.63-16-6.4,16Z"/><path class="cls-3" d="M292,155.1v-1.26c4.56-.13,5.1-1.17,5.1-9.87s.45-9.6-5.14-9.78V133l9.51-.45V144c0,8.7.54,9.74,4.86,9.87v1.26Zm6.63-28.39a3.25,3.25,0,0,1-3.38-3.33,3.38,3.38,0,1,1,6.76,0A3.25,3.25,0,0,1,298.61,126.71Z"/><path class="cls-3" d="M317.26,156c-4.37,0-6.66-1.93-6.66-7.7,0-2.8.27-5.55.27-9.6s-.41-4-5.86-4v-1.31c6.94,0,8.47-4.95,8.65-11.71h1.71v11.26c2.53,0,5.41-.18,7.8-.36v2.3c-2.39-.14-5.27-.14-7.8-.14V146c0,5.73,1.4,7.35,3.52,7.35,3,0,3.65-2.7,3.83-4.91v0h1.48v0C323.84,153.21,321.91,156,317.26,156Z"/><path class="cls-3" d="M325.38,155.1v-1.26c4.55-.13,5.09-1.17,5.09-9.87V131.81c0-8.7.45-9.69-5.14-9.87v-1.26l10.37-.41a101.73,101.73,0,0,0-.86,11.54v6.12a10.46,10.46,0,0,1,9.33-6.17c4.64,0,7.52,2.3,7.7,5.72.14,2.71-.18,3.79-.18,7.75,0,7.71.36,8.48,4.87,8.61v1.26h-14.1v-1.26c4.32-.13,4.82-1.17,4.82-9.87,0-5.68-.18-9.42-5.28-9.42-3.33,0-6.48,2.8-7.16,7.08V144c0,8.7.54,9.74,4.87,9.87v1.26Z"/><path class="cls-3" d="M394,155.78a19.53,19.53,0,0,1-.81-6.22,10.48,10.48,0,0,1-9.15,6.44c-4.41,0-7.3-2.34-7.48-5.9-.13-2.7.18-3.74.18-7.71,0-7.7-.49-8-5-8.15V133l9.82-.45c-.27,3.56-.36,7.3-.4,11.13-.09,5.76.18,9.55,5,9.55,3,0,6.27-2.84,6.94-7.21v-2c0-9.6-.31-9.6-5-9.78V133l9.78-.45c-.27,3.56-.41,7.3-.41,11.13,0,7.12.23,10.05,5.64,10.05v1.21Z"/><path class="cls-3" d="M405.46,156V145.64h1l.27,1.08c1.21,4.82,4.59,7.71,9,7.71,3.11,0,5.27-1.09,5.27-3.88,0-7.66-15.32-1.71-15.32-11.31,0-4.24,3.11-7.48,8.61-7.48,3.83,0,5.54,1.58,6.3,1.58.59,0,.95-.27,1.22-1.13l.14-.45h.94v9.33H422l-.27-.9c-1.58-5.27-4.69-6.94-7.53-6.94S409,134.78,409,137c0,7.34,15.55,1,15.55,11.26,0,5.32-4.37,7.75-8.74,7.75-3.7,0-6.45-1.71-7.57-1.71a1.54,1.54,0,0,0-1.49,1.26l-.13.45Z"/><path class="cls-3" d="M436.19,145.23a4.21,4.21,0,0,1-4.5-4.32c0-5.59,8.83-7.3,8.83-14.33a5,5,0,0,0-5.27-5.41,6.26,6.26,0,0,0-6.22,6.36v.67H427.5v-.72c0-4.33,3.74-8,9.32-8,4.55,0,9.33,2.57,9.33,7.57,0,7.8-11.76,10-11.76,14.78,0,1.08.68,1.89,2.3,1.89a4.24,4.24,0,0,0,3.42-2.21l.95.9A5.43,5.43,0,0,1,436.19,145.23ZM435.74,156a3.31,3.31,0,1,1,3.34-3.29A3.2,3.2,0,0,1,435.74,156Z"/></svg>