<svg id="Layer_1" data-name="Layer 1" xmlns="http://www.w3.org/2000/svg" viewBox="0 0 629.31 61.01"><defs><style>.cls-1{fill:#010101;}.cls-2{fill:#f7a835;}.cls-3{fill:#343432;}</style></defs><path class="cls-1" d="M30,61,14.72,20.69C9.16,6.05,9.57,3.93,1.39,3.6V1.31h26.5V3.6c-9.49.24-9.41,1.63-4,16.27L33.94,47.35,46.29,14.07c-2.95-8.84-3.76-10.23-11-10.47V1.31H62.89V3.6C53,3.84,52.26,5.15,57.57,20L67,47.35l9.24-26c5.31-14.8,5.15-17.5-3.84-17.74V1.31H94.29V3.6c-8.26.24-10,2.53-15.45,17.91L64.77,61H62.48L48.58,20.94c-.41-1.15-.74-2.21-1.07-3.19L32,61Z" transform="translate(-1.39)"/><path class="cls-1" d="M73.52,59.7V57.41c8.26-.25,9.41-2.13,15.7-17.09L105.33,0h2l15.94,41.14c5.73,14.63,6.55,15.78,13.91,16.27V59.7H110.4V57.41c9.82-.25,8.59-.9,3.28-15.46l-.82-2.29h-20l-.33.82c-6,14.56-6.62,16.68,3.85,16.93V59.7ZM112,37.21l-8.83-24.29L93.72,37.21Z" transform="translate(-1.39)"/><path class="cls-1" d="M134.77,59.7V57.41c9-.33,11.54-2.21,11.54-18V6.13A13.52,13.52,0,0,0,140.09,4l-4.66-.41V1.31h21.1l31.89,41.3v-21c0-15.78-2.53-17.66-11.53-18V1.31h26.42V3.6c-8.92.33-11.7,2.21-11.7,18V60.76h-1L156,16a60.42,60.42,0,0,0-6.55-7.44V39.42c0,15.78,2.79,17.66,11.7,18V59.7Z" transform="translate(-1.39)"/><path class="cls-1" d="M200.93,59.7V57.41c9-.33,11.54-2.21,11.54-18V6.13A13.52,13.52,0,0,0,206.25,4l-4.66-.41V1.31h21.1l31.89,41.3v-21c0-15.78-2.53-17.66-11.53-18V1.31h26.42V3.6c-8.92.33-11.7,2.21-11.7,18V60.76h-1L222.2,16a60.42,60.42,0,0,0-6.55-7.44V39.42c0,15.78,2.79,17.66,11.7,18V59.7Z" transform="translate(-1.39)"/><path class="cls-1" d="M258.92,59.7V57.41c8.26-.25,9.4-2.13,15.7-17.09L290.73,0h2l15.95,41.14c5.72,14.63,6.54,15.78,13.9,16.27V59.7H295.8V57.41c9.81-.25,8.59-.9,3.27-15.46l-.82-2.29h-20l-.33.82c-6,14.56-6.62,16.68,3.84,16.93V59.7Zm38.43-22.49-8.83-24.29-9.4,24.29Z" transform="translate(-1.39)"/><path class="cls-2" d="M325.38,58.8,314.19,29.31c-4.07-10.71-3.77-12.26-9.75-12.5V15.13h19.38v1.68c-6.94.18-6.88,1.19-2.93,11.9l7.36,20.1,9-24.35c-2.15-6.46-2.75-7.47-8-7.65V15.13h20.16v1.68c-7.24.18-7.77,1.13-3.89,12l6.88,20,6.76-19c3.89-10.83,3.77-12.8-2.81-13V15.13h16v1.68c-6,.18-7.3,1.85-11.3,13.1L350.8,58.8h-1.68L339,29.49c-.29-.84-.53-1.62-.77-2.33L326.81,58.8Z" transform="translate(-1.39)"/><path class="cls-2" d="M387.65,59c-12.14,0-23.27-8.38-23.27-22.55s11.13-22.67,23.27-22.67,23.27,8.43,23.27,22.67S399.73,59,387.65,59Zm0-1.8c9.45,0,15.73-8.19,15.73-20.75s-6.28-20.88-15.73-20.88-15.73,8.26-15.73,20.88S378.2,57.24,387.65,57.24Z" transform="translate(-1.39)"/><path class="cls-2" d="M408,57.84V56.17c6.52-.18,6.7-1.56,6.7-13.1V30c0-11.55-.18-12.92-6.7-13.16V15.13h17.52c7.12,0,20.46-1,20.46,10.41,0,8-7.3,10.59-14.83,10.71,3,.48,6.34,1.73,8.13,3.77,5.08,5.62,4.67,15.19,10.11,15.19a3.12,3.12,0,0,0,1.79-.54,4.73,4.73,0,0,0,.9-.72l.9,1.14a6.06,6.06,0,0,1-.78,1,9.67,9.67,0,0,1-7,2.75,8,8,0,0,1-7.12-3.65c-3.23-4.91-1-18-13.51-18.06h-3.47v5.68c0,11.54.18,13.22,6.7,13.4v1.67Zm13.1-22.55h4.48c9.81,0,13.1-3.77,13.1-9.75,0-6.88-4.3-8.61-13.1-8.61h-4.48Z" transform="translate(-1.39)"/><path class="cls-2" d="M447.35,57.84V56.17c6.52-.18,6.7-1.56,6.7-13.1V30c0-11.55-.18-12.92-6.7-13.16V15.13h19.8v1.68c-6.52.24-6.7,1.61-6.7,13.16v7.89l9.21-9.63C478,19.86,479.89,17,473.43,16.81V15.13h17v1.68c-7.11,0-10,3.11-18.48,12.08l-3.41,3.59,10.77,13c7,8.43,7.65,10.41,14,10.71v1.67H472.59V56.17c6.7-.3,6.94-.18.24-8.32L464,37.26,460.45,41v2c0,11.54.18,12.92,6.7,13.1v1.67Z" transform="translate(-1.39)"/><path class="cls-3" d="M494,57.09l-3.15-8.85c-2.44-6.81-2.65-7.59-6.78-7.73v-.95h11.08v.95c-3.79.14-2.95.68-.88,7.16L495.68,52l4.92-12.45h.78L505.55,52l1.35-3.9c2.34-6.78,3.05-7.53-.91-7.66v-1l8.3.06v.95c-3.93.14-3.83,1-6.34,7.67l-3.32,8.91h-.78L499.61,45,494.8,57.09Z" transform="translate(-1.39)"/><path class="cls-3" d="M514.7,56.45v-1c3.43-.1,3.84-.88,3.84-7.43s.34-7.22-3.87-7.35V39.8l7.15-.34v8.61c0,6.55.41,7.33,3.67,7.43v1Zm5-21.36a2.45,2.45,0,0,1-2.54-2.51,2.54,2.54,0,1,1,5.08,0A2.45,2.45,0,0,1,519.69,35.09Z" transform="translate(-1.39)"/><path class="cls-3" d="M533.73,57.13c-3.29,0-5-1.46-5-5.8,0-2.1.2-4.17.2-7.22s-.3-3-4.41-3v-1c5.23,0,6.38-3.73,6.51-8.82h1.29v8.48c1.9,0,4.07-.14,5.87-.27v1.73c-1.8-.11-4-.11-5.87-.11v8.44c0,4.31,1.05,5.53,2.65,5.53,2.23,0,2.74-2,2.88-3.69v0H539v0C538.68,55,537.22,57.13,533.73,57.13Z" transform="translate(-1.39)"/><path class="cls-3" d="M539.83,56.45v-1c3.42-.1,3.83-.88,3.83-7.43V38.92c0-6.54.34-7.29-3.86-7.42v-.95l7.79-.31a78.71,78.71,0,0,0-.64,8.68v4.61a7.85,7.85,0,0,1,7-4.64c3.49,0,5.66,1.72,5.8,4.3.1,2-.14,2.85-.14,5.83,0,5.8.27,6.38,3.66,6.48v1H552.68v-1c3.25-.1,3.63-.88,3.63-7.43,0-4.27-.14-7.08-4-7.08-2.51,0-4.88,2.1-5.39,5.32v1.76c0,6.55.41,7.33,3.66,7.43v1Z" transform="translate(-1.39)"/><path class="cls-3" d="M591.47,57a15,15,0,0,1-.61-4.68A7.89,7.89,0,0,1,584,57.13c-3.32,0-5.49-1.77-5.63-4.45-.1-2,.14-2.81.14-5.79,0-5.8-.38-6-3.77-6.14v-1l7.39-.34c-.2,2.68-.27,5.49-.3,8.38-.07,4.34.13,7.18,3.8,7.18,2.23,0,4.71-2.13,5.22-5.42V48.11c0-7.22-.24-7.22-3.77-7.36v-1l7.36-.34c-.2,2.68-.3,5.49-.3,8.38,0,5.35.16,7.56,4.23,7.56v.91Z" transform="translate(-1.39)"/><path class="cls-3" d="M600.09,57.13v-7.8h.78l.2.81c.91,3.63,3.46,5.8,6.78,5.8,2.34,0,4-.81,4-2.92,0-5.76-11.53-1.29-11.53-8.51,0-3.18,2.34-5.62,6.47-5.62,2.89,0,4.17,1.18,4.75,1.18s.71-.2.92-.84l.1-.34h.71v7h-.71l-.21-.67c-1.18-4-3.52-5.23-5.66-5.23s-3.93,1.16-3.93,2.82c0,5.52,11.7.78,11.7,8.47,0,4-3.29,5.84-6.58,5.84-2.78,0-4.85-1.29-5.7-1.29a1.16,1.16,0,0,0-1.12.95l-.1.34Z" transform="translate(-1.39)"/><path class="cls-3" d="M623.21,49a3.17,3.17,0,0,1-3.39-3.25c0-4.21,6.64-5.49,6.64-10.78a3.79,3.79,0,0,0-4-4.07,4.71,4.71,0,0,0-4.68,4.78v.51h-1.15v-.54c0-3.26,2.81-6,7-6,3.43,0,7,1.93,7,5.7,0,5.86-8.85,7.52-8.85,11.12,0,.81.51,1.42,1.73,1.42a3.23,3.23,0,0,0,2.58-1.66l.71.68A4.09,4.09,0,0,1,623.21,49Zm-.34,8.11a2.5,2.5,0,1,1,2.51-2.48A2.42,2.42,0,0,1,622.87,57.13Z" transform="translate(-1.39)"/></svg>