<?xml version="1.0" encoding="utf-8"?>
<!-- Generator: Adobe Illustrator 24.3.0, SVG Export Plug-In . SVG Version: 6.00 Build 0)  -->
<svg version="1.1" id="Layer_1" xmlns="http://www.w3.org/2000/svg" xmlns:xlink="http://www.w3.org/1999/xlink" x="0px" y="0px"
	 viewBox="0 0 440.7 108.8" style="enable-background:new 0 0 440.7 108.8;" xml:space="preserve">
<style type="text/css">
	.st0{enable-background:new    ;}
	.st1{fill:#010101;}
	.st2{fill:#F7A835;}
	.st3{fill:#343432;}
</style>
<g class="st0">
	<path class="st1" d="M0.9,77.5v-2.5C10.8,74.7,11,72.6,11,55.1V35.3c0-17.4-0.3-19.5-10.1-19.9v-2.5h29.9v2.5
		c-9.9,0.4-10.1,2.4-10.1,19.9v8.2h33.4v-8.2c0-17.4-0.3-19.5-10.1-19.9v-2.5h29.9v2.5c-9.9,0.4-10.1,2.4-10.1,19.9v19.8
		c0,17.4,0.3,19.5,10.1,19.8v2.5H43.9v-2.5c9.9-0.3,10.1-2.3,10.1-19.8v-8.9H20.7v8.9c0,17.4,0.3,19.5,10.1,19.8v2.5H0.9z"/>
</g>
<g class="st0">
	<path class="st1" d="M109.1,79.3c-18.4,0-35.2-12.7-35.2-34.1c0-21.5,16.8-34.3,35.2-34.3c18.3,0,35.2,12.7,35.2,34.3
		C144.3,66.6,127.4,79.3,109.1,79.3z M109.1,76.6c14.3,0,23.8-12.4,23.8-31.4c0-19.1-9.5-31.5-23.8-31.5
		c-14.3,0-23.8,12.5-23.8,31.5C85.3,64.2,94.8,76.6,109.1,76.6z"/>
</g>
<g class="st0">
	<path class="st1" d="M168.3,78.9l-16.9-44.6c-6.1-16.2-5.7-18.5-14.7-18.9v-2.5H166v2.5c-10.5,0.3-10.4,1.8-4.4,18l11.1,30.4
		L186.3,27c-3.3-9.8-4.2-11.3-12.1-11.6v-2.5h30.5v2.5c-10.9,0.3-11.8,1.7-5.9,18.2l10.4,30.2l10.2-28.7c5.9-16.4,5.7-19.3-4.2-19.6
		v-2.5h24.2v2.5c-9.1,0.3-11,2.8-17.1,19.8l-15.5,43.7h-2.5l-15.4-44.3c-0.5-1.3-0.8-2.4-1.2-3.5l-17.2,47.8H168.3z"/>
</g>
<g class="st0">
	<path class="st2" d="M254.1,76l-10.7-28.2c-3.9-10.2-3.6-11.7-9.3-11.9v-1.6h18.5v1.6C246,36,246,37,249.8,47.2l7,19.2l8.6-23.3
		c-2.1-6.2-2.6-7.1-7.7-7.3v-1.6h19.3v1.6c-6.9,0.2-7.4,1.1-3.7,11.5l6.6,19.1l6.5-18.2c3.7-10.3,3.6-12.2-2.7-12.4v-1.6H299v1.6
		c-5.8,0.2-7,1.8-10.8,12.5L278.4,76h-1.6l-9.7-28c-0.3-0.8-0.5-1.5-0.7-2.2L255.5,76H254.1z"/>
</g>
<g class="st0">
	<path class="st2" d="M319.4,63.2c-0.5-6.5-3.2-7.8-8.5-7.8h-4.1v5.4c0,11.4,0.7,12.5,9.9,12.5h0.3c8.9,0,12.9-4.4,15.6-9l1.1,0.5
		l-2.5,10.3h-37v-1.6c6.2-0.2,6.4-1.5,6.4-12.5V48.4c0-11-0.2-12.3-6.4-12.6v-1.6h34.6l0.6,9.9l-1.3,0.2c-1.9-5.9-5.5-8.4-13-8.4
		h-8.4v17.7h4.1c5.3,0,8.1-1.4,8.5-7.8h1.7v17.4H319.4z"/>
</g>
<g class="st0">
	<path class="st3" d="M354.9,71c-1.8,3.1-5.1,5-8.7,5c-6.1,0-10.3-5-10.3-12.2c0-6.7,5.3-12.1,11.9-12.1c2.9,0,5.5,1.4,7,3.4v-3.3
		c0-8.7,0.5-9.7-6-9.9v-1.2l11.2-0.5c-0.4,2.3-0.9,9.4-0.9,11.6V64c0,8.3,1.3,9.4,5.6,9.6v1.2l-9.2,0.9
		C355.2,74.5,355,73.3,354.9,71z M347.8,74c4.1,0,7.3-3.9,7.3-10.7c0-7.3-2.6-9.8-6.8-9.8c-4,0-7,4.3-7,10.2
		C341.3,70.3,343.6,74,347.8,74z"/>
</g>
<g class="st0">
	<path class="st3" d="M377.8,76c-6.9,0-11.9-5.1-11.9-12.3c0-6.9,5.1-12,11.9-12c6.8,0,11.9,5.2,11.9,12
		C389.7,70.8,384.7,76,377.8,76z M377.8,74.6c4.1,0,6.6-4.2,6.6-10.8c0-6.6-2.6-10.8-6.6-10.8c-4,0-6.5,4.1-6.5,10.8
		C371.2,70.4,373.8,74.6,377.8,74.6z"/>
</g>
<g class="st0">
	<path class="st3" d="M407.2,75.1v-1.3c4.6-0.1,5.1-1.2,5.1-9.9c0-8.6,0.5-9.6-5.1-9.8v-1.2l9.5-0.5v11.4c0,8.7,0.5,9.7,4.9,9.9v1.3
		H407.2z M413.8,46.7c-1.9,0-3.4-1.4-3.4-3.3c0-2,1.4-3.4,3.4-3.4c1.9,0,3.4,1.4,3.4,3.4C417.2,45.3,415.7,46.7,413.8,46.7z"/>
</g>
<g class="st0">
	<path class="st3" d="M432.4,76c-4.4,0-6.7-1.9-6.7-7.7c0-2.8,0.3-5.5,0.3-9.6c0-4.1-0.4-4-5.9-4v-1.3c6.9,0,8.5-5,8.7-11.7h1.7
		v11.3c2.5,0,5.4-0.2,7.8-0.4v2.3c-2.4-0.1-5.3-0.1-7.8-0.1v11.2c0,5.7,1.4,7.3,3.5,7.3c3,0,3.7-2.7,3.8-4.9v0h1.5v0
		C439,73.2,437,76,432.4,76z"/>
</g>
</svg>
