<?xml version="1.0" encoding="utf-8"?>
<!-- Generator: Adobe Illustrator 24.3.0, SVG Export Plug-In . SVG Version: 6.00 Build 0)  -->
<svg version="1.1" id="Layer_1" xmlns="http://www.w3.org/2000/svg" xmlns:xlink="http://www.w3.org/1999/xlink" x="0px" y="0px"
	 viewBox="0 0 552.5 151.7" style="enable-background:new 0 0 552.5 151.7;" xml:space="preserve">
<style type="text/css">
	.st0{enable-background:new    ;}
	.st1{fill:#010101;}
	.st2{fill:#F7A835;}
	.st3{fill:#343432;}
</style>
<g class="st0">
	<path class="st1" d="M32.1,78.9L15.2,34.4C9,18.2,9.5,15.8,0.5,15.5v-2.5h29.3v2.5c-10.5,0.3-10.4,1.8-4.4,18l11.1,30.4L50.1,27
		c-3.3-9.8-4.2-11.3-12.1-11.6v-2.5h30.5v2.5c-10.9,0.3-11.8,1.7-5.9,18.2l10.4,30.2l10.2-28.7c5.9-16.4,5.7-19.3-4.2-19.6v-2.5
		h24.2v2.5c-9.1,0.3-11,2.8-17.1,19.8L70.5,78.9H68L52.6,34.6c-0.5-1.3-0.8-2.4-1.2-3.5L34.3,78.9H32.1z"/>
	<path class="st1" d="M100,77.5v-2.5c9.9-0.3,10.1-2.3,10.1-19.8V35.3c0-17.4-0.3-19.5-10.1-19.9v-2.5h29.9v2.5
		c-9.9,0.4-10.1,2.4-10.1,19.9v8.2h33.4v-8.2c0-17.4-0.3-19.5-10.1-19.9v-2.5h29.9v2.5c-9.9,0.4-10.1,2.4-10.1,19.9v19.8
		c0,17.4,0.3,19.5,10.1,19.8v2.5H143v-2.5c9.9-0.3,10.1-2.3,10.1-19.8v-8.9h-33.4v8.9c0,17.4,0.3,19.5,10.1,19.8v2.5H100z"/>
</g>
<g class="st0">
	<path class="st1" d="M170.4,77.5v-2.5c9.1-0.3,10.4-2.3,17.4-18.9l17.8-44.6h2.2L225.4,57c6.3,16.2,7.2,17.4,15.4,18v2.5h-29.6
		v-2.5c10.8-0.3,9.5-1,3.6-17.1l-0.9-2.5h-22.1l-0.4,0.9c-6.6,16.1-7.3,18.4,4.2,18.7v2.5H170.4z M212.9,52.6l-9.8-26.8l-10.4,26.8
		H212.9z"/>
</g>
<g class="st0">
	<path class="st1" d="M242,77.5v-2.5c12.1-0.3,12-2.3,12-19.8V15.6h-1.4c-14.6,0-20.2,4.5-24.8,20.4l-2-0.4l1.7-22.8h62.5l1.7,22.8
		l-2,0.4c-4.5-15.9-10.2-20.4-24.8-20.4h-1.4v39.5c0,17.4-0.1,19.5,12,19.8v2.5H242z"/>
	<path class="st1" d="M355.5,58.8c-0.7-10.2-5.1-12.4-13.5-12.4h-6.5V55c0,18,1.1,19.8,15.6,19.8h0.5c14,0,20.3-7,24.7-14.3l1.8,0.7
		l-3.9,16.3h-58.6v-2.5c9.9-0.3,10.1-2.3,10.1-19.8V35.3c0-17.4-0.3-19.5-10.1-19.9v-2.5h54.7l0.9,15.6l-2,0.4
		c-3-9.3-8.7-13.3-20.5-13.3h-13.3v28h6.5c8.4,0,12.7-2.2,13.5-12.4h2.6v27.5H355.5z"/>
</g>
<g class="st0">
	<path class="st1" d="M376.2,77.5v-2.5c9.9-0.3,10.1-2.3,10.1-19.8V35.3c0-17.4-0.3-19.5-10.1-19.9v-2.5h30.8v2.5
		c-10,0.4-11.1,2.4-11.1,19.9v19.8c0,18,1.1,19.6,15.9,19.6h0.3c16,0,22.2-10.5,25.5-20.3l2.1,0.5l-4.3,22.6H376.2z"/>
</g>
<g class="st0">
	<path class="st1" d="M466.5,79.3c-11.9,0-16.5-4.6-19.4-4.6c-1.6,0-3.5,0.7-3.9,3.9h-2.6V52.8h2.4c3.3,15.1,11.9,23.4,22.1,23.4
		c8.7,0,13.6-5.2,13.6-12.4c0-19.8-35.9-10.1-35.9-34.5c0-10.6,8.8-18.3,21.2-18.3c10,0,13.5,4.1,15.5,4.1c1.8,0,2.8-0.8,3.4-3.7
		h2.3v23.8h-2.3c-2.8-14.6-9.4-21.3-18.4-21.3c-7.5,0-12.7,4.6-12.7,12.4c0,18.2,37.2,9.2,37.2,33.7
		C489.1,73.6,476.6,79.3,466.5,79.3z"/>
</g>
<g class="st0">
	<path class="st1" d="M528.5,58.8c-0.7-10.2-5.1-12.4-13.5-12.4h-6.5V55c0,18,1.1,19.8,15.6,19.8h0.5c14,0,20.3-7,24.7-14.3l1.8,0.7
		l-3.9,16.3h-58.6v-2.5c9.9-0.3,10.1-2.3,10.1-19.8V35.3c0-17.4-0.3-19.5-10.1-19.9v-2.5h54.7l0.9,15.6l-2,0.4
		c-3-9.3-8.7-13.3-20.5-13.3h-13.3v28h6.5c8.4,0,12.7-2.2,13.5-12.4h2.6v27.5H528.5z"/>
</g>
<g class="st0">
	<path class="st2" d="M409.6,132.9l-10.7-28.2c-3.9-10.2-3.6-11.7-9.3-11.9v-1.6h18.5v1.6c-6.6,0.2-6.6,1.1-2.8,11.4l7,19.2L421,100
		c-2.1-6.2-2.6-7.1-7.7-7.3v-1.6h19.3v1.6c-6.9,0.2-7.4,1.1-3.7,11.5l6.6,19.1l6.5-18.2c3.7-10.3,3.6-12.2-2.7-12.4v-1.6h15.3v1.6
		c-5.8,0.2-7,1.8-10.8,12.5l-9.8,27.6h-1.6l-9.7-28c-0.3-0.8-0.5-1.5-0.7-2.2L411,132.9H409.6z"/>
</g>
<g class="st0">
	<path class="st2" d="M474.9,120.1c-0.5-6.5-3.2-7.8-8.5-7.8h-4.1v5.4c0,11.4,0.7,12.5,9.9,12.5h0.3c8.9,0,12.9-4.4,15.6-9l1.1,0.5
		l-2.5,10.3h-37v-1.6c6.2-0.2,6.4-1.5,6.4-12.5v-12.5c0-11-0.2-12.3-6.4-12.6v-1.6h34.6l0.6,9.9l-1.3,0.2c-1.9-5.9-5.5-8.4-13-8.4
		h-8.4v17.7h4.1c5.3,0,8.1-1.4,8.5-7.8h1.7v17.4H474.9z"/>
</g>
<g class="st0">
	<path class="st3" d="M510.4,127.9c-1.8,3.1-5.1,5-8.7,5c-6.1,0-10.3-5-10.3-12.2c0-6.7,5.3-12.1,11.9-12.1c2.9,0,5.5,1.4,7,3.4
		v-3.3c0-8.7,0.5-9.7-6-9.9v-1.2l11.2-0.5c-0.4,2.3-0.9,9.4-0.9,11.6v12.2c0,8.3,1.3,9.4,5.6,9.6v1.2l-9.2,0.9
		C510.7,131.4,510.5,130.2,510.4,127.9z M503.2,130.9c4.1,0,7.3-3.9,7.3-10.7c0-7.3-2.6-9.8-6.8-9.8c-4,0-7,4.3-7,10.2
		C496.8,127.2,499.1,130.9,503.2,130.9z"/>
</g>
<g class="st0">
	<path class="st3" d="M533.3,132.9c-6.9,0-11.9-5.1-11.9-12.3c0-6.9,5.1-12,11.9-12c6.8,0,11.9,5.2,11.9,12
		C545.2,127.7,540.2,132.9,533.3,132.9z M533.3,131.5c4.1,0,6.6-4.2,6.6-10.8c0-6.6-2.6-10.8-6.6-10.8c-4,0-6.5,4.1-6.5,10.8
		C526.7,127.3,529.2,131.5,533.3,131.5z"/>
</g>
</svg>
