<svg id="Layer_1" data-name="Layer 1" xmlns="http://www.w3.org/2000/svg" viewBox="0 0 59.09 36.14"><defs><style>.cls-1{fill:#010101;}</style></defs><path class="cls-1" d="M46.68,9C33.1,9,33.08,22.52,33.08,22.59s-.93,13.54,13.6,13.54c0,0,10.93.62,12-8a1.27,1.27,0,0,0-1.26-1.44h-3.8a1.24,1.24,0,0,0-1.2.88c-.34,1.12-1.5,2.93-5.56,2.93,0,0-5.26.35-6.11-4.71A1.26,1.26,0,0,1,42,24.37H57.82a1.26,1.26,0,0,0,1.26-1.21C59.21,19.53,58.54,9,46.68,9M41.54,19.63a.74.74,0,0,1-.71-1,6,6,0,0,1,6-4.48,5,5,0,0,1,5.33,4.6.74.74,0,0,1-.74.84ZM25.22,16.48a.52.52,0,0,1-.08-1c1.51-.77,3.3-2.46,3.3-6.1C28.44,3.1,24,0,18.43,0H.93A.93.93,0,0,0,0,.93V34.46a.93.93,0,0,0,.93.93H18.42s11.26.34,11.26-10.46c0,0,.37-6.86-4.46-8.45M8.12,7a.68.68,0,0,1,.67-.68h9.64s2.49,0,2.49,3.69-1.46,4.22-3.13,4.22h-9a.67.67,0,0,1-.67-.67ZM17.91,29.1H8.79a.67.67,0,0,1-.67-.67V20.3a.67.67,0,0,1,.67-.67h9.64s3.73,0,3.72,4.88c0,4.13-2.78,4.56-4.24,4.59M39.06,1.41v3a.66.66,0,0,0,.66.67H53a.67.67,0,0,0,.66-.67v-3A.67.67,0,0,0,53,.75H39.72a.66.66,0,0,0-.66.66"/></svg>