<svg id="Layer_1" data-name="Layer 1" xmlns="http://www.w3.org/2000/svg" viewBox="0 0 315.06 578.24"><defs><style>.cls-1{fill:#f7a835;}.cls-2{fill:#1d1d1b;}.cls-3{fill:#343432;}</style></defs><path class="cls-1" d="M64.46,555.9c0,11.91-10,22.34-25.53,22.34-10.21,0-35.74-4.47-38.93-38.08l5.32-1.07c3,20.21,11.27,26.59,20,26.59,4,0,5.95-1.49,7-3.61,1.27-2.77.85-6.6.85-9.58A15.06,15.06,0,0,1,48.51,538C57.65,538,64.46,545.05,64.46,555.9Zm0-53.19c0,11.92-10,22.34-25.53,22.34C28.72,525.05,3.19,520.58,0,487l5.32-1.07c3,20.21,11.27,26.6,20,26.6,4,0,5.95-1.49,7-3.62,1.27-2.77.85-6.59.85-9.57a15.07,15.07,0,0,1,15.32-14.47C57.65,484.84,64.46,491.86,64.46,502.71Z"/><path class="cls-2" d="M109.17,462.46h-3c-.32-11-2.82-12.28-23.8-12.28-20.65,0-23.15-1.08-23.59,12.39H55.8l-1.09-22.93H67.76a25.2,25.2,0,0,1-14.89-22.5c0-11.19,5.54-18.15,13.8-18.58,6.52-.33,9.13.43,18.69.43,18.59,0,20.44-.87,20.76-11.74h3v34h-3c-.32-10.43-2.82-11.63-23.8-11.63-13.69,0-22.72.44-22.72,12.72,0,8,6.74,15.65,17.07,17.28h5.65c21,0,23.48-1.3,23.8-11.74h3Z"/><path class="cls-2" d="M111.34,362.47c0,16.63-12.39,28.59-29.56,28.59-16.52,0-28.91-12.29-28.91-28.59s12.49-28.8,28.91-28.8C98.84,333.67,111.34,345.84,111.34,362.47Zm-3.26,0c0-9.78-10.11-16-26-16s-26,6.2-26,16,10,15.76,26,15.76S108.08,372.14,108.08,362.47Z"/><path class="cls-2" d="M176.65,430.73l-28.37,10.11c-21.84,7.82-24.34,8.47-24.78,21.73h-3V427h3c.44,12.18,2.18,9.46,22.94,2.83l13.91-4.46-39.89-15.76v-2.5l39.89-13.37-12.5-4.34c-21.74-7.5-24.13-9.79-24.57,2.93h-3l.22-26.63h3c.44,12.61,3,12.28,24.57,20.33l28.58,10.65v2.5L138,412.79l38.69,15.44Z"/><path class="cls-2" d="M176.76,342c0,16.63-12.39,28.58-29.56,28.58-16.52,0-28.92-12.28-28.92-28.58s12.5-28.8,28.92-28.8C164.26,313.24,176.76,325.41,176.76,342Zm-3.26,0c0-9.78-10.11-16-26-16s-26,6.2-26,16,10,15.76,26,15.76S173.5,351.71,173.5,342Z"/><path class="cls-2" d="M174.59,316.93h-3.05c-.32-11-2.82-12.28-23.8-12.28h-7.61c-13.69,0-15.65.76-16,12.39h-2.93l-1.09-22.93h12.61c-8.59-3.48-14.46-11-14.46-17.94,0-7.28,5.11-11.19,9.24-11.19,3.92,0,7.39,2.17,7.39,6.52,0,7.5-9,6.74-9,11.52,0,3.8,5,8.91,16.42,11.09h5.43c21,0,23.48-.33,23.8-14.89h3.05Z"/><path class="cls-2" d="M174.59,272.48h-3.05c-.32-11-2.82-12.28-23.8-12.28H118.39c-21,0-23.36-1.09-23.8,12.39h-3l-1-25c5.43,1.08,22.71,2.06,27.82,2.06h31.52L131.44,230.2c-4.89-5.11-7.72-2.18-7.94,5.32h-3V208.35h3c.55,8,2.94,11.52,8.91,17.83l6.63,6.95L162,216.29c8-6,9.13-7.72,9.56-14h3.05v31.09h-3.05c-.22-7-1.85-9.56-7.17-5.54l-17.72,13.37,8,8.36c14.56-.32,16.52-2.5,16.84-11.63h3.05Z"/><path class="cls-3" d="M254,462.46h-3c-.32-11-2.82-12.28-23.8-12.28-20.65,0-23.15-1.08-23.59,12.39h-2.93l-1.09-22.93h13a25.21,25.21,0,0,1-14.9-22.5c0-11.19,5.55-18.15,13.81-18.58,6.52-.33,9.13.43,18.69.43,18.59,0,20.44-.87,20.76-11.74h3v34h-3c-.32-10.43-2.82-11.63-23.8-11.63-13.7,0-22.72.44-22.72,12.72,0,8,6.74,15.65,17.07,17.28h5.65c21,0,23.48-1.3,23.8-11.74h3Z"/><path class="cls-3" d="M256.15,362.47c0,16.63-12.39,28.59-29.56,28.59-16.52,0-28.92-12.28-28.92-28.59s12.5-28.8,28.92-28.8C243.65,333.67,256.15,345.84,256.15,362.47Zm-3.26,0c0-9.78-10.11-16-26-16s-26,6.2-26,16,10,15.76,26,15.76S252.89,372.15,252.89,362.47Z"/><path class="cls-3" d="M312.88,462.46h-3c-.32-11-2.82-12.28-23.8-12.28h-7.61c-13.69,0-15.65.76-16,12.39h-2.93l-1.09-22.93H271c-8.59-3.48-14.46-11-14.46-17.93,0-7.29,5.11-11.2,9.24-11.2,3.92,0,7.39,2.18,7.39,6.52,0,7.5-9,6.74-9,11.52,0,3.81,5,8.92,16.41,11.09H286c21,0,23.48-.33,23.8-14.89h3Z"/><path class="cls-3" d="M315.06,387c0,16.3-11.31,27.28-28,27.28-18.15,0-30.44-11.52-30.44-28.37,0-15.54,11.42-24.89,26.52-23.48v39H284c16,0,25.76-6.74,25.76-17.93,0-10.11-6-17.07-15.65-18.26l.44-3.7C306.47,362.8,315.06,373.45,315.06,387Zm-35.22,14.34v-26.3c-11.63-1.09-20,3.7-20,11.41C259.84,395.08,267.13,400.4,279.84,401.38Z"/><path class="cls-3" d="M315,335.19,286.58,345.3c-21.84,7.83-24.34,8.48-24.78,21.74h-3V331.5h3c.44,12.17,2.17,9.45,22.93,2.82l13.92-4.45-39.89-15.76v-2.5l39.89-13.37-12.5-4.35c-21.74-7.5-24.13-9.78-24.57,2.94h-3l.22-26.63h3c.44,12.6,3,12.28,24.57,20.32L315,301.17v2.5l-38.69,13.59L315,332.69Z"/><path class="cls-3" d="M315.06,229.55c0,6.95-3.48,11.19-9.35,12.06A21.77,21.77,0,0,1,315.06,260c0,9.78-6.31,16.41-13.81,16.41-6,0-10.54-3.59-12.17-6.85-4.13-8.26-2.93-16.63-10.76-27.82h-3.15c-8.48,0-12.83,3.59-12.83,12.5,0,7.28,5.44,13.48,13.59,11.3l1.2,3.59c-10.44,4.46-20.55-4.89-20.55-19.24,0-11.85,5.87-19.89,17-19.89,15.32,0,35,4.57,35-4.13,0-4.89-3.48-6-12.83-6.19V216.4C309.62,216.61,315.06,221.07,315.06,229.55Zm-6.41,25.1c0-8.47-6.63-12.93-12.94-12.93H282.13c6.63,8,6.3,22.93,17.28,22.93C305.17,264.65,308.65,261.17,308.65,254.65Z"/><path class="cls-3" d="M312.88,224.11h-3c-.32-11-2.82-12.28-23.8-12.28h-7.61c-13.69,0-15.65.76-16,12.39h-2.93l-1.09-22.93H271c-8.59-3.48-14.46-11-14.46-17.94,0-7.28,5.11-11.19,9.24-11.19,3.92,0,7.39,2.17,7.39,6.52,0,7.5-9,6.74-9,11.52,0,3.8,5,8.91,16.41,11.09H286c21,0,23.48-.33,23.8-14.89h3Z"/><path class="cls-3" d="M303.1,130.31a24.37,24.37,0,0,1,12,20.87c0,14.68-12,24.78-29.35,24.78-16.19,0-29.13-12.71-29.13-28.58a21.27,21.27,0,0,1,8.16-16.85H256.8c-21,0-23.47-1.19-23.91,14.46H230l-1.09-27.07c5.43,1,22.71,2.07,27.93,2.07h29.35c20,0,22.6-3.15,23-13.59h2.93l2.07,22.07C311.47,129.55,308.75,130.1,303.1,130.31Zm7.28,17.18c0-9.79-9.34-17.5-25.75-17.5-17.5,0-23.7,6.3-23.7,16.3,0,9.67,10.44,16.85,24.67,16.85C301.36,163.14,310.38,157.49,310.38,147.49Z"/><path class="cls-1" d="M258.06,91.27l-5.32,1.06c-3-20.21-11.28-26.59-20-26.59-4,0-6,1.49-7,3.62-1.28,2.76-.85,6.59-.85,9.57a15.06,15.06,0,0,1-15.32,14.46c-9.15,0-16-7-16-17.87,0-11.91,10-22.33,25.53-22.33C229.34,53.19,254.87,57.65,258.06,91.27Zm0-53.19-5.32,1.06c-3-20.21-11.28-26.59-20-26.59-4,0-6,1.49-7,3.62-1.28,2.76-.85,6.59-.85,9.57a15.07,15.07,0,0,1-15.32,14.47c-9.15,0-16-7-16-17.87,0-11.92,10-22.34,25.53-22.34C229.34,0,254.87,4.47,258.06,38.08Z"/></svg>