<svg id="Layer_1" data-name="Layer 1" xmlns="http://www.w3.org/2000/svg" viewBox="0 0 65.9 444.62"><defs><style>.cls-1{fill:#f7a835;}.cls-2{fill:#010101;}</style></defs><path class="cls-1" d="M18.22,438.4c0,3.37-2.83,6.31-7.22,6.31C8.12,444.71.9,443.45,0,434l1.5-.3c.85,5.71,3.19,7.52,5.66,7.52a1.93,1.93,0,0,0,2-1,6.8,6.8,0,0,0,.24-2.7,4.25,4.25,0,0,1,4.33-4.09C16.3,433.35,18.22,435.33,18.22,438.4Zm0-15c0,3.37-2.83,6.31-7.22,6.31-2.88,0-10.1-1.26-11-10.76l1.5-.3c.85,5.71,3.19,7.51,5.66,7.51a1.94,1.94,0,0,0,2-1,6.8,6.8,0,0,0,.24-2.7,4.25,4.25,0,0,1,4.33-4.09C16.3,418.32,18.22,420.3,18.22,423.37Z" transform="translate(0 -0.09)"/><path class="cls-2" d="M48.77,390.41c0,12.21-8.42,23.4-22.67,23.4S3.31,402.62,3.31,390.41,11.79,367,26.1,367,48.77,378.27,48.77,390.41Zm-1.81,0c0-9.5-8.24-15.81-20.86-15.81s-21,6.31-21,15.81,8.3,15.82,21,15.82S47,399.92,47,390.41Z" transform="translate(0 -0.09)"/><path class="cls-2" d="M48.47,336.42c-1.81.66-4,1-8.3,1.08,5.29,2.22,8.6,7.51,8.6,12.2,0,5.9-3.13,9.75-7.88,10-3.61.18-5-.24-10.28-.24-10.29,0-10.71.66-10.89,6.67H18L17.44,353c4.75.36,9.74.48,14.85.54,7.7.12,12.75-.24,12.75-6.73,0-4-3.79-8.36-9.62-9.26H32.77c-12.81,0-12.81.42-13.05,6.67H18l-.6-13.05c4.75.36,9.74.55,14.85.55,9.5,0,13.41-.31,13.41-7.52h1.62Z" transform="translate(0 -0.09)"/><path class="cls-2" d="M48.77,308.75c0,5.84-2.59,8.9-10.29,8.9-3.72,0-7.39-.36-12.8-.36s-5.36.54-5.36,7.82H18.58c0-9.26-6.61-11.3-15.63-11.55v-2.28H18c0-3.37-.24-7.22-.48-10.4h3.06c-.18,3.18-.18,7-.18,10.4h15c7.63,0,9.8-1.86,9.8-4.69,0-4-3.61-4.87-6.56-5.11h-.06v-2h.06C45,300,48.77,302.56,48.77,308.75Z" transform="translate(0 -0.09)"/><path class="cls-2" d="M48.77,295.58H34.94V294.2l1.44-.36c6.43-1.62,10.28-6.13,10.28-12,0-4.14-1.44-7-5.17-7-10.22,0-2.28,20.44-15.09,20.44-5.65,0-10-4.15-10-11.48,0-5.11,2.1-7.4,2.1-8.42,0-.78-.36-1.26-1.5-1.62l-.6-.18v-1.27H28.86v1.27l-1.2.36c-7,2.1-9.26,6.25-9.26,10s2,7,5,7c9.8,0,1.38-20.74,15-20.74,7.1,0,10.35,5.83,10.35,11.66,0,4.94-2.29,8.6-2.29,10.11a2,2,0,0,0,1.68,2l.61.18Z" transform="translate(0 -0.09)"/><path class="cls-2" d="M48.77,252.59c0,5.83-2.59,8.9-10.29,8.9-3.72,0-7.39-.36-12.8-.36s-5.36.54-5.36,7.82H18.58c0-9.27-6.61-11.31-15.63-11.55v-2.28H18c0-3.37-.24-7.22-.48-10.41h3.06c-.18,3.19-.18,7-.18,10.41h15c7.63,0,9.8-1.87,9.8-4.7,0-4-3.61-4.87-6.56-5.11h-.06v-2h.06C45,243.81,48.77,246.4,48.77,252.59Z" transform="translate(0 -0.09)"/><path class="cls-2" d="M48.77,214.83c0,3.84-1.93,6.19-5.18,6.67a12,12,0,0,1,5.18,10.16c0,5.41-3.49,9.08-7.64,9.08A7.67,7.67,0,0,1,34.39,237c-2.28-4.57-1.62-9.2-5.95-15.39H26.7c-4.69,0-7.1,2-7.1,6.92,0,4,3,7.45,7.52,6.25l.66,2C22,239.18,16.42,234,16.42,226.07c0-6.55,3.24-11,9.38-11,8.47,0,19.36,2.52,19.36-2.29,0-2.7-1.93-3.31-7.1-3.43v-1.8C45.76,207.67,48.77,210.14,48.77,214.83Zm-3.55,13.89a7,7,0,0,0-7.16-7.16H30.55c3.66,4.45,3.48,12.69,9.56,12.69C43.29,234.25,45.22,232.32,45.22,228.72Z" transform="translate(0 -0.09)"/><path class="cls-2" d="M47.56,207.31H45.88c-.18-6.08-1.56-6.8-13.17-6.8-11.42,0-12.81-.6-13,6.86H18l-.6-12.69h7.21a13.94,13.94,0,0,1-8.23-12.45c0-6.19,3.06-10,7.63-10.28,3.61-.18,5.05.24,10.34.24,10.29,0,11.31-.48,11.49-6.49h1.68v18.82H45.88c-.18-5.77-1.56-6.44-13.17-6.44-7.58,0-12.57.24-12.57,7,0,4.45,3.73,8.66,9.44,9.56h3.13c11.61,0,13-.72,13.17-6.49h1.68Z" transform="translate(0 -0.09)"/><path class="cls-2" d="M42.15,138a13.47,13.47,0,0,1,6.62,11.54c0,8.12-6.62,13.71-16.24,13.71a15.9,15.9,0,0,1-16.11-15.81,11.75,11.75,0,0,1,4.51-9.32H16.54c-11.61,0-13-.67-13.23,8H1.68l-.6-15a151.31,151.31,0,0,0,15.46,1.14H32.77c11.07,0,12.51-1.74,12.75-7.51h1.62L48.28,137A17.11,17.11,0,0,1,42.15,138Zm4,9.5c0-5.42-5.17-9.69-14.25-9.69-9.68,0-13.11,3.49-13.11,9,0,5.36,5.77,9.32,13.65,9.32C41.19,156.19,46.18,153.07,46.18,147.54Z" transform="translate(0 -0.09)"/><path class="cls-2" d="M47.56,124.74H45.88c-.18-6.07-1.56-6.79-13.17-6.79-11.42,0-12.81-.6-13,6.86H18l-.6-12.69H32.71c11.61,0,13-.72,13.17-6.5h1.68ZM9.68,115.91a4.35,4.35,0,0,1-4.45,4.51,4.51,4.51,0,1,1,0-9A4.34,4.34,0,0,1,9.68,115.91Z" transform="translate(0 -0.09)"/><path class="cls-2" d="M47.56,105.26H45.88c-.18-6.07-1.56-6.79-13.17-6.79-11.42,0-12.81-.6-13,6.85H18l-.6-12.69h7.21a13.92,13.92,0,0,1-8.23-12.44c0-6.2,3.06-10,7.63-10.29,3.61-.18,5.05.24,10.34.24,10.29,0,11.31-.48,11.49-6.49h1.68V82.47H45.88C45.7,76.7,44.32,76,32.71,76c-7.58,0-12.57.24-12.57,7,0,4.45,3.73,8.66,9.44,9.56h3.13c11.61,0,13-.72,13.17-6.49h1.68Z" transform="translate(0 -0.09)"/><path class="cls-2" d="M65.9,48.56c0,9.26-3.6,15.09-8.6,15.09-3.54,0-6.43-2.41-8.11-5.71A5.26,5.26,0,0,1,44,61.42c-3.85,0-6.32-2.64-7.82-5.29a10.43,10.43,0,0,1-8.66,4.57c-6.19,0-11.06-5.23-11.06-12.93a15.75,15.75,0,0,1,1-5.77,8.68,8.68,0,0,1-6.08-8.18c0-3.06,1.93-4.63,3.79-4.63s3.55,1.09,3.55,3.07c0,3.37-4.69,2.65-4.69,4.33,0,1.2,1.92,3,4.21,3.79a10.47,10.47,0,0,1,9.26-5.65c6.19,0,11.12,5.29,11.12,13a15.07,15.07,0,0,1-1.38,6.56c1,2.1,2.65,3.31,4.15,3.31,2,0,3-2.11,3-4.81,0-6.32-4-22.19,8.84-22.19C60.91,30.64,65.9,38.45,65.9,48.56Zm-2.46-1.09c0-6.91-3.13-12.8-7.94-12.8-4,0-5.65,4.09-5.65,7.57,0,3.31.66,8.3.18,12.39a7.48,7.48,0,0,0,6.67,4C60.19,58.6,63.44,55.11,63.44,47.47Zm-26.82.24c0-3.6-3.25-6.49-9.14-6.49s-9.08,2.89-9.08,6.49,3.19,6.5,9.08,6.5S36.62,51.26,36.62,47.71Z" transform="translate(0 -0.09)"/><path class="cls-1" d="M18.22,25.89l-1.5.3c-.85-5.72-3.19-7.52-5.66-7.52a1.94,1.94,0,0,0-2,1,6.85,6.85,0,0,0-.24,2.71,4.26,4.26,0,0,1-4.33,4.09c-2.59,0-4.51-2-4.51-5,0-3.37,2.83-6.32,7.22-6.32C10.1,15.12,17.32,16.38,18.22,25.89Zm0-15-1.5.3c-.85-5.71-3.19-7.51-5.66-7.51a1.94,1.94,0,0,0-2,1,6.83,6.83,0,0,0-.24,2.71,4.25,4.25,0,0,1-4.33,4.08c-2.59,0-4.51-2-4.51-5C0,3,2.83.09,7.22.09,10.1.09,17.32,1.35,18.22,10.85Z" transform="translate(0 -0.09)"/></svg>