<svg id="Layer_1" data-name="Layer 1" xmlns="http://www.w3.org/2000/svg" viewBox="0 0 86.02 758.21"><defs><style>.cls-1{fill:#f7a835;}.cls-2{fill:#343432;}</style></defs><path class="cls-1" d="M27.13,755.33c0,4.45-3.74,8.35-9.54,8.35C13.77,763.68,4.23,762,3,749.45l2-.4C6.14,756.6,9.24,759,12.5,759a2.57,2.57,0,0,0,2.62-1.35,9,9,0,0,0,.32-3.58,5.63,5.63,0,0,1,5.72-5.41C24.58,748.65,27.13,751.28,27.13,755.33Zm0-19.87c0,4.45-3.74,8.34-9.54,8.34-3.82,0-13.36-1.66-14.55-14.23l2-.39c1.12,7.55,4.22,9.93,7.48,9.93a2.55,2.55,0,0,0,2.62-1.35,8.92,8.92,0,0,0,.32-3.57,5.63,5.63,0,0,1,5.72-5.41C24.58,728.78,27.13,731.4,27.13,735.46Z" transform="translate(-2.16 -5.47)"/><path class="cls-1" d="M65.92,729.18H63.69c-.23-8.67-2.06-8.91-17.41-8.91H28.87c-15.34,0-17.17.24-17.49,8.91H9.16V702.86h2.22c.32,8.67,2.15,8.9,17.49,8.9H46.28c15.35,0,17.18-.23,17.41-8.9h2.23Z" transform="translate(-2.16 -5.47)"/><path class="cls-1" d="M65.92,706.76H63.69c-.23-8-2.06-9-17.41-9-15.1,0-16.93-.79-17.25,9.07H26.89l-.8-16.78h9.54c-6.68-2.94-10.89-9.62-10.89-15.66,0-8.19,4.05-13.28,9.94-13.59a18.37,18.37,0,0,1-9.94-16c0-7.4,4.05-12.48,10.1-12.8,4.77-.24,6.67.32,13.67.32,13.59,0,15-.64,15.18-8.59h2.23v24.48H63.69c-.23-7.23-2.06-8.1-17.41-8.1-10,0-16.61.31-16.61,8.5,0,5.33,4,10.42,10.41,12.17,2.15.15,4.46.31,8.43.31,13.59,0,15-.55,15.18-8.18h2.23V677H63.69c-.23-7.31-2.06-8.11-17.41-8.11-10,0-16.61.32-16.61,9.31,0,5.08,4.93,10.65,12.48,11.84h4.13c15.35,0,17.18-.87,17.41-8.19h2.23Z" transform="translate(-2.16 -5.47)"/><path class="cls-1" d="M88.18,630.12H85.8c-.24-10.9-2-11.93-16.62-11.93H46.36c-15.18,0-17-.87-17.33,10.65H26.89l-.8-18.36h7.24a18.14,18.14,0,0,1-8.59-15.58c0-10.34,8.9-17.65,21.46-17.65a21,21,0,0,1,21.31,20.83,15.2,15.2,0,0,1-6.2,12.4H69.1c14.71,0,16.46-.32,16.7-13.83h2.38ZM64.33,598.87c0-7.07-7.71-12.24-18.13-12.24-11.52,0-18,4.13-18,11.37s6.76,12.8,18.68,12.8C59.72,610.8,64.33,606.19,64.33,598.87Z" transform="translate(-2.16 -5.47)"/><path class="cls-1" d="M65.92,578H63.69c-.23-8-2.06-9-17.41-9H40.72c-10,0-11.45.55-11.69,9.06H26.89l-.8-16.77h9.22c-6.28-2.55-10.57-8-10.57-13.12,0-5.33,3.74-8.19,6.76-8.19,2.86,0,5.4,1.59,5.4,4.77,0,5.49-6.59,4.93-6.59,8.43,0,2.78,3.65,6.52,12,8.11h4c15.35,0,17.18-.24,17.41-10.89h2.23Z" transform="translate(-2.16 -5.47)"/><path class="cls-1" d="M67.51,520.8c0,11.93-8.27,20-20.51,20-13.28,0-22.26-8.43-22.26-20.75,0-11.37,8.35-18.21,19.4-17.17v28.54h.63c11.69,0,18.84-4.93,18.84-13.12,0-7.4-4.37-12.48-11.44-13.36l.31-2.7C61.23,503.07,67.51,510.86,67.51,520.8ZM41.75,531.3V512.06c-8.5-.8-14.62,2.7-14.62,8.34C27.13,526.68,32.45,530.58,41.75,531.3Z" transform="translate(-2.16 -5.47)"/><path class="cls-1" d="M67.51,499.81H49.23V498l1.9-.47c8.51-2.15,13.6-8.11,13.6-15.9,0-5.49-1.91-9.3-6.84-9.3-13.51,0-3,27-20,27-7.48,0-13.2-5.49-13.2-15.19,0-6.76,2.78-9.78,2.78-11.13,0-1-.47-1.67-2-2.14l-.8-.24V469H41.2v1.67l-1.59.47c-9.3,2.79-12.25,8.27-12.25,13.28s2.71,9.22,6.6,9.22c13,0,1.83-27.42,19.88-27.42,9.38,0,13.67,7.71,13.67,15.42,0,6.52-3,11.37-3,13.35a2.7,2.7,0,0,0,2.23,2.63l.79.24Z" transform="translate(-2.16 -5.47)"/><path class="cls-1" d="M65.92,467.3H63.69c-.23-8-2.06-9-17.41-9-15.1,0-16.93-.79-17.25,9.07H26.89l-.8-16.78H46.28c15.35,0,17.18-1,17.41-8.58h2.23ZM15.84,455.61a5.75,5.75,0,0,1-5.89,6,6,6,0,1,1,0-11.92A5.75,5.75,0,0,1,15.84,455.61Z" transform="translate(-2.16 -5.47)"/><path class="cls-1" d="M67.43,421.43l-20.75,8.26c-15.74,6.28-17.81,7-18.12,16.7H26.33V420.23h2.23c.31,8.91,2.22,7.4,17.09,1.59l10.89-4.29-10.26-4c-15.66-6.21-17.41-7.16-17.72,2.06H26.33V395.75h2.23c.31,9.22,2.46,8.66,18,15.1l20.91,8.75Z" transform="translate(-2.16 -5.47)"/><path class="cls-1" d="M67.51,377.38c0,11.93-8.27,20-20.51,20-13.28,0-22.26-8.43-22.26-20.75,0-11.37,8.35-18.21,19.4-17.17V388h.63c11.69,0,18.84-4.93,18.84-13.12,0-7.4-4.37-12.48-11.44-13.36l.31-2.7C61.23,359.65,67.51,367.44,67.51,377.38Zm-25.76,10.5V368.64c-8.5-.8-14.62,2.7-14.62,8.34C27.13,383.26,32.45,387.16,41.75,387.88Z" transform="translate(-2.16 -5.47)"/><path class="cls-1" d="M67.51,350.11a5.85,5.85,0,1,1-5.8-5.88A5.66,5.66,0,0,1,67.51,350.11Z" transform="translate(-2.16 -5.47)"/><path class="cls-1" d="M67.51,334a5.85,5.85,0,1,1-5.8-5.88A5.66,5.66,0,0,1,67.51,334Z" transform="translate(-2.16 -5.47)"/><path class="cls-1" d="M67.51,317.84a5.85,5.85,0,1,1-5.8-5.89A5.66,5.66,0,0,1,67.51,317.84Z" transform="translate(-2.16 -5.47)"/><path class="cls-2" d="M19.89,168.77l-1.11,1.35C14.88,167.5,11.15,166,7.09,164c-3.42-1.67-4.93-3.58-4.93-5.88a3.33,3.33,0,0,1,3.42-3.34c2.07,0,3.82,1.11,5.8,3.5C14.25,161.85,16.31,165.35,19.89,168.77Z" transform="translate(-2.16 -5.47)"/><path class="cls-2" d="M65.92,290.41H63.69c-.23-8-2.06-9-17.41-9-15.1,0-16.93-.79-17.25,9.07H26.89l-.8-16.78H46.28c15.35,0,17.18-.95,17.41-8.58h2.23ZM15.84,278.72a5.75,5.75,0,0,1-5.89,6,6,6,0,1,1,0-11.92A5.75,5.75,0,0,1,15.84,278.72Z" transform="translate(-2.16 -5.47)"/><path class="cls-2" d="M67.51,265.13H49.23V263.3l1.9-.48c8.51-2.15,13.6-8.11,13.6-15.9,0-5.49-1.91-9.3-6.84-9.3-13.51,0-3,27-20,27-7.48,0-13.2-5.49-13.2-15.19,0-6.75,2.78-9.77,2.78-11.13,0-1-.47-1.67-2-2.14l-.8-.24v-1.67H41.2V236l-1.59.48c-9.3,2.78-12.25,8.26-12.25,13.27s2.71,9.22,6.6,9.22c13,0,1.83-27.42,19.88-27.42,9.38,0,13.67,7.71,13.67,15.42,0,6.52-3,11.37-3,13.36a2.7,2.7,0,0,0,2.23,2.62l.79.24Z" transform="translate(-2.16 -5.47)"/><path class="cls-2" d="M65.92,232.61H63.69c-.23-8-2.06-9-17.41-9-15.1,0-16.93-.8-17.25,9.06H26.89l-.8-16.78h9.54a18.42,18.42,0,0,1-10.89-16.45c0-8.19,4.05-13.28,10.1-13.6,4.77-.24,6.67.32,13.67.32,13.59,0,15-.63,15.18-8.58h2.23v24.88H63.69c-.23-7.63-2.06-8.51-17.41-8.51-10,0-16.61.32-16.61,9.3,0,5.89,4.93,11.45,12.48,12.64h4.13c15.35,0,17.18-.95,17.41-8.58h2.23Z" transform="translate(-2.16 -5.47)"/><path class="cls-2" d="M67.51,127c0,7.71-3.42,11.77-13.59,11.77-4.93,0-9.78-.48-16.94-.48s-7.07.72-7.07,10.33H27.6c0-12.24-8.74-14.94-20.67-15.26v-3H26.81c0-4.45-.32-9.54-.64-13.75h4.06c-.24,4.21-.24,9.3-.24,13.75H49.78c10.1,0,13-2.46,13-6.2,0-5.25-4.77-6.44-8.67-6.76H54v-2.62h.07C62.58,115.34,67.51,118.76,67.51,127Z" transform="translate(-2.16 -5.47)"/><path class="cls-2" d="M65.92,96H63.69c-.23-8-2.06-9-17.41-9C31.18,87,29.35,86.17,29,96H26.89l-.8-16.77H46.28c15.35,0,17.18-1,17.41-8.59h2.23ZM15.84,84.26a5.75,5.75,0,0,1-5.89,6A6,6,0,1,1,10,78.3,5.75,5.75,0,0,1,15.84,84.26Z" transform="translate(-2.16 -5.47)"/><path class="cls-2" d="M67.51,53.81c0,7.71-3.42,11.77-13.59,11.77-4.93,0-9.78-.48-16.94-.48s-7.07.71-7.07,10.33H27.6c0-12.24-8.74-14.94-20.67-15.26v-3H26.81c0-4.45-.32-9.54-.64-13.75h4.06C30,47.61,30,52.7,30,57.15H49.78c10.1,0,13-2.47,13-6.2,0-5.25-4.77-6.44-8.67-6.76H54V41.57h.07C62.58,42.2,67.51,45.62,67.51,53.81Z" transform="translate(-2.16 -5.47)"/><path class="cls-1" d="M27.13,39.58l-2,.4C24,32.42,20.92,30,17.66,30A2.57,2.57,0,0,0,15,31.39,9,9,0,0,0,14.72,35,5.62,5.62,0,0,1,9,40.37c-3.42,0-6-2.62-6-6.67,0-4.46,3.73-8.35,9.54-8.35C16.39,25.35,25.93,27,27.13,39.58Zm0-19.88-2,.4c-1.12-7.55-4.22-9.94-7.48-9.94A2.56,2.56,0,0,0,15,11.52a8.92,8.92,0,0,0-.32,3.57A5.62,5.62,0,0,1,9,20.5c-3.42,0-6-2.62-6-6.68,0-4.45,3.73-8.35,9.54-8.35C16.39,5.47,25.93,7.14,27.13,19.7Z" transform="translate(-2.16 -5.47)"/></svg>