<svg id="Layer_1" data-name="Layer 1" xmlns="http://www.w3.org/2000/svg" viewBox="0 0 517.86 78.53"><defs><style>.cls-1{fill:#9e9e9e;}</style></defs><path class="cls-1" d="M3.41,36.55a3.39,3.39,0,1,1,0-6.77,3.39,3.39,0,1,1,0,6.77Z"/><path class="cls-1" d="M11.62,36.55a3.39,3.39,0,1,1,0-6.77,3.39,3.39,0,1,1,0,6.77Z"/><path class="cls-1" d="M19.82,36.55a3.39,3.39,0,1,1,0-6.77,3.39,3.39,0,1,1,0,6.77Z"/><path class="cls-1" d="M54.3,36.55c-2.95,0-4.75-1.47-5.12-4a9.22,9.22,0,0,1-7.79,4c-4.15,0-7-2.67-7-5.85a5.88,5.88,0,0,1,2.9-5.16c3.51-1.75,7.06-1.25,11.8-4.57V19.64c0-3.6-1.52-5.44-5.3-5.44-3.09,0-5.71,2.3-4.79,5.76l-1.52.51c-1.89-4.43,2.07-8.72,8.16-8.72,5,0,8.43,2.49,8.43,7.2,0,6.5-1.93,14.84,1.75,14.84,2.08,0,2.54-1.48,2.63-5.44h1.38C59.78,34.25,57.89,36.55,54.3,36.55ZM43.65,33.83a5.34,5.34,0,0,0,5.48-5.48V22.59c-3.41,2.81-9.72,2.67-9.72,7.33C39.41,32.36,40.88,33.83,43.65,33.83Z"/><path class="cls-1" d="M56.6,35.63V34.34c4.65-.14,5.21-1.2,5.21-10.09s.46-9.82-5.26-10V13l9.73-.46v5.53a10.69,10.69,0,0,1,9.54-6.32c4.75,0,7.7,2.36,7.88,5.86.14,2.77-.18,3.87-.18,7.93,0,7.88.37,8.66,5,8.8v1.29H74.07V34.34C78.49,34.2,79,33.14,79,24.25c0-5.81-.18-9.64-5.39-9.64-3.41,0-6.64,2.86-7.33,7.24v2.4c0,8.89.55,10,5,10.09v1.29Z"/><path class="cls-1" d="M106.24,31.48a10.32,10.32,0,0,1-8.85,5.07c-6.22,0-10.51-5.07-10.51-12.44A12.19,12.19,0,0,1,99,11.75a9,9,0,0,1,7.15,3.46V11.85c0-8.9.5-10-6.13-10.14V.46L111.49,0a116.83,116.83,0,0,0-.87,11.85V24.29c0,8.48,1.34,9.59,5.76,9.78v1.24l-9.36.88A13.05,13.05,0,0,1,106.24,31.48ZM99,34.57c4.14,0,7.42-4,7.42-10.92,0-7.42-2.68-10-6.92-10S92.32,18,92.32,24.06C92.32,30.75,94.71,34.57,99,34.57Z"/><path class="cls-1" d="M137,36.51l-4.29-12c-3.32-9.27-3.6-10.33-9.22-10.51V12.68h15.07V14c-5.16.18-4,.92-1.19,9.72l1.88,5.9L146,12.68H147l5.67,16.91,1.84-5.3c3.18-9.22,4.15-10.23-1.24-10.41v-1.3l11.29.1V14c-5.35.18-5.21,1.29-8.62,10.42l-4.52,12.12h-1.06L144.63,20.1l-6.54,16.41Z"/><path class="cls-1" d="M174.08,36.55c-6.91,0-11.57-4.79-11.57-11.89,0-7.7,4.89-12.91,12-12.91,6.59,0,10.56,4.84,10,11.25H168v.37c0,6.78,2.86,10.93,7.61,10.93,4.28,0,7.23-2.54,7.74-6.64l1.57.18C184.36,32.91,179.84,36.55,174.08,36.55ZM168,21.62h11.15c.46-4.93-1.56-8.48-4.84-8.48C170.67,13.14,168.41,16.23,168,21.62Z"/><path class="cls-1" d="M207.13,36.51l-4.29-12c-3.32-9.27-3.6-10.33-9.22-10.51V12.68h15.07V14c-5.16.18-4,.92-1.19,9.72l1.89,5.9,6.68-16.91h1.06l5.67,16.91,1.84-5.3c3.18-9.22,4.15-10.23-1.24-10.41v-1.3l11.29.1V14c-5.34.18-5.21,1.29-8.62,10.42l-4.51,12.12h-1.07L214.73,20.1l-6.54,16.41Z"/><path class="cls-1" d="M251.93,36.55c-3,0-4.75-1.47-5.12-4a9.22,9.22,0,0,1-7.79,4c-4.15,0-7-2.67-7-5.85a5.88,5.88,0,0,1,2.9-5.16c3.51-1.75,7.06-1.25,11.8-4.57V19.64c0-3.6-1.52-5.44-5.3-5.44-3.09,0-5.71,2.3-4.79,5.76l-1.52.51c-1.89-4.43,2.07-8.72,8.16-8.72,5,0,8.43,2.49,8.43,7.2,0,6.5-1.93,14.84,1.75,14.84,2.08,0,2.54-1.48,2.63-5.44h1.38C257.41,34.25,255.52,36.55,251.93,36.55Zm-10.65-2.72a5.34,5.34,0,0,0,5.48-5.48V22.59c-3.41,2.81-9.72,2.67-9.72,7.33C237,32.36,238.51,33.83,241.28,33.83Z"/><path class="cls-1" d="M254.23,35.63V34.34c4.65-.14,5.21-1.2,5.21-10.09s.46-9.82-5.26-10V13l9.73-.46v5.53a10.69,10.69,0,0,1,9.54-6.32c4.75,0,7.7,2.36,7.88,5.86.14,2.77-.18,3.87-.18,7.93,0,7.88.37,8.66,5,8.8v1.29H271.7V34.34c4.42-.14,4.93-1.2,4.93-10.09,0-5.81-.18-9.64-5.39-9.64-3.41,0-6.64,2.86-7.33,7.24v2.4c0,8.89.55,10,5,10.09v1.29Z"/><path class="cls-1" d="M294.74,36.55c-4.47,0-6.82-2-6.82-7.88,0-2.86.28-5.67.28-9.82s-.42-4.1-6-4.1V13.41c7.1,0,8.67-5.07,8.85-12h1.76V13c2.58,0,5.53-.18,8-.37v2.36c-2.44-.14-5.39-.14-8-.14V26.28c0,5.85,1.42,7.51,3.59,7.51,3,0,3.74-2.77,3.92-5v0h1.52v0C301.47,33.7,299.49,36.55,294.74,36.55Z"/><path class="cls-1" d="M322.21,36.55c-4.47,0-6.82-2-6.82-7.88,0-2.86.28-5.67.28-9.82s-.42-4.1-6-4.1V13.41c7.1,0,8.67-5.07,8.85-12h1.76V13c2.58,0,5.53-.18,8-.37v2.36c-2.44-.14-5.39-.14-8-.14V26.28c0,5.85,1.42,7.51,3.59,7.51,3,0,3.73-2.77,3.92-5v0h1.52v0C328.94,33.7,327,36.55,322.21,36.55Z"/><path class="cls-1" d="M340.51,36.55c-7.05,0-12.12-5.25-12.12-12.53a12.17,12.17,0,1,1,24.33,0C352.72,31.25,347.56,36.55,340.51,36.55Zm0-1.38c4.15,0,6.77-4.29,6.77-11s-2.62-11-6.77-11-6.69,4.24-6.69,11S336.41,35.17,340.51,35.17Z"/><path class="cls-1" d="M165.69,65.85V55.25h1.06l.28,1.11c1.24,4.93,4.7,7.88,9.22,7.88,3.18,0,5.39-1.1,5.39-4,0-7.84-15.67-1.75-15.67-11.57,0-4.34,3.18-7.65,8.8-7.65,3.92,0,5.67,1.61,6.46,1.61.59,0,1-.28,1.24-1.15l.14-.46h1V50.6h-1l-.28-.92c-1.61-5.4-4.79-7.1-7.7-7.1s-5.34,1.56-5.34,3.82c0,7.52,15.9,1.06,15.9,11.53,0,5.44-4.47,7.92-8.94,7.92-3.78,0-6.59-1.75-7.75-1.75A1.57,1.57,0,0,0,167,65.39l-.14.46Z"/><path class="cls-1" d="M183.39,64.93V63.64c4.65-.14,5.21-1.2,5.21-10.09V41.1c0-8.9.46-9.91-5.26-10.09V29.72l10.6-.42a104,104,0,0,0-.87,11.8v6.27a10.68,10.68,0,0,1,9.54-6.31c4.75,0,7.7,2.35,7.88,5.85.14,2.77-.18,3.87-.18,7.93,0,7.88.37,8.66,5,8.8v1.29H200.86V63.64c4.42-.14,4.93-1.2,4.93-10.09,0-5.81-.18-9.64-5.39-9.64-3.41,0-6.64,2.86-7.33,7.24v2.4c0,8.89.55,10,5,10.09v1.29Z"/><path class="cls-1" d="M233,65.85c-2.95,0-4.74-1.47-5.11-4a9.23,9.23,0,0,1-7.79,4c-4.15,0-7-2.67-7-5.85a5.88,5.88,0,0,1,2.9-5.16c3.5-1.75,7-1.25,11.8-4.57V48.94c0-3.6-1.52-5.44-5.3-5.44-3.09,0-5.72,2.3-4.79,5.76l-1.53.51c-1.89-4.43,2.08-8.71,8.16-8.71,5,0,8.44,2.48,8.44,7.19,0,6.5-1.94,14.84,1.75,14.84,2.08,0,2.54-1.48,2.63-5.44h1.38C238.47,63.55,236.58,65.85,233,65.85Zm-10.64-2.71a5.35,5.35,0,0,0,5.48-5.49V51.89c-3.41,2.81-9.72,2.67-9.72,7.33C218.1,61.66,219.57,63.14,222.34,63.14Z"/><path class="cls-1" d="M235.28,64.93V63.64c4.66-.14,5.21-1.2,5.21-10.09V50.32c0-5.81-.32-6.64-5.25-6.78V42.3l9.73-.46v5.35c1.47-3.65,4.65-6.13,7.6-6.13s4.75,2.16,4.75,3.91-.92,3.14-2.77,3.14c-3.18,0-2.85-3.83-4.88-3.83-1.62,0-3.78,2.12-4.7,7v2.31c0,8.89.13,10,6.31,10.09v1.29Z"/><path class="cls-1" d="M267.27,65.85c-6.91,0-11.57-4.79-11.57-11.89,0-7.7,4.89-12.9,12-12.9,6.6,0,10.56,4.84,10,11.24H261.14v.37c0,6.78,2.86,10.93,7.61,10.93,4.29,0,7.24-2.54,7.74-6.64l1.57.18C277.55,62.21,273,65.85,267.27,65.85Zm-6.08-14.93h11.15c.47-4.93-1.56-8.48-4.84-8.48C263.86,42.44,261.6,45.53,261.19,50.92Z"/><path class="cls-1" d="M287.32,64.93V63.64c4.66-.14,5.21-1.2,5.21-10.09s.46-9.82-5.26-10V42.3l9.73-.46V53.55c0,8.89.55,10,5,10.09v1.29Zm6.78-29a3.33,3.33,0,0,1-3.46-3.41,3.46,3.46,0,1,1,6.91,0A3.33,3.33,0,0,1,294.1,35.89Z"/><path class="cls-1" d="M310.6,65.85c-4.47,0-6.83-2-6.83-7.88,0-2.86.28-5.67.28-9.82s-.41-4.1-6-4.1V42.71c7.1,0,8.66-5.07,8.85-12h1.75V42.25c2.58,0,5.53-.18,8-.37v2.36c-2.45-.14-5.4-.14-8-.14V55.58c0,5.85,1.43,7.51,3.6,7.51,3,0,3.73-2.77,3.91-5v0h1.53v0C317.33,63,315.34,65.85,310.6,65.85Z"/><path class="cls-1" d="M339.26,65.81l-4.28-12c-3.32-9.27-3.6-10.33-9.22-10.51V42h15.07v1.29c-5.16.18-4,.92-1.2,9.72l1.89,5.9L348.21,42h1.06l5.67,16.91,1.84-5.3c3.18-9.22,4.15-10.23-1.24-10.41v-1.3l11.29.1v1.29c-5.35.18-5.21,1.29-8.62,10.42l-4.52,12.12h-1.06L346.87,49.4l-6.55,16.41Z"/><path class="cls-1" d="M363.18,64.93V63.64c4.66-.14,5.21-1.2,5.21-10.09s.46-9.82-5.25-10V42.3l9.72-.46V53.55c0,8.89.55,10,5,10.09v1.29Zm6.78-29a3.33,3.33,0,0,1-3.46-3.41,3.46,3.46,0,1,1,6.91,0A3.33,3.33,0,0,1,370,35.89Z"/><path class="cls-1" d="M386.46,65.85c-4.47,0-6.82-2-6.82-7.88,0-2.86.27-5.67.27-9.82s-.41-4.1-6-4.1V42.71c7.1,0,8.67-5.07,8.85-12h1.75V42.25c2.58,0,5.53-.18,8-.37v2.36c-2.45-.14-5.4-.14-8-.14V55.58c0,5.85,1.43,7.51,3.6,7.51,3,0,3.73-2.77,3.92-5v0h1.52v0C393.19,63,391.21,65.85,386.46,65.85Z"/><path class="cls-1" d="M391.06,64.93V63.64c4.66-.14,5.21-1.2,5.21-10.09V41.1c0-8.9.46-9.91-5.25-10.09V29.72l10.6-.42a104,104,0,0,0-.87,11.8v6.27a10.68,10.68,0,0,1,9.54-6.31c4.75,0,7.7,2.35,7.88,5.85.14,2.77-.18,3.87-.18,7.93,0,7.88.36,8.66,5,8.8v1.29H408.54V63.64c4.42-.14,4.93-1.2,4.93-10.09,0-5.81-.19-9.64-5.4-9.64-3.41,0-6.63,2.86-7.32,7.24v2.4c0,8.89.55,10,5,10.09v1.29Z"/><path class="cls-1" d="M435.31,78.53c-3.09,0-5.9-2-5.9-5a3.13,3.13,0,0,1,3.18-3.41,2.81,2.81,0,0,1,3,2.85c0,1-.51,1.94-.51,2.77s.6,1.15,1.25,1.15c2.07,0,6.08-3.78,8.48-11.34L440,53.78c-3.74-9-4.06-10.33-9.68-10.51V42h15.16v1.29c-2.58.09-3.64.41-3.64,1.84s.92,3.87,2.77,8.07l2.76,6.31,2.26-5.94c1.66-4.38,2.72-6.92,2.72-8.39s-1.2-1.8-3.78-1.89V42h11.57v1.29c-5.34.18-5.25,1.38-8.76,10.42l-4.93,12.72C443.79,73.18,440.34,78.53,435.31,78.53Z"/><path class="cls-1" d="M470.16,65.85C463.1,65.85,458,60.6,458,53.32a12.17,12.17,0,1,1,24.34,0C482.37,60.55,477.21,65.85,470.16,65.85Zm0-1.38c4.15,0,6.77-4.28,6.77-11s-2.62-11-6.77-11-6.69,4.24-6.69,11S466.05,64.47,470.16,64.47Z"/><path class="cls-1" d="M502.83,65.62a20.27,20.27,0,0,1-.82-6.36,10.72,10.72,0,0,1-9.36,6.59c-4.52,0-7.47-2.39-7.65-6-.14-2.77.18-3.83.18-7.89,0-7.88-.51-8.2-5.12-8.34V42.3l10.05-.46c-.27,3.64-.37,7.47-.41,11.38-.1,5.9.18,9.78,5.16,9.78,3,0,6.41-2.91,7.1-7.38v-2c0-9.82-.32-9.82-5.12-10V42.3l10-.46c-.28,3.64-.42,7.47-.42,11.38,0,7.29.23,10.28,5.76,10.28v1.25Z"/><path class="cls-1" d="M514.45,65.85a3.39,3.39,0,1,1,3.41-3.36A3.28,3.28,0,0,1,514.45,65.85Z"/></svg>