<svg id="Layer_1" data-name="Layer 1" xmlns="http://www.w3.org/2000/svg" viewBox="0 0 1106.77 92.15"><defs><style>.cls-1{fill:#9e9e9e;}</style></defs><path class="cls-1" d="M11.81,67.94a6.24,6.24,0,1,1,0-12.48,6.24,6.24,0,1,1,0,12.48Z" transform="translate(-5.52)"/><path class="cls-1" d="M31.25,67.94a6.24,6.24,0,1,1,0-12.48,6.24,6.24,0,1,1,0,12.48Z" transform="translate(-5.52)"/><path class="cls-1" d="M50.7,67.94A6.24,6.24,0,1,1,57,61.75,6,6,0,0,1,50.7,67.94Z" transform="translate(-5.52)"/><path class="cls-1" d="M122.89,67.94c-5.43,0-8.75-2.71-9.43-7.3a17,17,0,0,1-14.35,7.3c-7.64,0-12.82-4.92-12.82-10.78a10.81,10.81,0,0,1,5.35-9.51c6.45-3.23,13-2.3,21.74-8.41V36.78c0-6.63-2.8-10-9.77-10-5.69,0-10.53,4.25-8.83,10.62L92,38.3c-3.48-8.15,3.82-16,15-16,9.26,0,15.54,4.59,15.54,13.25,0,12-3.56,27.35,3.23,27.35,3.82,0,4.67-2.72,4.84-10h2.55C133,63.7,129.52,67.94,122.89,67.94Zm-19.62-5a9.84,9.84,0,0,0,10.11-10.1V42.21c-6.29,5.18-17.92,4.93-17.92,13.5C95.46,60.22,98.18,62.93,103.27,62.93Z" transform="translate(-5.52)"/><path class="cls-1" d="M131.47,66.25V63.87c8.58-.26,9.6-2.21,9.6-18.6,0-16.14.84-18.09-9.69-18.43v-2.3l17.92-.84V33.89a19.7,19.7,0,0,1,17.58-11.64c8.75,0,14.19,4.33,14.53,10.79.25,5.09-.34,7.13-.34,14.61,0,14.52.68,16,9.17,16.22v2.38H163.66V63.87c8.15-.26,9.08-2.21,9.08-18.6,0-10.7-.34-17.75-9.93-17.75-6.29,0-12.23,5.26-13.51,13.33v4.42c0,16.39,1,18.34,9.18,18.6v2.38Z" transform="translate(-5.52)"/><path class="cls-1" d="M227.27,58.6A19,19,0,0,1,211,67.94C199.5,67.94,191.6,58.6,191.6,45a22.45,22.45,0,0,1,22.33-22.76,16.64,16.64,0,0,1,13.17,6.37v-6.2C227.1,6,228,4.08,215.8,3.74V1.44L237,.59a214.59,214.59,0,0,0-1.61,21.83V45.35c0,15.63,2.46,17.67,10.61,18v2.29l-17.24,1.62C227.86,65.14,227.44,63,227.27,58.6Zm-13.42,5.69c7.64,0,13.67-7.3,13.67-20.13,0-13.67-4.92-18.51-12.74-18.51-7.56,0-13.16,8.15-13.16,19.28C201.62,57.24,206,64.29,213.85,64.29Z" transform="translate(-5.52)"/><path class="cls-1" d="M292.66,67.86l-7.9-22.17c-6.11-17.07-6.62-19-17-19.36V24h27.77v2.38c-9.51.34-7.39,1.7-2.21,17.92l3.48,10.87L309.14,24h1.95l10.45,31.17,3.4-9.77c5.85-17,7.64-18.85-2.3-19.19V23.78l20.81.17v2.38c-9.85.34-9.6,2.38-15.88,19.19l-8.32,22.34h-2L306.67,37.62,294.62,67.86Z" transform="translate(-5.52)"/><path class="cls-1" d="M365.27,67.94C352.53,67.94,344,59.11,344,46c0-14.18,9-23.78,22.16-23.78,12.15,0,19.45,8.92,18.35,20.73H354v.67c0,12.49,5.26,20.13,14,20.13,7.9,0,13.34-4.67,14.27-12.23l2.89.34C384.21,61.24,375.89,67.94,365.27,67.94ZM354.06,40.43h20.56c.85-9.09-2.89-15.63-8.92-15.63C359,24.8,354.83,30.49,354.06,40.43Z" transform="translate(-5.52)"/><path class="cls-1" d="M449.35,67.94c-5.43,0-8.75-2.71-9.43-7.3a17,17,0,0,1-14.35,7.3c-7.64,0-12.82-4.92-12.82-10.78a10.81,10.81,0,0,1,5.35-9.51c6.45-3.23,13-2.3,21.74-8.41V36.78c0-6.63-2.8-10-9.77-10-5.69,0-10.53,4.25-8.83,10.62l-2.8.93c-3.48-8.15,3.82-16,15-16,9.26,0,15.54,4.59,15.54,13.25,0,12-3.56,27.35,3.23,27.35,3.82,0,4.67-2.72,4.84-10h2.55C459.46,63.7,456,67.94,449.35,67.94Zm-19.62-5a9.84,9.84,0,0,0,10.11-10.1V42.21c-6.29,5.18-17.92,4.93-17.92,13.5C421.92,60.22,424.64,62.93,429.73,62.93Z" transform="translate(-5.52)"/><path class="cls-1" d="M457.93,66.25V63.87c8.58-.26,9.6-2.21,9.6-18.6v-6c0-10.7-.6-12.23-9.69-12.48v-2.3l17.92-.84v9.85c2.72-6.71,8.58-11.3,14-11.3,5.69,0,8.75,4,8.75,7.22,0,3.06-1.7,5.78-5.1,5.78-5.86,0-5.27-7-9-7-3,0-7,3.9-8.67,12.82v4.25c0,16.39.26,18.34,11.64,18.6v2.38Z" transform="translate(-5.52)"/><path class="cls-1" d="M521.2,67.94c-12.74,0-21.32-8.83-21.32-21.91,0-14.18,9-23.78,22.17-23.78,12.14,0,19.45,8.92,18.34,20.73H509.9v.67c0,12.49,5.27,20.13,14,20.13,7.9,0,13.33-4.67,14.27-12.23l2.88.34C540.14,61.24,531.82,67.94,521.2,67.94ZM510,40.43h20.55c.85-9.09-2.89-15.63-8.92-15.63C514.92,24.8,510.75,30.49,510,40.43Z" transform="translate(-5.52)"/><path class="cls-1" d="M566.8,66.25V63.87c8.58-.26,9.6-2.21,9.6-18.6,0-16.14.85-18.09-9.68-18.43v-2.3l17.92-.84V33.89a19.69,19.69,0,0,1,17.58-11.64c8.75,0,14.18,4.33,14.52,10.79.26,5.09-.34,7.13-.34,14.61,0,14.52.68,16,9.18,16.22v2.38H599V63.87c8.16-.26,9.09-2.21,9.09-18.6,0-10.7-.34-17.75-9.94-17.75-6.28,0-12.23,5.26-13.5,13.33v4.42c0,16.39,1,18.34,9.17,18.6v2.38Z" transform="translate(-5.52)"/><path class="cls-1" d="M649.27,67.94c-13,0-22.34-9.68-22.34-23.1,0-12.91,9.6-22.59,22.34-22.59a22.15,22.15,0,0,1,22.51,22.59C671.78,58.18,662.26,67.94,649.27,67.94Zm0-2.54c7.64,0,12.48-7.9,12.48-20.3s-4.84-20.3-12.48-20.3S637,32.61,637,45.1,641.71,65.4,649.27,65.4Z" transform="translate(-5.52)"/><path class="cls-1" d="M695,67.94c-8.24,0-12.57-3.65-12.57-14.52,0-5.26.51-10.44.51-18.09s-.77-7.56-11-7.56V25.31c13.08,0,16-9.34,16.31-22.08h3.22V24.46c4.76,0,10.19-.34,14.69-.68v4.33c-4.5-.25-9.93-.25-14.69-.25V49c0,10.79,2.64,13.85,6.63,13.85,5.6,0,6.88-5.1,7.22-9.26v-.08H708v.08C707.36,62.68,703.71,67.94,695,67.94Z" transform="translate(-5.52)"/><path class="cls-1" d="M736.23,67.94V48.41h2l.51,2C741,59.54,747.36,65,755.68,65c5.86,0,9.94-2,9.94-7.3,0-14.44-28.88-3.23-28.88-21.32,0-8,5.86-14.1,16.22-14.1,7.22,0,10.45,3,11.9,3,1.1,0,1.78-.51,2.29-2.12l.25-.85h1.79V39.83H767.4l-.51-1.7c-3-9.93-8.83-13.08-14.18-13.08s-9.85,2.89-9.85,7.05c0,13.85,29.3,2,29.3,21.24,0,10-8.24,14.6-16.48,14.6-7,0-12.14-3.22-14.27-3.22a2.89,2.89,0,0,0-2.8,2.38l-.25.84Z" transform="translate(-5.52)"/><path class="cls-1" d="M794.92,67.94c-8.24,0-12.57-3.65-12.57-14.52,0-5.26.51-10.44.51-18.09s-.77-7.56-11-7.56V25.31c13.08,0,16-9.34,16.3-22.08h3.23V24.46c4.76,0,10.19-.34,14.69-.68v4.33c-4.5-.25-9.93-.25-14.69-.25V49c0,10.79,2.64,13.85,6.63,13.85,5.6,0,6.88-5.1,7.22-9.26v-.08H808v.08C807.32,62.68,803.67,67.94,794.92,67.94Z" transform="translate(-5.52)"/><path class="cls-1" d="M833,67.94c-13,0-22.34-9.68-22.34-23.1,0-12.91,9.6-22.59,22.34-22.59a22.14,22.14,0,0,1,22.5,22.59C855.47,58.18,846,67.94,833,67.94Zm0-2.54c7.64,0,12.48-7.9,12.48-20.3S840.61,24.8,833,24.8s-12.32,7.81-12.32,20.3S825.41,65.4,833,65.4Z" transform="translate(-5.52)"/><path class="cls-1" d="M853.86,90V87.48c11.63-.26,12.74-2.12,12.74-17.75V45.35c0-16.22.93-18.17-11.38-18.51v-2.3l19.62-.84v7.72a19.36,19.36,0,0,1,16.64-9.17c11,0,18.86,9.51,18.86,22.93a22.39,22.39,0,0,1-22.26,22.76,16.22,16.22,0,0,1-13.24-6.62v8.32c0,15.72.34,17.58,14.77,17.84V90Zm33.38-25.48c7.55,0,13.08-8.24,13.08-19.37,0-12.31-4.42-19.28-12.15-19.28s-13.67,7.22-13.67,20C874.5,59.62,879.42,64.55,887.24,64.55Z" transform="translate(-5.52)"/><path class="cls-1" d="M908.72,90V87.48c11.64-.26,12.74-2.12,12.74-17.75V45.35c0-16.22.94-18.17-11.38-18.51v-2.3l19.62-.84v7.72a19.38,19.38,0,0,1,16.65-9.17c11,0,18.85,9.51,18.85,22.93,0,12.66-9.85,22.76-22.25,22.76a16.23,16.23,0,0,1-13.25-6.62v8.32c0,15.72.34,17.58,14.78,17.84V90ZM942.1,64.55c7.56,0,13.08-8.24,13.08-19.37,0-12.31-4.42-19.28-12.15-19.28s-13.67,7.22-13.67,20C929.36,59.62,934.29,64.55,942.1,64.55Z" transform="translate(-5.52)"/><path class="cls-1" d="M966.64,66.25V63.87c8.58-.26,9.6-2.21,9.6-18.6,0-16.14.85-18.09-9.68-18.43v-2.3l17.92-.84V45.27c0,16.39,1,18.34,9.17,18.6v2.38Zm12.49-53.51a6.13,6.13,0,0,1-6.37-6.28,6.37,6.37,0,1,1,12.74,0A6.13,6.13,0,0,1,979.13,12.74Z" transform="translate(-5.52)"/><path class="cls-1" d="M992.12,66.25V63.87c8.58-.26,9.6-2.21,9.6-18.6,0-16.14.85-18.09-9.68-18.43v-2.3L1010,23.7V33.89a19.68,19.68,0,0,1,17.58-11.64c8.74,0,14.18,4.33,14.52,10.79.25,5.09-.34,7.13-.34,14.61,0,14.52.68,16,9.17,16.22v2.38h-26.58V63.87c8.15-.26,9.09-2.21,9.09-18.6,0-10.7-.34-17.75-9.94-17.75-6.29,0-12.23,5.26-13.5,13.33v4.42c0,16.39,1,18.34,9.17,18.6v2.38Z" transform="translate(-5.52)"/><path class="cls-1" d="M1070.17,92.15c-13.08,0-21.32-5.1-21.32-12.15,0-5,3.4-9.08,8.07-11.46a7.41,7.41,0,0,1-4.93-7.39c0-5.44,3.74-8.92,7.48-11A14.73,14.73,0,0,1,1053,37.88c0-8.75,7.39-15.63,18.26-15.63a22.07,22.07,0,0,1,8.16,1.45A12.26,12.26,0,0,1,1091,15.12c4.33,0,6.54,2.72,6.54,5.35,0,2.8-1.53,5-4.34,5-4.75,0-3.73-6.63-6.11-6.63-1.7,0-4.25,2.72-5.35,5.95a14.81,14.81,0,0,1,8,13.08c0,8.75-7.47,15.71-18.43,15.71a21.23,21.23,0,0,1-9.25-2c-3,1.44-4.68,3.74-4.68,5.86,0,2.8,3,4.16,6.8,4.16,8.92,0,31.34-5.61,31.34,12.48C1095.48,85.1,1084.44,92.15,1070.17,92.15Zm1.53-3.48c9.76,0,18.09-4.42,18.09-11.21,0-5.61-5.78-8-10.7-8-4.67,0-11.72.94-17.5.26a10.58,10.58,0,0,0-5.6,9.43C1056,84.08,1060.91,88.67,1071.7,88.67Zm-.34-37.88c5.09,0,9.17-4.59,9.17-12.91s-4.08-12.83-9.17-12.83-9.17,4.51-9.17,12.83S1066.35,50.79,1071.36,50.79Z" transform="translate(-5.52)"/><path class="cls-1" d="M1106,67.94a6.24,6.24,0,1,1,6.28-6.19A6,6,0,0,1,1106,67.94Z" transform="translate(-5.52)"/></svg>