<svg id="Layer_1" data-name="Layer 1" xmlns="http://www.w3.org/2000/svg" viewBox="0 0 608.89 57.61"><defs><style>.cls-1{fill:#9e9e9e;}</style></defs><path class="cls-1" d="M3.94,43.76a3.91,3.91,0,1,1,0-7.82,3.91,3.91,0,1,1,0,7.82Z"/><path class="cls-1" d="M16.13,43.76a3.91,3.91,0,1,1,0-7.82,3.91,3.91,0,1,1,0,7.82Z"/><path class="cls-1" d="M28.33,43.76a3.91,3.91,0,1,1,0-7.82,3.91,3.91,0,1,1,0,7.82Z"/><path class="cls-1" d="M73.58,43.76c-3.4,0-5.48-1.7-5.91-4.57a10.66,10.66,0,0,1-9,4.57c-4.8,0-8-3.08-8-6.76A6.77,6.77,0,0,1,54,31c4-2,8.15-1.44,13.63-5.27V24.22c0-4.15-1.76-6.28-6.12-6.28-3.57,0-6.6,2.66-5.54,6.66l-1.76.58C52,20.07,56.6,15.12,63.63,15.12c5.8,0,9.74,2.88,9.74,8.31,0,7.5-2.24,17.14,2,17.14,2.4,0,2.93-1.7,3-6.28H80C79.92,41.1,77.74,43.76,73.58,43.76Zm-12.3-3.14a6.17,6.17,0,0,0,6.34-6.33V27.63c-3.94,3.25-11.23,3.09-11.23,8.47C56.39,38.92,58.09,40.62,61.28,40.62Z"/><path class="cls-1" d="M79,42.7V41.21c5.38-.16,6-1.39,6-11.66S85.51,18.21,78.91,18V16.56L90.14,16v6.38a12.35,12.35,0,0,1,11-7.29c5.49,0,8.89,2.72,9.11,6.76.16,3.2-.22,4.47-.22,9.16,0,9.1.43,10,5.75,10.17V42.7H99.14V41.21c5.11-.16,5.7-1.39,5.7-11.66,0-6.71-.22-11.13-6.23-11.13-3.94,0-7.67,3.3-8.47,8.36v2.77c0,10.27.64,11.5,5.75,11.66V42.7Z"/><path class="cls-1" d="M139,37.91a11.93,11.93,0,0,1-10.22,5.85c-7.19,0-12.14-5.85-12.14-14.37a14.08,14.08,0,0,1,14-14.27,10.41,10.41,0,0,1,8.25,4V15.23c0-10.28.59-11.5-7.08-11.72V2.08l13.26-.54a133.55,133.55,0,0,0-1,13.69V29.6c0,9.8,1.54,11.08,6.65,11.29v1.44l-10.81,1A15.14,15.14,0,0,1,139,37.91Zm-8.41,3.56c4.79,0,8.57-4.57,8.57-12.61,0-8.58-3.09-11.61-8-11.61-4.74,0-8.25,5.11-8.25,12.09C122.94,37.06,125.71,41.47,130.61,41.47Z"/><path class="cls-1" d="M180,43.71l-5-13.89c-3.84-10.71-4.16-11.93-10.65-12.14V16.19h17.41v1.49c-6,.21-4.63,1.06-1.39,11.23l2.19,6.81,7.72-19.53h1.22l6.55,19.53,2.13-6.12c3.67-10.65,4.79-11.82-1.44-12V16.08l13.05.11v1.49c-6.18.21-6,1.49-10,12l-5.22,14h-1.22L188.8,24.76l-7.56,19Z"/><path class="cls-1" d="M225.54,43.76c-8,0-13.36-5.53-13.36-13.73,0-8.89,5.64-14.91,13.89-14.91,7.62,0,12.2,5.59,11.5,13H218.46v.43c0,7.82,3.3,12.62,8.78,12.62,5,0,8.36-2.93,8.95-7.67l1.81.21C237.41,39.56,232.2,43.76,225.54,43.76Zm-7-17.25H231.4c.53-5.69-1.81-9.79-5.59-9.79C221.6,16.72,219,20.28,218.51,26.51Z"/><path class="cls-1" d="M255.3,11.87c-2.29-2.39-4.63-3.78-7-5.69-1.6-1.34-2.35-2.51-2.35-3.89A2.23,2.23,0,0,1,248.17,0c1.54,0,2.82,1,3.94,3.3a60.36,60.36,0,0,0,4.1,7.83Z"/><path class="cls-1" d="M262.65,42.7V41.21c5.38-.16,6-1.39,6-11.66V25.82c0-6.71-.37-7.66-6.07-7.82V16.56L273.83,16V22.2c1.71-4.2,5.38-7.08,8.79-7.08s5.48,2.5,5.48,4.53-1.06,3.62-3.19,3.62c-3.68,0-3.3-4.42-5.65-4.42-1.86,0-4.36,2.45-5.43,8v2.66c0,10.27.16,11.5,7.3,11.66V42.7Z"/><path class="cls-1" d="M302.32,43.76c-8,0-13.37-5.53-13.37-13.73,0-8.89,5.65-14.91,13.9-14.91,7.61,0,12.19,5.59,11.5,13H295.24v.43c0,7.82,3.3,12.62,8.78,12.62,5,0,8.36-2.93,9-7.67l1.81.21C314.19,39.56,309,43.76,302.32,43.76Zm-7-17.25h12.88c.54-5.69-1.81-9.79-5.59-9.79C298.38,16.72,295.77,20.28,295.29,26.51Z"/><path class="cls-1" d="M329,57.61V56c7.3-.16,8-1.33,8-11.13V29.6c0-10.17.59-11.39-7.13-11.6V16.56L342.14,16v4.84a12.16,12.16,0,0,1,10.44-5.75c6.92,0,11.82,6,11.82,14.38a14,14,0,0,1-13.95,14.26,10.18,10.18,0,0,1-8.31-4.15v5.22c0,9.85.22,11,9.27,11.18v1.6Zm20.93-16c4.73,0,8.2-5.16,8.2-12.13,0-7.72-2.77-12.09-7.62-12.09s-8.57,4.53-8.57,12.51C341.93,38.55,345,41.63,349.92,41.63Z"/><path class="cls-1" d="M365.3,42.7V41.21c5.38-.16,6-1.39,6-11.66V25.82c0-6.71-.37-7.66-6.07-7.82V16.56L376.49,16V22.2c1.7-4.2,5.37-7.08,8.78-7.08,3.57,0,5.48,2.5,5.48,4.53s-1.06,3.62-3.19,3.62c-3.67,0-3.3-4.42-5.64-4.42-1.87,0-4.37,2.45-5.43,8v2.66c0,10.27.16,11.5,7.29,11.66V42.7Z"/><path class="cls-1" d="M405.61,43.76c-8.15,0-14-6.07-14-14.48a14.06,14.06,0,1,1,28.11,0C419.72,37.64,413.76,43.76,405.61,43.76Zm0-1.59c4.79,0,7.83-5,7.83-12.73s-3-12.72-7.83-12.72-7.72,4.9-7.72,12.72S400.87,42.17,405.61,42.17Z"/><path class="cls-1" d="M446.07,43.5c-.58-1.6-.85-3.57-.95-7.35a12.37,12.37,0,0,1-10.81,7.61c-5.22,0-8.63-2.76-8.84-7-.16-3.19.21-4.42.21-9.1,0-9.11-.58-9.48-5.91-9.64V16.56L431.38,16c-.32,4.2-.43,8.62-.48,13.15-.11,6.81.21,11.28,6,11.28,3.52,0,7.4-3.35,8.2-8.52V29.6c0-11.34-.37-11.34-5.91-11.55V16.56L450.71,16c-.32,4.2-.48,8.62-.48,13.15,0,8.41.26,11.87,6.65,11.87v1.44Z"/><path class="cls-1" d="M479.83,37.91a11.93,11.93,0,0,1-10.22,5.85c-7.19,0-12.14-5.85-12.14-14.37a14.08,14.08,0,0,1,14-14.27,10.41,10.41,0,0,1,8.25,4V15.23c0-10.28.59-11.5-7.08-11.72V2.08l13.26-.54a133.55,133.55,0,0,0-1,13.69V29.6c0,9.8,1.54,11.08,6.65,11.29v1.44l-10.8,1A14.88,14.88,0,0,1,479.83,37.91Zm-8.41,3.56c4.79,0,8.57-4.57,8.57-12.61,0-8.58-3.09-11.61-8-11.61-4.73,0-8.25,5.11-8.25,12.09C463.75,37.06,466.52,41.47,471.42,41.47Z"/><path class="cls-1" d="M521.63,43.76c-8.15,0-14-6.07-14-14.48a14.06,14.06,0,1,1,28.12,0C535.74,37.64,529.77,43.76,521.63,43.76Zm0-1.59c4.79,0,7.82-5,7.82-12.73s-3-12.72-7.82-12.72-7.72,4.9-7.72,12.72S516.89,42.17,521.63,42.17Z"/><path class="cls-1" d="M536.64,42.7V41.21c5.38-.16,6-1.39,6-11.66V23.32c0-4.63-.43-4.74-6.07-4.74h-.8V16.82l6.6-.32C542.07,7.19,547,.59,554.26.59c4.21,0,7.62,1.7,7.62,5.69a3,3,0,0,1-3.09,3.36,2.78,2.78,0,0,1-3-2.93,23.5,23.5,0,0,1,.37-2.5c0-.7.06-2.29-2.55-2.29-3.46,0-5.81,3.4-5.81,11V16.5h.06c2.92,0,5.85-.21,8.78-.42v2.71c-2.18-.16-4.36-.16-6.55-.16h-2.29V29.55c0,10.27.16,11.5,7.3,11.66V42.7Z"/><path class="cls-1" d="M571.09,42.7V41.21c5.38-.16,6-1.39,6-11.66S577.64,18.21,571,18V16.56L582.27,16V29.55c0,10.27.64,11.5,5.75,11.66V42.7Zm7.83-33.54a3.84,3.84,0,0,1-4-3.94,4,4,0,1,1,8,0A3.84,3.84,0,0,1,578.92,9.16Z"/><path class="cls-1" d="M600.69,43.76c-5.16,0-7.88-2.29-7.88-9.1,0-3.3.32-6.55.32-11.34s-.47-4.74-6.92-4.74V17c8.2,0,10-5.86,10.23-13.85h2V16.5c3,0,6.39-.21,9.21-.42v2.71c-2.82-.16-6.23-.16-9.21-.16V31.89c0,6.76,1.65,8.68,4.15,8.68,3.52,0,4.31-3.19,4.53-5.8v-.06h1.75v.06C608.47,40.46,606.18,43.76,600.69,43.76Z"/></svg>