<svg id="Layer_1" data-name="Layer 1" xmlns="http://www.w3.org/2000/svg" viewBox="0 0 1024.17 77.67"><defs><style>.cls-1{fill:#010101;}.cls-2{fill:#9e9e9e;}.cls-3{fill:#f7a835;}</style></defs><path class="cls-1" d="M17.78,74.53V71.74c13.38-.3,13.28-2.6,13.28-21.87V6.22h-1.5c-16.08,0-22.37,5-27.36,22.57L0,28.39,1.9,3.23h69L72.8,28.39l-2.19.4c-5-17.57-11.29-22.57-27.37-22.57H41.75V49.87c0,19.27-.1,21.57,13.28,21.87v2.79Z" transform="translate(0 -1.03)"/><path class="cls-1" d="M70.41,74.53V71.74c10.88-.3,11.18-2.6,11.18-21.87V28c0-19.27-.3-21.57-11.18-22V3.23h33.05V6c-10.88.4-11.18,2.7-11.18,22v9.09h36.85V28c0-19.27-.3-21.57-11.18-22V3.23H151V6c-10.88.4-11.18,2.7-11.18,22V49.87c0,19.27.3,21.57,11.18,21.87v2.79H118V71.74c10.88-.3,11.18-2.6,11.18-21.87V40.08H92.28v9.79c0,19.27.3,21.57,11.18,21.87v2.79Z" transform="translate(0 -1.03)"/><path class="cls-1" d="M148.11,74.53V71.74c10.88-.3,11.18-2.6,11.18-21.87V28c0-19.27-.3-21.57-11.18-22V3.23h33.06V6C170.28,6.42,170,8.72,170,28V49.87c0,19.27.3,21.57,11.19,21.87v2.79Z" transform="translate(0 -1.03)"/><path class="cls-1" d="M209.93,76.53c-13.19,0-18.18-5.09-21.47-5.09-1.8,0-3.9.8-4.3,4.29h-2.9V47.27h2.6C187.46,64,197,73.14,208.33,73.14c9.59,0,15.08-5.8,15.08-13.69,0-21.87-39.65-11.18-39.65-38.15C183.76,9.62,193.45,1,207.13,1,218.22,1,222,5.52,224.21,5.52c2,0,3.09-.89,3.79-4.09h2.6V27.69H228c-3.09-16.07-10.38-23.56-20.27-23.56-8.29,0-14,5.09-14,13.68,0,20.07,41,10.18,41,37.25C234.79,70.24,221,76.53,209.93,76.53Z" transform="translate(0 -1.03)"/><path class="cls-1" d="M263.46,74.53V71.74c10.88-.3,11.18-2.6,11.18-21.87V28c0-19.27-.3-21.57-11.18-22V3.23h33.05V6c-10.88.4-11.18,2.7-11.18,22V49.87c0,19.27.3,21.57,11.18,21.87v2.79Z" transform="translate(0 -1.03)"/><path class="cls-1" d="M325.28,76.53c-13.19,0-18.18-5.09-21.47-5.09-1.8,0-3.9.8-4.3,4.29h-2.89V47.27h2.59c3.6,16.68,13.18,25.87,24.47,25.87,9.59,0,15.08-5.8,15.08-13.69,0-21.87-39.65-11.18-39.65-38.15C299.11,9.62,308.8,1,322.48,1c11.09,0,14.88,4.49,17.08,4.49,2,0,3.09-.89,3.79-4.09H346V27.69h-2.6C340.26,11.62,333,4.13,323.08,4.13c-8.29,0-14,5.09-14,13.68,0,20.07,41,10.18,41,37.25C350.14,70.24,336.36,76.53,325.28,76.53Z" transform="translate(0 -1.03)"/><path class="cls-2" d="M392.08,77.81,379.26,44c-4.66-12.27-4.32-14-11.18-14.33V27.75H390.3v1.92c-8,.21-7.89,1.38-3.36,13.65l8.43,23,10.35-27.91c-2.46-7.4-3.15-8.57-9.18-8.78V27.75h23.1v1.92c-8.29.21-8.91,1.31-4.45,13.79l7.88,22.9,7.75-21.81c4.46-12.41,4.32-14.67-3.22-14.88V27.75H446v1.92c-6.92.21-8.36,2.13-13,15L421.22,77.81H419.3l-11.66-33.6c-.34-1-.61-1.85-.89-2.67l-13,36.27Z" transform="translate(0 -1.03)"/><path class="cls-2" d="M443.64,76.71V74.79c7.48-.21,7.68-1.78,7.68-15v-15c0-13.23-.2-14.81-7.68-15.09V27.75h22.7v1.92c-7.48.28-7.68,1.86-7.68,15.09V51H484V44.76c0-13.23-.21-14.81-7.68-15.09V27.75H499v1.92c-7.47.28-7.68,1.86-7.68,15.09v15c0,13.24.21,14.81,7.68,15v1.92H476.28V74.79c7.47-.21,7.68-1.78,7.68-15V53.06h-25.3v6.71c0,13.24.2,14.81,7.68,15v1.92Z" transform="translate(0 -1.03)"/><path class="cls-2" d="M497,76.71V74.79c6.93-.21,7.89-1.78,13.17-14.33l13.51-33.8h1.64l13.37,34.49c4.8,12.27,5.49,13.23,11.66,13.64v1.92H527.91V74.79c8.22-.21,7.2-.75,2.74-13L530,59.91H513.17l-.28.69c-5,12.2-5.55,14,3.22,14.19v1.92Zm32.23-18.86L521.8,37.49l-7.88,20.36Z" transform="translate(0 -1.03)"/><path class="cls-2" d="M560.89,76.71V74.79c9.18-.21,9.12-1.78,9.12-15v-30h-1c-11,0-15.36,3.43-18.79,15.5L548.68,45,550,27.75h47.38L598.67,45l-1.51.28c-3.43-12.07-7.75-15.5-18.79-15.5h-1v30c0,13.24-.07,14.81,9.12,15v1.92Z" transform="translate(0 -1.03)"/><path class="cls-3" d="M632.92,77.81,620.1,44c-4.67-12.27-4.32-14-11.18-14.33V27.76h22.21v1.91c-8,.21-7.88,1.38-3.36,13.65l8.44,23,10.35-27.91c-2.47-7.4-3.15-8.57-9.19-8.78V27.76h23.11v1.91c-8.3.21-8.91,1.31-4.46,13.79l7.89,22.9,7.75-21.81c4.45-12.41,4.31-14.67-3.23-14.88V27.76h18.38v1.91c-6.93.21-8.37,2.13-13,15L662.06,77.81h-1.92l-11.66-33.6c-.34-1-.62-1.85-.89-2.67l-13,36.27Z" transform="translate(0 -1.03)"/><path class="cls-3" d="M714.65,62.52c-.55-7.75-3.84-9.4-10.22-9.4h-4.94v6.52c0,13.64.83,15,11.87,15h.41c10.62,0,15.42-5.28,18.71-10.83l1.38.55-3,12.34H684.48V74.79c7.47-.21,7.68-1.78,7.68-15v-15c0-13.23-.21-14.81-7.68-15.09V27.76H726l.69,11.86-1.51.27c-2.27-7.06-6.59-10.08-15.57-10.08H699.49V51.07h4.94c6.38,0,9.67-1.65,10.22-9.4h2V62.52Z" transform="translate(0 -1.03)"/><path class="cls-3" d="M768.78,78.7c-13.92,0-26.67-9.6-26.67-25.85s12.75-26,26.67-26,26.67,9.67,26.67,26S782.63,78.7,768.78,78.7Zm0-2.06c10.83,0,18-9.39,18-23.79s-7.2-23.93-18-23.93-18,9.46-18,23.93S758,76.64,768.78,76.64Z" transform="translate(0 -1.03)"/><path class="cls-3" d="M795.52,77.33V75.41c7.48-.21,7.68-1.79,7.68-15v-15c0-13.24-.2-14.81-7.68-15.09V28.37h41.83L838,40.23l-1.51.28c-2.26-7.06-6.58-10.08-15.56-10.08H810.54V52h4.93c6.38,0,9.67-1.65,10.22-9.4h2V63.48h-2c-.55-7.75-3.84-9.4-10.22-9.4h-4.93v6.31c0,13.71.2,14.81,8.36,15v1.92Z" transform="translate(0 -1.03)"/><path class="cls-3" d="M836,77.33V75.41c7.48-.21,7.68-1.79,7.68-15v-15c0-13.24-.2-14.81-7.68-15.09V28.37h41.83l.68,11.86-1.51.28c-2.26-7.06-6.58-10.08-15.56-10.08H851.06V52H856c6.37,0,9.66-1.65,10.21-9.4h2V63.48h-2c-.55-7.75-3.84-9.4-10.21-9.4h-4.94v6.31c0,13.71.2,14.81,8.36,15v1.92Z" transform="translate(0 -1.03)"/><path class="cls-3" d="M906.73,63.13c-.54-7.74-3.84-9.39-10.21-9.39h-4.94v6.51c0,13.65.82,15,11.86,15h.41c10.63,0,15.43-5.28,18.72-10.83l1.37.54L921,77.33H876.57V75.41c7.47-.21,7.67-1.79,7.67-15v-15c0-13.24-.2-14.81-7.67-15.09V28.37h41.48l.68,11.86-1.51.28c-2.26-7.06-6.58-10.08-15.56-10.08H891.58V51.68h4.94c6.37,0,9.67-1.64,10.21-9.39h2V63.13Z" transform="translate(0 -1.03)"/><path class="cls-3" d="M922.3,77.33V75.41c7.47-.21,7.68-1.79,7.68-15v-15c0-13.24-.21-14.81-7.68-15.09V28.37h20.09c8.16,0,23.45-1.1,23.45,11.93,0,9.19-8.37,12.14-17,12.27,3.43.55,7.27,2,9.33,4.32,5.82,6.45,5.34,17.42,11.58,17.42a3.64,3.64,0,0,0,2.06-.62,5.28,5.28,0,0,0,1-.82l1,1.3a7.38,7.38,0,0,1-.89,1.1,11.06,11.06,0,0,1-8,3.15,9.13,9.13,0,0,1-8.15-4.18c-3.71-5.62-1.17-20.64-15.5-20.71h-4v6.52c0,13.23.21,15.15,7.68,15.36v1.92Zm15-25.85h5.15c11.24,0,15-4.32,15-11.18,0-7.88-4.94-9.87-15-9.87h-5.15Z" transform="translate(0 -1.03)"/><path class="cls-3" d="M985.79,77.33a5.31,5.31,0,1,1,5.34-5.27A5.14,5.14,0,0,1,985.79,77.33Z" transform="translate(0 -1.03)"/><path class="cls-3" d="M1002.31,77.33a5.31,5.31,0,1,1,5.34-5.27A5.14,5.14,0,0,1,1002.31,77.33Z" transform="translate(0 -1.03)"/><path class="cls-3" d="M1018.83,77.33a5.31,5.31,0,1,1,5.34-5.27A5.14,5.14,0,0,1,1018.83,77.33Z" transform="translate(0 -1.03)"/></svg>