<svg id="Layer_1" data-name="Layer 1" xmlns="http://www.w3.org/2000/svg" viewBox="0 0 380.61 90.41"><defs><style>.cls-1{fill:#010101;}.cls-2{fill:#343432;}.cls-3{fill:#f7a835;}</style></defs><path class="cls-1" d="M6.22,33.29V32.06c5.9-.14,5.86-1.15,5.86-9.65V3.17h-.66c-7.09,0-9.86,2.2-12.07,10l-1-.17.83-11.1H29.65L30.49,13l-1,.17c-2.2-7.75-5-9.95-12.07-9.95h-.66V22.41c0,8.5,0,9.51,5.86,9.65v1.23Z" transform="translate(1.61 -0.88)"/><path class="cls-1" d="M29.43,33.29V32.06c4.8-.14,4.93-1.15,4.93-9.65V12.77c0-8.5-.13-9.51-4.93-9.69V1.85H44V3.08c-4.8.18-4.93,1.19-4.93,9.69v4H55.32v-4c0-8.5-.13-9.51-4.93-9.69V1.85H65V3.08C60.17,3.26,60,4.27,60,12.77v9.64c0,8.5.13,9.51,4.93,9.65v1.23H50.39V32.06c4.8-.14,4.93-1.15,4.93-9.65V18.1H39.08v4.31c0,8.5.13,9.51,4.93,9.65v1.23Z" transform="translate(1.61 -0.88)"/><path class="cls-1" d="M63.69,33.29V32.06c4.8-.14,4.93-1.15,4.93-9.65V12.77c0-8.5-.13-9.51-4.93-9.69V1.85H78.27V3.08c-4.8.18-4.93,1.19-4.93,9.69v9.64c0,8.5.13,9.51,4.93,9.65v1.23Z" transform="translate(1.61 -0.88)"/><path class="cls-1" d="M91,34.17c-5.81,0-8-2.25-9.47-2.25-.79,0-1.71.36-1.89,1.9H78.31V21.27h1.15c1.58,7.35,5.81,11.4,10.79,11.4,4.22,0,6.65-2.55,6.65-6,0-9.64-17.49-4.93-17.49-16.82,0-5.15,4.28-8.94,10.31-8.94,4.89,0,6.56,2,7.53,2s1.36-.39,1.67-1.8h1.15V12.64H98.92C97.56,5.55,94.34,2.25,90,2.25c-3.65,0-6.16,2.24-6.16,6,0,8.85,18.1,4.49,18.1,16.42C101.92,31.4,95.84,34.17,91,34.17Z" transform="translate(1.61 -0.88)"/><path class="cls-1" d="M114.56,33.29V32.06c4.8-.14,4.93-1.15,4.93-9.65V12.77c0-8.5-.13-9.51-4.93-9.69V1.85h14.57V3.08c-4.8.18-4.93,1.19-4.93,9.69v9.64c0,8.5.13,9.51,4.93,9.65v1.23Z" transform="translate(1.61 -0.88)"/><path class="cls-1" d="M141.81,34.17c-5.81,0-8-2.25-9.46-2.25-.8,0-1.72.36-1.9,1.9h-1.27V21.27h1.14c1.59,7.35,5.81,11.4,10.79,11.4,4.23,0,6.65-2.55,6.65-6,0-9.64-17.48-4.93-17.48-16.82,0-5.15,4.27-8.94,10.3-8.94,4.89,0,6.56,2,7.53,2s1.37-.39,1.67-1.8h1.15V12.64h-1.15c-1.36-7.09-4.58-10.39-8.94-10.39-3.65,0-6.16,2.24-6.16,6,0,8.85,18.1,4.49,18.1,16.42C152.78,31.4,146.7,34.17,141.81,34.17Z" transform="translate(1.61 -0.88)"/><path class="cls-1" d="M173.48,33.29V32.06c5.9-.14,5.85-1.15,5.85-9.65V3.17h-.66c-7.09,0-9.86,2.2-12.06,10l-1-.17.84-11.1H196.9l.84,11.1-1,.17c-2.2-7.75-5-9.95-12.06-9.95h-.66V22.41c0,8.5-.05,9.51,5.85,9.65v1.23Z" transform="translate(1.61 -0.88)"/><path class="cls-1" d="M196.68,33.29V32.06c4.8-.14,4.94-1.15,4.94-9.65V12.77c0-8.5-.14-9.51-4.94-9.69V1.85h14.58V3.08c-4.8.18-4.93,1.19-4.93,9.69v4h16.25v-4c0-8.5-.14-9.51-4.94-9.69V1.85h14.58V3.08c-4.8.18-4.93,1.19-4.93,9.69v9.64c0,8.5.13,9.51,4.93,9.65v1.23H217.64V32.06c4.8-.14,4.94-1.15,4.94-9.65V18.1H206.33v4.31c0,8.5.13,9.51,4.93,9.65v1.23Z" transform="translate(1.61 -0.88)"/><path class="cls-1" d="M250.32,24.17c-.35-5-2.47-6-6.56-6h-3.17v4.18c0,8.77.53,9.65,7.62,9.65h.26c6.83,0,9.91-3.39,12-7l.88.35-1.89,7.93H231V32.06c4.8-.14,4.93-1.15,4.93-9.65V12.77c0-8.5-.13-9.51-4.93-9.69V1.85h26.64L258,9.47l-1,.17c-1.46-4.53-4.23-6.47-10-6.47h-6.47V16.82h3.17c4.09,0,6.21-1.06,6.56-6h1.28V24.17Z" transform="translate(1.61 -0.88)"/><path class="cls-1" d="M280.84,34.7,272.6,13c-3-7.88-2.77-9-7.17-9.2V2.55h14.26V3.79c-5.1.13-5.06.88-2.15,8.76L283,27.34,289.6,9.42c-1.58-4.75-2-5.5-5.9-5.63V2.55h14.84V3.79c-5.33.13-5.72.83-2.86,8.85l5.06,14.7,5-14c2.86-8,2.77-9.42-2.07-9.55V2.55h11.8V3.79c-4.45.13-5.37,1.36-8.32,9.64L299.55,34.7h-1.23l-7.49-21.58c-.22-.61-.39-1.19-.57-1.72l-8.37,23.3Z" transform="translate(1.61 -0.88)"/><path class="cls-1" d="M307.78,34V32.76c4.44-.13,5.06-1.14,8.45-9.2l8.68-21.71h1L334.55,24c3.08,7.88,3.52,8.5,7.49,8.76V34h-14.4V32.76c5.28-.13,4.62-.48,1.76-8.32L329,23.21H318.17l-.18.44c-3.21,7.83-3.56,9,2.07,9.11V34Zm20.69-12.11L323.72,8.81l-5.07,13.07Z" transform="translate(1.61 -0.88)"/><path class="cls-1" d="M346.65,34V32.76c4.84-.13,4.93-1.1,4.93-9.6V19.77l-5.11-8.1c-4.05-6.43-4.32-7.66-8.68-7.88V2.55h13.92V3.79c-4.93.13-4.54.52-.75,6.43l4.27,6.69,3.7-5.59c4.45-6.74,4.27-7.4-.44-7.53V2.55h11.85V3.79c-4,.13-5.11.39-9.74,7.61l-4.31,6.79v5c0,8.5.13,9.47,4.93,9.6V34Z" transform="translate(1.61 -0.88)"/><path class="cls-2" d="M24.11,91l-12-31.63C7.75,47.92,8.07,46.25,1.65,46V44.2H22.44V46c-7.44.19-7.38,1.28-3.15,12.76l7.89,21.56,9.69-26.11c-2.31-6.93-2.95-8-8.59-8.21V44.2H49.89V46c-7.76.19-8.34,1.22-4.17,12.89L53.1,80.32l7.25-20.4c4.17-11.61,4-13.73-3-13.92V44.2h17.2V46c-6.48.19-7.83,2-12.13,14l-11,31h-1.8L38.67,59.6c-.32-.9-.58-1.74-.84-2.5L25.65,91Z" transform="translate(1.61 -0.88)"/><path class="cls-2" d="M100.58,76.72c-.52-7.24-3.6-8.78-9.56-8.78H86.4V74c0,12.77.77,14,11.1,14h.38c9.94,0,14.43-4.94,17.51-10.14l1.29.52L113.92,90H72.35V88.21c7-.2,7.19-1.67,7.19-14v-14c0-12.38-.2-13.86-7.19-14.11V44.2h38.81l.64,11.1-1.41.26c-2.12-6.61-6.16-9.43-14.56-9.43H86.4V66H91c6,0,9-1.54,9.56-8.79h1.86v19.5Z" transform="translate(1.61 -0.88)"/><path class="cls-3" d="M151.64,90.26,133.81,90V88.21c7.12-.2,7.18-1.67,7.18-14V58.57c0-11.74-.7-12.32-7.18-12.57V44.2l17.83-.38c19.82-.45,30.73,6.6,30.73,23C182.37,82.31,171.46,90.52,151.64,90.26Zm3.79-2.18c9.55,0,18.79-7.06,18.79-21.17,0-14.43-8.34-21.1-20.78-21l-5.52.07V75.12C147.92,86.54,149.33,88.08,155.43,88.08Z" transform="translate(1.61 -0.88)"/><path class="cls-3" d="M209.31,91.29c-13,0-24.95-9-24.95-24.19s11.93-24.31,24.95-24.31,25,9.05,25,24.31S222.27,91.29,209.31,91.29Zm0-1.93c10.14,0,16.88-8.79,16.88-22.26s-6.74-22.39-16.88-22.39-16.87,8.86-16.87,22.39S199.18,89.36,209.31,89.36Z" transform="translate(1.61 -0.88)"/><path class="cls-3" d="M253,90V88.21c7-.2,7.19-1.67,7.19-14v-14c0-12.38-.19-13.86-7.19-14.11V44.2h21.24V46c-7,.25-7.19,1.73-7.19,14.11v14c0,12.38.19,13.85,7.19,14V90Z" transform="translate(1.61 -0.88)"/><path class="cls-3" d="M284.12,90V88.21c8.59-.2,8.53-1.67,8.53-14v-28h-1c-10.33,0-14.37,3.2-17.58,14.49l-1.41-.25,1.22-16.17h44.32l1.22,16.17-1.41.25c-3.21-11.29-7.25-14.49-17.58-14.49h-1v28c0,12.38-.06,13.85,8.53,14V90Z" transform="translate(1.61 -0.88)"/><path class="cls-3" d="M344.87,91.29a4.72,4.72,0,1,1,4.75-4.69A4.58,4.58,0,0,1,344.87,91.29Z" transform="translate(1.61 -0.88)"/><path class="cls-3" d="M359.56,91.29a4.72,4.72,0,1,1,4.75-4.69A4.58,4.58,0,0,1,359.56,91.29Z" transform="translate(1.61 -0.88)"/><path class="cls-3" d="M374.25,91.29A4.72,4.72,0,1,1,379,86.6,4.58,4.58,0,0,1,374.25,91.29Z" transform="translate(1.61 -0.88)"/></svg>