<svg id="Layer_1" data-name="Layer 1" xmlns="http://www.w3.org/2000/svg" viewBox="0 0 351.37 116.15"><defs><style>.cls-1{fill:#010101;}.cls-2{fill:#343432;}.cls-3{fill:#f7a835;}</style></defs><path class="cls-1" d="M8.6,35.55V34.2C15.07,34.05,15,32.94,15,23.62V2.51H14.3C6.52,2.51,3.48,4.93,1.06,13.43L0,13.23.92,1.06H34.29l.92,12.17-1.06.2C31.73,4.93,28.69,2.51,20.91,2.51h-.72V23.62c0,9.32-.05,10.43,6.42,10.58v1.35Z"/><path class="cls-1" d="M34.05,35.55V34.2c5.26-.15,5.41-1.26,5.41-10.58V13c0-9.32-.15-10.43-5.41-10.62V1.06H50V2.42c-5.27.19-5.41,1.3-5.41,10.62v4.4H62.45V13c0-9.32-.14-10.43-5.41-10.62V1.06H73V2.42c-5.27.19-5.41,1.3-5.41,10.62V23.62c0,9.32.14,10.43,5.41,10.58v1.35H57V34.2c5.27-.15,5.41-1.26,5.41-10.58V18.89H44.63v4.73c0,9.32.14,10.43,5.41,10.58v1.35Z"/><path class="cls-1" d="M71.63,35.55V34.2c5.26-.15,5.4-1.26,5.4-10.58V13c0-9.32-.14-10.43-5.4-10.62V1.06h16V2.42C82.35,2.61,82.2,3.72,82.2,13V23.62c0,9.32.15,10.43,5.41,10.58v1.35Z"/><path class="cls-1" d="M101.52,36.52c-6.37,0-8.79-2.47-10.38-2.47-.87,0-1.89.39-2.08,2.08h-1.4V22.36h1.26c1.73,8.07,6.37,12.51,11.83,12.51,4.64,0,7.29-2.8,7.29-6.61,0-10.58-19.17-5.41-19.17-18.45,0-5.66,4.68-9.81,11.3-9.81,5.36,0,7.2,2.17,8.26,2.17s1.5-.43,1.84-2h1.25V12.9h-1.25c-1.5-7.78-5-11.4-9.81-11.4-4,0-6.76,2.46-6.76,6.61,0,9.71,19.85,4.93,19.85,18C113.55,33.47,106.88,36.52,101.52,36.52Z"/><path class="cls-1" d="M127.41,35.55V34.2c5.26-.15,5.41-1.26,5.41-10.58V13c0-9.32-.15-10.43-5.41-10.62V1.06h16V2.42C138.13,2.61,138,3.72,138,13V23.62c0,9.32.14,10.43,5.41,10.58v1.35Z"/><path class="cls-1" d="M157.31,36.52c-6.38,0-8.79-2.47-10.39-2.47-.87,0-1.88.39-2.08,2.08h-1.4V22.36h1.26c1.74,8.07,6.38,12.51,11.83,12.51,4.64,0,7.3-2.8,7.3-6.61,0-10.58-19.18-5.41-19.18-18.45C144.65,4.15,149.34,0,156,0c5.37,0,7.2,2.17,8.26,2.17s1.5-.43,1.84-2h1.25V12.9h-1.25c-1.5-7.78-5-11.4-9.81-11.4-4,0-6.76,2.46-6.76,6.61,0,9.71,19.85,4.93,19.85,18C169.33,33.47,162.67,36.52,157.31,36.52Z"/><path class="cls-2" d="M20,75.34c-9.81,0-18.79-6.77-18.79-18.21s9-18.31,18.79-18.31,18.79,6.81,18.79,18.31S29.75,75.34,20,75.34Zm0-1.45c7.63,0,12.7-6.62,12.7-16.76S27.63,40.27,20,40.27,7.29,46.93,7.29,57.13,12.37,73.89,20,73.89Z"/><path class="cls-2" d="M58.25,75.34c-10.82,0-14-5.51-14-13.92V51.91c0-9.32-.14-10.43-5.41-10.63v-1.4h16v1.4c-5.27.2-5.41,1.31-5.41,10.63v9c0,8.36,3.38,12.56,9.71,12.56s9.75-5.12,9.75-12.66V51.91c0-9.32-1.49-10.43-6.71-10.63v-1.4H77.52v1.4c-5.12.2-6.76,1.31-6.76,10.63v9.32C70.76,69.06,66.85,75.34,58.25,75.34Z"/><path class="cls-2" d="M76.12,74.37V73c5.26-.15,5.41-1.26,5.41-10.58V51.86c0-9.32-.15-10.43-5.41-10.63V39.88H90.27c5.75,0,16.52-.77,16.52,8.41,0,6.47-5.89,8.55-12,8.64,2.41.39,5.12,1.4,6.57,3,4.1,4.54,3.77,12.26,8.16,12.26a2.55,2.55,0,0,0,1.45-.43,4.07,4.07,0,0,0,.72-.58l.73.92a4.7,4.7,0,0,1-.63.77,7.79,7.79,0,0,1-5.65,2.22,6.46,6.46,0,0,1-5.75-2.94c-2.61-4-.82-14.54-10.91-14.59H86.7V62.2c0,9.32.14,10.67,5.4,10.82v1.35ZM86.7,56.16h3.62c7.92,0,10.58-3,10.58-7.87,0-5.56-3.48-7-10.58-7H86.7Z"/><path class="cls-3" d="M19.27,116.15c-10.67,0-18.06-7.34-18.06-17.92C1.21,87.46,9.08,79.64,20,79.64c6.18,0,8.79,2.46,10.38,2.46a1.64,1.64,0,0,0,1-.29c.38-.24.63-.72.91-1.74h1.31V93.45H32.26C30.82,85.39,26.52,81.09,20,81.09c-7.67,0-12.7,6.71-12.7,17,0,8.45,5.6,14.59,13.33,14.59,6.72,0,11.64-3.63,13.38-9.86l1.45.53C33.52,111.52,27.58,116.15,19.27,116.15Z"/><path class="cls-3" d="M35.55,115.19v-1.35c5.26-.15,5.41-1.26,5.41-10.58V92.68c0-9.32-.15-10.43-5.41-10.63V80.7H49.7c5.75,0,16.52-.77,16.52,8.41,0,6.47-5.89,8.55-12,8.64,2.41.39,5.12,1.4,6.57,3,4.1,4.54,3.77,12.26,8.16,12.26a2.55,2.55,0,0,0,1.45-.43,4.07,4.07,0,0,0,.72-.58l.73.92a4.7,4.7,0,0,1-.63.77A7.79,7.79,0,0,1,65.59,116,6.46,6.46,0,0,1,59.84,113c-2.61-4-.82-14.54-10.91-14.59H46.12V103c0,9.32.15,10.67,5.41,10.82v1.35ZM46.12,97h3.63c7.92,0,10.58-3,10.58-7.87,0-5.56-3.48-7-10.58-7H46.12Z"/><path class="cls-3" d="M91,105.19c-.38-5.46-2.7-6.62-7.19-6.62H80.32v4.59c0,9.61.58,10.58,8.36,10.58H89c7.48,0,10.86-3.72,13.18-7.63l1,.38-2.08,8.7H69.74v-1.35c5.27-.15,5.41-1.26,5.41-10.58V92.68c0-9.32-.14-10.43-5.41-10.63V80.7H99l.49,8.36-1.07.19c-1.59-5-4.63-7.1-11-7.1h-7.1v15H83.8c4.49,0,6.81-1.16,7.19-6.61h1.4v14.68Z"/><path class="cls-3" d="M102,115.19v-1.35c4.87-.15,5.55-1.26,9.27-10.1l9.52-23.81h1.15l9.42,24.29c3.38,8.65,3.87,9.33,8.21,9.62v1.35H123.74v-1.35c5.8-.15,5.07-.54,1.93-9.13l-.48-1.36H113.36l-.2.49c-3.52,8.6-3.91,9.85,2.27,10v1.35Zm22.7-13.28-5.22-14.35-5.55,14.35Z"/><path class="cls-3" d="M147,115.19v-1.35c6.47-.15,6.42-1.26,6.42-10.58V82.15h-.72c-7.78,0-10.82,2.42-13.24,10.92l-1.06-.2.92-12.17h33.38l.91,12.17-1.06.2c-2.41-8.5-5.46-10.92-13.23-10.92h-.73v21.11c0,9.32-.05,10.43,6.43,10.58v1.35Z"/><path class="cls-3" d="M172.42,115.19v-1.35c5.27-.15,5.41-1.26,5.41-10.58V92.68c0-9.32-.14-10.43-5.41-10.63V80.7h16v1.35c-5.27.2-5.41,1.31-5.41,10.63v10.58c0,9.32.14,10.43,5.41,10.58v1.35Z"/><path class="cls-3" d="M204.4,116,195,91.67c-3.38-8.65-3.87-9.33-8.21-9.62V80.7h15.79v1.35c-5.8.15-5.12.54-1.93,9.13l6.28,17,6.23-16.13c3.52-8.6,3.91-9.85-2.27-10V80.7h13.47v1.35c-4.87.15-5.55,1.26-9.27,10.1L205.56,116Z"/><path class="cls-3" d="M222.7,115.19v-1.35c5.26-.15,5.41-1.26,5.41-10.58V92.68c0-9.32-.15-10.43-5.41-10.63V80.7h16v1.35c-5.27.2-5.41,1.31-5.41,10.63v10.58c0,9.32.14,10.43,5.41,10.58v1.35Z"/><path class="cls-3" d="M246.13,115.19v-1.35c6.47-.15,6.42-1.26,6.42-10.58V82.15h-.73c-7.77,0-10.81,2.42-13.23,10.92l-1.06-.2.92-12.17h33.37l.92,12.17-1.06.2c-2.42-8.5-5.46-10.92-13.24-10.92h-.72v21.11c0,9.32-.05,10.43,6.42,10.58v1.35Z"/><path class="cls-3" d="M281,115.19v-1.35c5.32-.15,5.41-1.21,5.41-10.53V99.59l-5.6-8.89c-4.44-7-4.73-8.4-9.51-8.65V80.7H286.6v1.35c-5.41.15-5,.58-.82,7.06l4.68,7.34,4.06-6.14c4.88-7.39,4.69-8.11-.48-8.26V80.7h13v1.35c-4.4.15-5.6.44-10.67,8.36l-4.74,7.44v5.46c0,9.32.15,10.38,5.41,10.53v1.35Z"/><path class="cls-3" d="M325.67,116.15a3.55,3.55,0,1,1,3.57-3.52A3.43,3.43,0,0,1,325.67,116.15Z"/><path class="cls-3" d="M336.73,116.15a3.55,3.55,0,1,1,3.57-3.52A3.43,3.43,0,0,1,336.73,116.15Z"/><path class="cls-3" d="M347.79,116.15a3.55,3.55,0,1,1,3.58-3.52A3.43,3.43,0,0,1,347.79,116.15Z"/></svg>