<svg id="Layer_1" data-name="Layer 1" xmlns="http://www.w3.org/2000/svg" viewBox="0 0 534.98 47.37"><defs><style>.cls-1{fill:#010101;}.cls-2{fill:#f7a835;}.cls-3{fill:#343432;}</style></defs><path class="cls-1" d="M20.91,47.13,9.74,17.68C5.67,7,6,5.44,0,5.2V3.52H19.35V5.2c-6.93.18-6.87,1.19-2.92,11.88l7.34,20.07,9-24.31c-2.15-6.45-2.75-7.46-8-7.64V3.52H44.92V5.2c-7.23.18-7.77,1.13-3.89,12l6.87,20,6.75-19c3.89-10.81,3.77-12.78-2.8-13V3.52h16V5.2c-6,.18-7.28,1.85-11.29,13.08L46.29,47.13H44.62L34.46,17.86c-.29-.84-.53-1.61-.77-2.33L22.34,47.13Z"/><path class="cls-1" d="M65.83,46.17V44.5c6.51-.18,6.69-1.55,6.69-13.08V18.34c0-11.53-.18-12.9-6.69-13.14V3.52H85.6V5.2c-6.51.24-6.69,1.61-6.69,13.14v5.43h22V18.34c0-11.53-.18-12.9-6.69-13.14V3.52H114V5.2c-6.51.24-6.69,1.61-6.69,13.14V31.42c0,11.53.18,12.9,6.69,13.08v1.67H94.26V44.5C100.77,44.32,101,43,101,31.42V25.56h-22v5.86c0,11.53.18,12.9,6.69,13.08v1.67Z"/><path class="cls-1" d="M112.3,46.17V44.5c6-.18,6.87-1.55,11.47-12.48L135.54,2.57H137l11.65,30c4.18,10.69,4.78,11.53,10.15,11.89v1.67H139.24V44.5c7.17-.18,6.27-.66,2.39-11.29l-.6-1.67H126.4l-.24.6C121.8,42.77,121.32,44.32,129,44.5v1.67Zm28.07-16.42L133.92,12l-6.87,17.74Z"/><path class="cls-1" d="M159.61,46.17V44.5c8-.18,7.94-1.55,7.94-13.08V5.32h-.89c-9.62,0-13.38,3-16.37,13.49L149,18.58l1.13-15.06h41.28l1.13,15.06-1.31.23c-3-10.51-6.75-13.49-16.37-13.49h-.9v26.1c0,11.53-.06,12.9,7.95,13.08v1.67Z"/><path class="cls-1" d="M217.37,33.81c-.48-6.75-3.34-8.19-8.9-8.19h-4.3V31.3c0,11.89.72,13.08,10.33,13.08h.36c9.26,0,13.44-4.6,16.31-9.44l1.19.48-2.57,10.75h-38.7V44.5c6.51-.18,6.69-1.55,6.69-13.08V18.34c0-11.53-.18-12.9-6.69-13.14V3.52h36.14l.59,10.34-1.31.24c-2-6.16-5.73-8.78-13.56-8.78h-8.78V23.83h4.3c5.56,0,8.42-1.43,8.9-8.18h1.73V33.81Z"/><path class="cls-1" d="M230.93,46.17V44.5c6.51-.18,6.69-1.55,6.69-13.08V18.34c0-11.53-.18-12.9-6.69-13.14V3.52H251.3V5.2c-6.63.24-7.35,1.61-7.35,13.14V31.42c0,11.88.72,13,10.52,13h.17c10.58,0,14.7-6.93,16.85-13.44l1.37.3L270,46.17Z"/><path class="cls-1" d="M290.61,47.37c-7.89,0-10.88-3-12.85-3-1.07,0-2.33.48-2.57,2.57h-1.73v-17H275c2.15,10,7.88,15.47,14.63,15.47,5.73,0,9-3.47,9-8.19,0-13.08-23.71-6.69-23.71-22.81,0-7,5.79-12.13,14-12.13,6.63,0,8.9,2.69,10.22,2.69s1.85-.54,2.27-2.45H303V18.16h-1.55c-1.86-9.62-6.22-14.1-12.13-14.1-5,0-8.36,3.05-8.36,8.18,0,12,24.55,6.1,24.55,22.28C305.48,43.6,297.23,47.37,290.61,47.37Z"/><path class="cls-1" d="M331.52,33.81c-.48-6.75-3.34-8.19-8.9-8.19h-4.3V31.3c0,11.89.72,13.08,10.33,13.08H329c9.26,0,13.44-4.6,16.31-9.44l1.19.48L344,46.17H305.24V44.5c6.51-.18,6.69-1.55,6.69-13.08V18.34c0-11.53-.18-12.9-6.69-13.14V3.52h36.14l.6,10.34-1.32.24c-2-6.16-5.73-8.78-13.56-8.78h-8.78V23.83h4.3c5.56,0,8.42-1.43,8.9-8.18h1.73V33.81Z"/><path class="cls-2" d="M368.62,47.13,357.45,17.68C353.39,7,353.68,5.44,347.71,5.2V3.52h19.35V5.2c-6.92.18-6.86,1.19-2.92,11.88l7.34,20.07,9-24.31c-2.15-6.45-2.74-7.46-8-7.64V3.52h20.13V5.2c-7.23.18-7.77,1.13-3.88,12l6.87,20,6.74-19c3.89-10.81,3.77-12.78-2.8-13V3.52h16V5.2c-6,.18-7.29,1.85-11.29,13.08L394,47.13h-1.67L382.18,17.86c-.3-.84-.54-1.61-.78-2.33l-11.35,31.6Z"/><path class="cls-2" d="M442.75,33.81c-.48-6.75-3.35-8.19-8.9-8.19h-4.3V31.3c0,11.89.71,13.08,10.33,13.08h.36c9.26,0,13.44-4.6,16.31-9.44l1.19.48-2.57,10.75h-38.7V44.5c6.51-.18,6.69-1.55,6.69-13.08V18.34c0-11.53-.18-12.9-6.69-13.14V3.52H452.6l.6,10.34-1.31.24c-2-6.16-5.74-8.78-13.56-8.78h-8.78V23.83h4.3c5.55,0,8.42-1.43,8.9-8.18h1.73V33.81Z"/><path class="cls-3" d="M486.71,40.8a13.39,13.39,0,0,1-11.47,6.57c-8.06,0-13.62-6.57-13.62-16.13a15.8,15.8,0,0,1,15.71-16,11.68,11.68,0,0,1,9.26,4.48V15.35c0-11.53.66-12.9-7.94-13.14V.6L493.52,0a149.16,149.16,0,0,0-1.13,15.35V31.48c0,11,1.73,12.42,7.46,12.66v1.61l-12.12,1.14A16.76,16.76,0,0,1,486.71,40.8Zm-9.44,4c5.38,0,9.62-5.14,9.62-14.16,0-9.61-3.46-13-9-13-5.31,0-9.26,5.73-9.26,13.56C468.67,39.84,471.78,44.8,477.27,44.8Z"/><path class="cls-3" d="M519.15,47.37c-9.14,0-15.71-6.81-15.71-16.25a15.77,15.77,0,1,1,31.54,0C535,40.5,528.29,47.37,519.15,47.37Zm0-1.8c5.37,0,8.78-5.55,8.78-14.27S524.52,17,519.15,17s-8.66,5.5-8.66,14.28S513.83,45.57,519.15,45.57Z"/></svg>