<svg id="Layer_1" data-name="Layer 1" xmlns="http://www.w3.org/2000/svg" viewBox="0 0 417.71 44.61"><defs><style>.cls-1{fill:#1e1e1c;}.cls-2{fill:#f7a835;}.cls-3{fill:#343432;}</style></defs><path class="cls-1" d="M19.84,45.51,9.55,18.39C5.81,8.55,6.09,7.12.59,6.9V5.36H18.41V6.9C12,7.06,12.08,8,15.71,17.84l6.77,18.48,8.3-22.38c-2-5.94-2.52-6.88-7.37-7V5.36H42V6.9c-6.65.16-7.15,1-3.57,11L44.7,36.32l6.22-17.49C54.49,8.88,54.38,7.06,48.33,6.9V5.36H63.07V6.9c-5.55.16-6.71,1.7-10.39,12L43.22,45.51H41.68L32.33,18.56c-.28-.77-.5-1.49-.72-2.15L21.16,45.51Z" transform="translate(-0.59 -1.12)"/><path class="cls-1" d="M61.2,44.63V43.09c6-.17,6.16-1.43,6.16-12.05V19c0-10.62-.17-11.88-6.16-12.1V5.36H79.4V6.9c-6,.22-6.16,1.48-6.16,12.1v5h20.3V19c0-10.62-.17-11.88-6.16-12.1V5.36h18.2V6.9c-6,.22-6.16,1.48-6.16,12.1V31c0,10.62.17,11.88,6.16,12.05v1.54H87.38V43.09c6-.17,6.16-1.43,6.16-12.05V25.65H73.24V31c0,10.62.17,11.88,6.16,12.05v1.54Z" transform="translate(-0.59 -1.12)"/><path class="cls-1" d="M104,44.63V43.09c5.55-.17,6.32-1.43,10.56-11.5L125.38,4.48h1.32l10.73,27.66c3.85,9.85,4.4,10.62,9.35,11v1.54h-18V43.09c6.6-.17,5.78-.61,2.2-10.4l-.55-1.54H117l-.22.55c-4,9.79-4.46,11.22,2.58,11.39v1.54ZM129.84,29.5,123.9,13.17,117.57,29.5Z" transform="translate(-0.59 -1.12)"/><path class="cls-1" d="M147.55,44.63V43.09c7.37-.17,7.31-1.43,7.31-12.05V7H154C145.18,7,141.72,9.76,139,19.44l-1.21-.22,1-13.86h38l1,13.86-1.21.22C173.89,9.76,170.43,7,161.57,7h-.82V31c0,10.62-.06,11.88,7.31,12.05v1.54Z" transform="translate(-0.59 -1.12)"/><path class="cls-2" d="M198.2,45.51,187.91,18.39c-3.74-9.84-3.46-11.27-9-11.49V5.36h17.82V6.9c-6.38.16-6.33,1.1-2.7,10.94l6.77,18.48,8.3-22.38c-2-5.94-2.52-6.88-7.37-7V5.36h18.54V6.9c-6.65.16-7.15,1-3.57,11l6.32,18.37,6.22-17.49c3.57-9.95,3.46-11.77-2.59-11.93V5.36h14.74V6.9c-5.55.16-6.71,1.7-10.39,12l-9.46,26.57H220l-9.36-26.95c-.27-.77-.49-1.49-.71-2.15l-10.45,29.1Z" transform="translate(-0.59 -1.12)"/><path class="cls-2" d="M266.45,33.24c-.44-6.21-3.08-7.53-8.19-7.53h-4v5.22c0,11,.66,12,9.51,12h.33c8.53,0,12.38-4.24,15-8.69l1.1.44-2.37,9.9H242.25V43.09c6-.17,6.16-1.43,6.16-12.05V19c0-10.62-.16-11.88-6.16-12.1V5.36h33.28l.55,9.51-1.21.22C273.05,9.43,269.59,7,262.38,7H254.3v17h4c5.11,0,7.75-1.32,8.19-7.54h1.6V33.24Z" transform="translate(-0.59 -1.12)"/><path class="cls-3" d="M298.3,45.73c-8.42,0-14.47-6.27-14.47-15a14.52,14.52,0,1,1,29,0C312.87,39.4,306.71,45.73,298.3,45.73Zm0-1.65c4.95,0,8.08-5.12,8.08-13.15s-3.13-13.14-8.08-13.14-8,5.06-8,13.14S293.4,44.08,298.3,44.08Z" transform="translate(-0.59 -1.12)"/><path class="cls-3" d="M316.5,44.63V43.09c5.56-.17,6.22-1.43,6.22-12.05V24.61c0-4.79-.45-4.9-6.28-4.9h-.82V17.9l6.82-.33c-.05-9.52,5.5-15.9,14.58-15.9a11.5,11.5,0,0,1,9.57,4.4,11.07,11.07,0,0,1,9.35-4.95c4.34,0,7.86,1.76,7.86,5.89a3.13,3.13,0,0,1-3.19,3.46,2.87,2.87,0,0,1-3.08-3,24.44,24.44,0,0,1,.39-2.59c0-.71.05-2.36-2.64-2.36-3.58,0-6,3.52-6,11.38v3.69h.06c3,0,6.05-.22,9.07-.44v2.8c-2.25-.16-4.51-.16-6.76-.16h-2.37V31c0,10.62.17,11.88,7.54,12.05v1.54H337.73V43.09C343.29,42.92,344,41.66,344,31v-6.6c0-4.73-.44-4.84-6.27-4.84-3.8,0-7.54.11-9.63.17V31c0,10.62.17,11.88,7.54,12.05v1.54Zm11.55-27.06c4.51-.06,8.2-.17,15.62-.17a23.55,23.55,0,0,0,.39-4.67c0-6.11-2.92-9.68-7.54-9.68-5.5,0-8.47,4.12-8.47,11.93Z" transform="translate(-0.59 -1.12)"/><path class="cls-3" d="M375.79,45.73C367.54,45.73,362,40,362,31.54c0-9.19,5.83-15.4,14.36-15.4,7.86,0,12.59,5.77,11.88,13.42H368.47V30c0,8.08,3.41,13,9.08,13,5.11,0,8.63-3,9.24-7.92l1.87.22C388.05,41.38,382.66,45.73,375.79,45.73Zm-7.26-17.82h13.31c.55-5.89-1.87-10.12-5.78-10.12C371.72,17.79,369,21.47,368.53,27.91Z" transform="translate(-0.59 -1.12)"/><path class="cls-3" d="M392,44.63V43.09c5.56-.17,6.22-1.43,6.22-12.05V27.19c0-6.93-.39-7.92-6.27-8.08V17.62l11.6-.55v6.38c1.76-4.34,5.56-7.31,9.08-7.31,3.68,0,5.66,2.58,5.66,4.67s-1.1,3.74-3.3,3.74c-3.79,0-3.41-4.56-5.83-4.56-1.92,0-4.51,2.53-5.61,8.3V31c0,10.62.17,11.88,7.54,12.05v1.54Z" transform="translate(-0.59 -1.12)"/></svg>