<svg id="Layer_1" data-name="Layer 1" xmlns="http://www.w3.org/2000/svg" viewBox="0 0 418.36 50.72"><defs><style>.cls-1{fill:#9e9e9e;}.cls-2{fill:#f7a835;}.cls-3{fill:#343432;}</style></defs><path class="cls-1" d="M23.5,50.71,11,17.64C6.4,5.63,6.73,3.89,0,3.62V1.74H21.76V3.62C14,3.82,14.05,5,18.47,17l8.26,22.54L36.85,12.2c-2.41-7.24-3.08-8.38-9-8.58V1.74H50.47V3.62c-8.11.2-8.72,1.27-4.36,13.48l7.72,22.41,7.58-21.33C65.77,6,65.64,3.82,58.26,3.62V1.74h18V3.62c-6.77.2-8.18,2.08-12.67,14.69L52,50.71H50.14L38.73,17.84c-.33-.94-.6-1.81-.87-2.62L25.11,50.71Z" transform="translate(-0.02 -0.26)"/><path class="cls-1" d="M74,49.64V47.76c7.31-.2,7.51-1.74,7.51-14.69V18.38c0-12.95-.2-14.49-7.51-14.76V1.74h22.2V3.62c-7.31.27-7.51,1.81-7.51,14.76v6.1H113.4v-6.1c0-12.95-.2-14.49-7.51-14.76V1.74h22.2V3.62c-7.31.27-7.51,1.81-7.51,14.76V33.07c0,13,.2,14.49,7.51,14.69v1.88h-22.2V47.76c7.31-.2,7.51-1.74,7.51-14.69V26.49H88.65v6.58c0,13,.2,14.49,7.51,14.69v1.88Z" transform="translate(-0.02 -0.26)"/><path class="cls-1" d="M154.19,51c-13.62,0-26.09-9.39-26.09-25.29S140.57.26,154.19.26s26.1,9.46,26.1,25.43S167.74,51,154.19,51Zm0-2c10.6,0,17.65-9.19,17.65-23.28S164.79,2.28,154.19,2.28s-17.64,9.25-17.64,23.41S143.59,49,154.19,49Z" transform="translate(-0.02 -0.26)"/><path class="cls-2" d="M206.79,50.71,194.24,17.64c-4.56-12-4.22-13.75-10.93-14V1.74H205V3.62c-7.78.2-7.71,1.34-3.28,13.35L210,39.51,220.14,12.2c-2.42-7.24-3.09-8.38-9-8.58V1.74h22.61V3.62c-8.12.2-8.72,1.27-4.36,13.48l7.71,22.41,7.58-21.33C249.05,6,248.92,3.82,241.54,3.62V1.74h18V3.62c-6.78.2-8.19,2.08-12.68,14.69L235.3,50.71h-1.88L222,17.84c-.34-.94-.61-1.81-.87-2.62L208.4,50.71Z" transform="translate(-0.02 -0.26)"/><path class="cls-2" d="M290,35.75c-.53-7.58-3.75-9.19-10-9.19h-4.83v6.37c0,13.35.8,14.7,11.6,14.7h.41c10.4,0,15.09-5.17,18.31-10.6l1.34.53L304,49.64H260.53V47.76c7.31-.2,7.51-1.74,7.51-14.69V18.38c0-12.95-.2-14.49-7.51-14.76V1.74h40.58l.68,11.6-1.48.27c-2.21-6.91-6.44-9.86-15.23-9.86h-9.86v20.8h4.83c6.24,0,9.46-1.61,10-9.19H292V35.75Z" transform="translate(-0.02 -0.26)"/><path class="cls-3" d="M339.35,51c-4.29,0-6.91-2.15-7.44-5.77A13.43,13.43,0,0,1,320.57,51c-6,0-10.13-3.89-10.13-8.52A8.52,8.52,0,0,1,314.67,35c5.1-2.55,10.26-1.81,17.17-6.65V26.36c0-5.23-2.21-7.92-7.71-7.92-4.5,0-8.32,3.36-7,8.39l-2.22.74c-2.75-6.44,3-12.68,11.88-12.68,7.31,0,12.28,3.62,12.28,10.46,0,9.46-2.82,21.61,2.55,21.61,3,0,3.69-2.15,3.82-7.92h2C347.34,47.63,344.59,51,339.35,51Zm-15.49-4a7.77,7.77,0,0,0,8-8V30.65c-5,4.09-14.15,3.89-14.15,10.67C317.69,44.88,319.83,47,323.86,47Z" transform="translate(-0.02 -0.26)"/><path class="cls-3" d="M349.42,49.64V47.76c6.77-.2,7.58-1.74,7.58-14.69v-4.7c0-8.45-.47-9.66-7.65-9.86V16.7L363.51,16v7.78c2.14-5.3,6.77-8.92,11.07-8.92,4.49,0,6.91,3.15,6.91,5.7s-1.35,4.56-4,4.56c-4.63,0-4.16-5.57-7.11-5.57-2.35,0-5.5,3.09-6.84,10.13v3.36c0,13,.2,14.49,9.19,14.69v1.88Z" transform="translate(-0.02 -0.26)"/><path class="cls-3" d="M402.68,51c-10.06,0-16.83-7-16.83-17.31,0-11.2,7.11-18.78,17.51-18.78,9.59,0,15.36,7,14.49,16.37H393.76v.53c0,9.87,4.16,15.9,11.07,15.9,6.24,0,10.53-3.69,11.27-9.66l2.28.27C417.65,45.68,411.07,51,402.68,51Zm-8.85-21.74h16.23c.68-7.17-2.28-12.34-7-12.34C397.72,16.9,394.43,21.39,393.83,29.24Z" transform="translate(-0.02 -0.26)"/></svg>